<?xml version="1.0" encoding="UTF-8"?>
<svg id="Layer_2" data-name="Layer 2" xmlns="http://www.w3.org/2000/svg" viewBox="0 0 704.09 543.13">
  <defs>
    <style>
      .cls-1 {
        fill: #74b338;
      }
    </style>
  </defs>
  <g id="Layer_2-2" data-name="Layer 2">
    <g id="Layer_1-2" data-name="Layer 1">
      <g>
        <path class="cls-1" d="M704.09,276.24v2.69c-1.25,10-2.74,18.82-7.59,27.79-4.69,8.67-15.88,21.72-26.73,15.08-7.22-4.42.28-12.14.13-19.14-.28-12.99-13-14.74-19.34-3.4-20.12,36.06,16.12,93.22,12.34,130.63-2.18,21.67-31.24,28.59-47.71,18.22-14.93-9.4-9.49-24.76-10.46-39.7-1.34-20.69-11.79-52-20.14-71.23-2.37-5.46-5.15-11.6-8.94-16.12-3.18.03-3.28,19.08-3.12,21.93,1.44,27.03,10.96,50.87,19.03,75.92,2.31,7.19,7.52,23.67-4.26,24.91-8.21.87-24.09-8.16-32.46-11.45-4.87-1.92-16.41-3.77-18.91-7.94-4.02-6.72,2.2-11.32,4.8-17.39,12.9-30.11,13.22-96.01,3.59-127.21-1.52-4.94-6.79-13.31-7.11-16.9-1.06-11.7,18.73-8.04,25.63-7.01,35.12,5.21,29.27,17.45,36.05,46.34,2.02,8.62,4.56,17.23,7.62,25.52,2.95,8,19.83,47.82,18.85,16.07-1.17-37.69-22.11-75.99,17.59-102.38,29.71-19.75,60.74,1.34,61.13,34.77Z"/>
        <path class="cls-1" d="M164.44,192.03l15.14,8.57c28.02,20.51,22.34,58.17,63.37,72.75,26.94,9.57,72.49.75,87.78-25.51,2.59-4.46,5.26-16.95,13.16-10.14,9.49,8.17,4.51,26.67-2.27,35.38-19.85,25.47-87.51,28.96-117.65,27.34s-63.04-11.45-69.14-45.47c-2.72-15.16,2.03-41.35-13.35-51.15-3.84-2.44-17.35-5.22-18.95-.44-1.61,4.79,2.28,23.39,3.69,29.16,2.28,9.36,10.79,26.85,11.35,34.41.22,2.94-1.52,6.77-3.64,8.77-8.74,8.26-29.56.34-40.64-.35-11.67-.73-23.56,1.73-34.43,5.83-7.89,2.97-30.6,16.73-36.22,16.61-10.01-.21-7.42-9.31-3.54-15.2,15.31-23.26,48.53-23.1,63.73-49.09,10.23-17.49,19.1-63.03,13.35-82.01-5.48-18.06-19.71-11.77-18.15,4.73.81,8.59,10.64,10,2.75,19.68-12.13,14.87-31.92,1.2-36.69-13.48-18.9-58.2,75.9-73.26,114.83-63.9,56.25,13.52,59.79,75.85,5.51,93.5ZM136.46,122.33c-3.8.78-7.28,4.77-8.87,8.15-3.46,7.36-4.77,25.04-4.31,33.3.7,12.34,1.8,14.95,14.56,10.11,15.76-5.98,21.77-25.98,15.14-40.74-2.79-6.21-9.17-12.34-16.52-10.82Z"/>
        <path class="cls-1" d="M607.19,90.12c-4.71-4.63-13.08-3.81-18.47-.61-10,5.94-21.04,23.26-29.59,32.2-5.07,5.3-10.7,9.87-16.13,14.75,17.36-.21,33.82,4.98,41.2,21.93,8.39,19.3,7.98,65.55,33.07,72.62,5.35,1.51,16.78-.16,15.07,7.84-.9,4.22-13.87,12.79-18.02,14.26-14.96,5.32-20.99-3.54-33.77-7.75-10.51-3.47-27.19-3.43-31.71-15.74-6.72-18.31.64-61.45-11.17-73.93-6.25-6.61-19.39-5.52-22.17,3.86-2.9,9.78.05,25.54,4.08,34.86,4.32,10.02,24.39,29.6,15.39,41.07-6.05,7.71-17.81,3.56-25.53,3.13-11.56-.64-20.98.51-32.22.87-9.04.29-18.93.46-16.34-11.89,1.04-4.96,7.29-15.68,9.38-21.96,10.44-31.35,15.43-83.41-1.07-113.1-5.69-10.24-15.01-16.39.72-25.23,10.11-5.68,39.1-14.86,50.26-14.16,6.19.39,15.68,3.88,14.43,11.65-.96,5.97-11.13,21.57-14.13,28.95-3.68,9.04-9.29,25.57-5.9,34.89,1.56,4.27,7.08,2.03,9.94.51,24.62-13.11,20.07-65.74,50.95-86.07,27.4-18.05,67.39-5.16,66.94,31.13-.16,12.69-12.43,32.94-26.38,32.61-15.04-.35-3.39-11.35-8.83-16.7Z"/>
        <path class="cls-1" d="M313,374.81l9.24,3.73c24.24,14.19,11.37,52.15,32.88,67.43,20.03,14.24,61.47-1.91,83.9-6.38,39.57-7.89,100.98-8.78,123.49,31.7,19.56,35.17-.71,81.95-44.75,69.89-16.72-4.57-26.65-25.66-14.13-39.6,10.69-11.91,10.2,5.15,19.47,6.55,9.12,1.38,16.36-10.13,16.4-18.2.07-15.23-11.22-26.76-24.52-31.97-60.6-23.76-122.99,51.04-178.72,20.34-26.07-14.36-25.11-38.75-29.78-64.27-1.48-8.12-3.59-26.32-13.7-27.57-10.93-1.35-9.01,11.58-8.4,19.23,1.53,19.28,9.99,24.88,15.37,40.16,1.72,4.89,2.39,9.59-2.92,12.64-5.58,3.21-28.82,3.57-34.25.38-4.04-2.37-7.61-13.25-8.89-17.98-3.93-14.51,1.45-24.25,3.57-38.14,2.9-18.96,3.72-56.64-7.41-72.7-3.85-5.56-10.54-8.66-6.72-17.38,5.77-4.35,13.74-2.51,20.19-3.3,23.1-2.81,64.11-14.59,78.49,11.04,13.29,23.69-4.32,49.76-28.8,54.39ZM297.6,322.13c-5.96.59-9.85,4.59-11.39,10.16-1.64,5.94-2.92,23.7-1.85,29.51.9,4.87,10.84.83,13.76-.56,18.52-8.84,18-40.95-.52-39.12Z"/>
        <path class="cls-1" d="M84.2,362.85c-7.54-7.55-3.55-27.86,7.39-29.24,5.45-.69,15.32,6.98,16.43-5.96.84-9.79-7.08-16.78-16.53-16.52-51.4,1.4-55.77,120.85-4.7,113.61,9.35-1.33,19.05-12.01,13.58-21.2-4.23-7.12-10.55-1.21-15.96-1.87-10.08-1.24-14.88-23.74.89-25.89,11.13-1.51,19.35,1.03,31.5-2.52,6.25-1.82,26.15-11.87,27.01,1.14.39,6-10.17,19.4-12.92,26.4-11.07,28.11-1.2,63.5-18.51,88.98-5.06,7.44-21.56,21.79-30.34,13.66-5.94-5.5,3.44-10.78,6.7-14.92,7.62-9.68,12.04-22.52,12.15-34.87-5.05,6.96-9.12,13.26-16.72,17.74-20.62,12.14-45.3,3-60.69-13.25-55.55-58.69-5.7-187.36,78.35-168.94,46.52,10.19,35.61,74.96-3.28,77.42-4.63.29-10.93-.35-14.35-3.77Z"/>
        <path class="cls-1" d="M402.31,72.22c17.4-1.77,37.59.09,48.88,15.05,15.42,20.44,5.2,59.19-23.18,60.01-12.74.37-25.32-11.43-15.98-23.21,8.27.61,16.57,1.02,17.34-9.57,1.15-15.81-18.29-18.61-29.09-10.26-25.94,20.04-30.95,83.09,9.94,85.88,10.67.73,24.13-6.28,27.89-16.65,1.66-4.58.67-11.16,7.09-12.61,17.89-4.04,22.25,17.27,20.75,30.63-5.21,46.31-56.5,78.89-97.75,48.77-49.87-36.41-38.09-160.7,34.12-168.03Z"/>
        <path class="cls-1" d="M202.7,407.27c-2.29-1.97-11.36-1.19-14.36-.02-8.41,3.27-8.5,18.57-7.78,26.23,1.63,17.43,14.8,29.68-11.62,34.99-6.23,1.25-18.54,3.02-24.69,3.13-17.09.31-12.88-16.46-8.33-27.23,4.76-11.28,10.4-19.72,14.43-32.14,5.44-16.8,15.92-52.57,16.75-69.24.15-2.99-1.28-18.94-6.17-11.56-2.57,3.88.82,12.26-9.97,9.86-13.99-3.11-16.18-40.8,3.26-43.46,17.31-2.37,39.94,11.13,59,13.35,7.37.86,16.91-2.17,21.2,6.54,3.45,7.01-1.04,11.15-2.62,17.47-6.64,26.49-.6,60.53,6.98,86.59,2.19,7.54,8.51,19.17,9.55,25.37,1.69,10.01-3.25,14.5-12.77,15.46s-20.13.11-29.54.93c-8-1.47-8.13-6.78-7.48-13.8,1.02-11.1,6.31-24.71,6.17-35.96-.01-1.21-1.31-5.88-2.02-6.49ZM193.71,338.2c-4.39,1.23-9.2,20.08-10.2,24.79-1.89,8.89-5.38,20.19,7.32,21.67,2.54.3,12.98.46,13.8-2.35-1.9-12.61-.08-29.52-6.31-40.98-1.17-2.16-1.48-3.99-4.62-3.11Z"/>
        <path class="cls-1" d="M379.04,264.86c74.05-7.02,90.06,103.26,48.08,147.59-14.48,15.29-40.95,28.44-62.23,22.86-25.51-6.69-11.76-31.67-8.45-48.82,4.59-23.8,6.58-64.08-9.06-84.18-5.26-6.76-13.6-8.14-5.31-18.91,8.38-10.89,23.53-17.26,36.98-18.53ZM390.67,292.57c-4.51.45-6.27,2.11-6.89,6.6-2.02,14.58.08,37.21-.04,52.82-.06,7.19-1.44,14.7-.97,22.4.59,9.62.46,16.84,11.99,11.92,23.53-10.04,25.64-42.54,20.72-64.39-2.6-11.54-10.06-30.82-24.8-29.36Z"/>
        <path class="cls-1" d="M489.12,250.53c14.55-1.29,33.09.69,40.95,14.92,5.63,10.2,3.45,32.84-11.5,29.42-6.47-1.48-6.55-14.28-16.69-16.43-12.83-2.71-18.43,7.53-18.88,18.82-.19,4.83.34,16.06,6.06,17.34,8.12,1.82,8.9-7.21,14.25-10.43,17.45-10.5,15.22,35.32,5.96,38.23-7.77,2.44-7.97-8.41-13.46-9.54-14.38-2.94-16.96,33.91-5.02,40.92,9.61,5.64,24.45-2.52,30.24-10.67,2.71-3.82,6.78-18.52,13.9-12.93,5.45,4.27,3.51,26.99,2.6,33.93-2.4,18.22-8.31,41.11-30.75,39.97-15.23-.77-23.52-5.67-41.07-3.46-5.56.7-23.23,6.71-26.06.79-1.15-8.89,5.86-17.23,9.17-25.77,10.16-26.19,15.99-83.87,1.47-108.54-4.17-7.09-14.47-11.07-4.22-19.66,10.54-8.84,29.47-15.7,43.07-16.91Z"/>
        <path class="cls-1" d="M152.8,84.5h-19.24c-.27,0-4.45-1.87-4.9-2.27-5.68-4.95,3.74-23.2-2.04-29.76-10.16-4.23-12.79,3.02-12.29,11.85.56,9.8,7.55,16-4.51,20.6-5.36,2.05-20.92,5.94-19.64-3.48.68-5.02,3.86-12.5,4.92-18.43,1.54-8.67,2.84-19.48,2.21-28.23-.53-7.28-5.35-16.74-1.29-22.82,5.46-8.17,18.99-6.5,20.11,3.97.69,6.44-6.12,21.67,3.45,23.26,17.35,2.9,2.63-25.79,6.13-33.34,3.54-7.64,34.23-9.66,28.6,5.34-8.43,22.43-10.82,34.82-4.64,58.96,1.24,4.85,4.83,9.67,3.13,14.34Z"/>
        <path class="cls-1" d="M51.64,34.48c-10.49-1.35-6.49,10.27-7.62,14.92-.84,3.46-5.09,6.7-8.69,6.41-17.3-1.39-14.18-39.49,4.32-41.23,7.65-.72,14.99,2.54,22.39,2.77,6.75.2,15.49-2.97,21.5-1.8,9.04,1.75,10.15,27.9,6.92,34.66-4.62,9.66-7.82-8.16-8.71-10.47-3.07-7.98-11.1-8.93-12.08-.48-.91,7.78,1.28,19.08,4.06,26.44,3.43,9.08,15.78,19.82,4.64,27.07-4.66,3.03-18.07,9.76-23.27,11.64-6.23,2.25-12.87,1.56-13.96-6.07-1.73-12.11,6.13-18.44,9.92-28.43,4.12-10.87,5.08-24.61.6-35.4Z"/>
        <path class="cls-1" d="M176.33,27.41c-2.1,2.45-2.9,8.4.12,10.56,4.74,3.38,8.27-2.69,11.51-1.74,4.39,1.29,3.97,12.17.65,14.71-3.73,1.95-6.33-3.78-11.04-2.14-5.77,2.01-1.45,16.07,8.8,16.06,12.41-.02,10.91-13.78,15.39-15.12,14.15-4.25,13.35,17.03,10.28,25.51-8.1,22.36-38.76,20.26-51.17,3.43-10.23-13.88-12.83-53.99,2.24-64.95,10.08-7.33,39.83-7.57,41.63,8.49.36,3.18.37,8.1-2.92,9.67-5.14,2.44-6.5-3.31-10.21-5.48-4.15-2.43-11.98-2.81-15.27,1.01Z"/>
        <path class="cls-1" d="M271.65,85.67c20.49-1.59,40.71,7.45,50.69,25.77,22.05,40.45,9.32,144.89-48.28,150.47-98.37,9.51-79.94-170.22-2.41-176.23ZM275.17,111.58c-25.65,5.27-37.52,69.2-16.68,86.19,11.23,9.16,23.65,3.5,30.72-7.61,10.06-15.8,11.96-44.71,5.92-62.23-2.81-8.15-10.14-18.36-19.96-16.34Z"/>
      </g>
    </g>
  </g>
</svg>