<?xml version="1.0" encoding="UTF-8"?>
<svg id="Layer_2" data-name="Layer 2" xmlns="http://www.w3.org/2000/svg" viewBox="0 0 121.53 64.33">
  <defs>
    <style>
      .cls-1 {
        fill: #0e0c07;
      }

      .cls-2 {
        fill: #664d49;
      }

      .cls-3 {
        fill: #ed9701;
      }

      .cls-4 {
        fill: #fdfdfd;
      }
    </style>
  </defs>
  <g id="Layer_1-2" data-name="Layer 1">
    <g>
      <path class="cls-4" d="M121.22.65l-.14-.1c-.18-.15-.37-.21-.72-.21h-9.49s-1.59,0-1.59,0c-.18,0-.44.09-.59.21-.2.16-.33.4-.47.66-.03.07-.07.13-.1.19l-.58,1.04-.37.69-.79,1.48-.2.37-.23-.35-.79-1.19-.12-.19-.86-1.26-.21-.31-.74-1.07s-.08-.04-.12-.07c-.18-.1-.38-.21-.53-.21l-8.42-.02c-.16,0-.31.01-.38.03-.23.07-.45.2-.54.32-.16.23-.26.55-.34.81l-.08.25-.1.31-.12.38-.2.62-.07.2-.12.37-.12.38-.22.72-.05.16-.24.79-.16.53-.29-.47-.79-1.28-.12-.16c-.75-.9-1.43-1.57-2.14-2.11l-.25-.18-.05-.03s-.06-.05-.09-.09l-.58-.3-1.31-.62-.41-.14-1.31-.35-1.04-.14-1.12-.08h-2.11s-.76,0-.76,0h-5.84s-.13,0-.13,0h-3.33s-1.52,0-1.52,0c-.33,0-.72.18-.81.33l-.09.15-.09.17-.02.5v2.46s-.01,1.7-.01,1.7l-.04.93-.08,1.74-.42-1.69-1.15-4.69c-.06-.24-.12-.49-.09-.72l-.1-.23c-.1-.23-.24-.43-.37-.51l-.2-.12h-10.67c-.22,0-.44.03-.6.1l-.14.06-.25.23-.08.27c-.03.12-.04.32-.04.5v19.18c0,.54-.35,1.06-.82,1.22-.28.1-.56.11-.75.11-.12,0-.24,0-.35-.01h-.07s-.19-.01-.19-.01l-3.45.02h-.81s0,.01,0,.01c-.17,0-.33-.12-.34-.13l-.13-.1.04-.16.15-.64.05-.36.58-3.6.13-.76.09-.55.15-.89.09-.61.14-.89.13-.82.12-.74.12-.7.14-.78.11-.67.34-2.09.07-.23v-.43s-.13-.46-.13-.46v-.04c-.1-.08-.18-.19-.23-.3l-.15-.36-.61-1.39-.17-.39-.07-.17-.12-.28-.07-.15-.17-.35-.13-.32-.06-.11-.67-1.39-.17-.37-.09-.2-.03-.06c-.15-.1-.3-.16-.5-.16h-11.49c-.13,0-.29.04-.34.07l-.27.13-.15.13-.06.1s-.08.21-.12.43l-.49,2.7-.11.62-.53,3-.15.82-.33-.76-1.13-2.62-.11-.25-.89-2.08-.11-.26-.07-.17-.18-.39c-.04-.09-.08-.19-.12-.28-.13-.31-.26-.6-.44-.85-.11-.16-.44-.28-.64-.28h-6.67s-.35.04-.35.04l-.24.07-.08.05c-.07.04-.17.15-.19.19-.15.27-.21.57-.28.89l-.14.66-.11.54-.03.14-.45,2.25-.15.74-.09.46-.09.44-.24,1.11-.16.76-.31-.71-.41-.93-.13-.31-.11-.26-.1-.24-.63-1.45-.18-.46-.05-.11-.2-.44-.63-1.45-.06-.13-.13-.29-.12-.27-.37-.79c-.15-.32-.46-.46-.99-.46-.11,0-.21,0-.32.02h-.59s-3.39,0-3.39,0H1.08s-.31.07-.31.07l-.1.05-.27.24-.04.07-.08.22c-.06.17-.04.42.05.77l.09.33.13.57.09.43.13.76.15.54.14.6.14.64.15.68.07.32.14.62.15.64.36,1.68.12.65.14.34.07.19.17.36.1.23.45,1.04.08.2.09.22.11.26.17.37.1.24.66,1.54.1.23.12.32.09.3c.08.09.14.2.18.28l.1.25.65,1.52.1.25.17.38.09.24.11.26.13.31.16.38.08.19.13.31.16.39.08.19.13.3.37.89.18.46.12.22.09.2.17.38.09.22.2.47.1.26.07.16.17.4.08.18.13.31.17.39.08.19.42,1.01.09.23.13.32.17.39.15.31.06.13.36.88.19.45.11.24.08.19.37.87.19.46.11.25.08.18.37.88.18.44.12.23.08.21.4.94.15.38.03.07h0s.08.09.1.14l.08.23.45,1.06.1.25.08.2.11.24.43.95.17.38v.03s.02.03.02.03v.08s.17.34.17.34l.33.76.14.32.19.43.08.18.4.91.08.19.14.34.08.18-.16.12c-.63.46-1.15,1-1.62,1.51l-.35.51-.6,1.06-.06.18-.16.36-.08.22-.16.64-.11.56c-.07,1.15-.06,2.23.04,3.25l.1.41.13.55.06.19.14.4.15.39.56,1.17.13.24.13.22.19.34.15.27.03.06.63,1.13.17.34.08.14.18.35.15.24.92,1.69.13.27c.03.05.04.11.05.17.12.1.21.27.27.41l.81,1.46.09.09c.61.75,1.26,1.33,2.01,1.78l.79.38.27.09.47.16.44.15.76.12h.24s.2.03.2.03h83.02s.96-.02.96-.02l.1-.03.76-.1.93-.3.19-.05.87-.44.34-.23.25-.18,1.27-1.25.17-.25.28-.46.16-.28.17-.3.06-.13.85-1.55.16-.28.19-.32.11-.2.13-.24.13-.25.54-.97.52-.93.75-1.34.26-.41s.01-.07.03-.11l.12-.25.18-.37.07-.18.16-.39.09-.24.36-1.65.06-1.4-.03-1.05-.02-.24-.06-.55-.19-.66c-.11-.44-.31-.9-.61-1.45l-.14-.26c-.08-.14-.08-.35,0-.5l.83-1.68.13-.26.37-.74.09-.19.16-.31.13-.26.37-.75.13-.26.1-.21.12-.25.15-.29.05-.16.14-.28.19-.38.62-1.26.06-.13.19-.38.14-.26.06-.12.38-.81.05-.09.21-.47.06-.13.2-.39s.02-.07.02-.09v-14.27s.03-18.67.03-18.67l-.05-.52ZM31.08,41.02l-2.68.02h-.17s-.07-.15-.07-.15l-.08-.19-.03-.08.02-.08.09-.35.1-.57.1-.7.58-3.15.16-.88.32.84,1.88,4.96.13.34h-.36ZM44.39,41.03h-.65s-.62.01-.62.01h-.26s.01-.26.01-.26l.02-.47.33-1.95.14-.83.33.78.38.89.13.31.05.15.36,1.04.11.33h-.35ZM67.22,38.65v1.59s-.02.55-.02.55v.24s-.25,0-.25,0h-4.35s-.58-.02-.58-.02l-.66-.03.51-.42c1.99-1.62,3.48-3.61,4.83-6.45l.44-.93.03,1.03.04,1.18v1.14s.01,1.77.01,1.77v.35ZM80.65,41.04h-1.22s-1.21,0-1.21,0h-.27s.02-.27.02-.27l.02-.25.09-.92.1-.48.34-2.36.13-.52.18-.71.29.68,1.76,4.13v.02s.11,0,.11,0v.25c0,.09-.09.42-.35.42ZM106.86,41.04h-.08s-3.35,0-3.35,0h-.35s.11-.33.11-.33l.23-.68,1.07-2.95.18-.49.27.45,1.6,2.64.53,1,.19.36h-.41Z"/>
      <path d="M121.47.58s0-.05,0-.06l-.23-.17c-.25-.21-.53-.26-.87-.26h-9.49s-1.59,0-1.59,0c-.24,0-.56.12-.74.26-.3.23-.45.6-.64.93l-.58,1.04-.38.69-.79,1.48-.79-1.19-.12-.18-.86-1.26-.21-.31-.78-1.13c-.25-.12-.55-.33-.82-.33l-8.42-.02c-.15,0-.34.01-.45.04-.24.07-.53.22-.67.42-.18.26-.29.58-.38.88l-.08.25-.1.31-.12.38-.2.62-.07.2-.12.37-.12.38-.22.72-.05.16-.24.79-.79-1.28-.14-.18c-.66-.79-1.37-1.54-2.19-2.15l-.25-.18-.06-.04s-.02-.04-.02-.06l-.66-.35-1.32-.62-.43-.15-1.32-.36-1.07-.15L81.92,0h-2.13s-.76,0-.76,0h-5.84s-.13,0-.13,0h-3.33s-1.52,0-1.52,0c-.38,0-.88.2-1.02.45l-.09.15-.12.23-.02.56v2.47s-.01,1.7-.01,1.7l-.04.92-1.15-4.69c-.06-.23-.12-.48-.07-.69l-.13-.3c-.1-.23-.27-.5-.47-.62l-.26-.16h-10.74c-.26,0-.51.04-.7.12l-.19.08-.33.31-.09.33c-.04.15-.05.35-.05.57v19.18c0,.44-.29.86-.65.99-.36.13-.74.1-1.07.08h-.19s-3.47,0-3.47,0h-.81c-.06.01-.15-.04-.19-.06l.15-.64.06-.38.58-3.6.13-.76.09-.56.15-.89.1-.61.14-.89.13-.82.12-.74.12-.7.14-.78.11-.67.34-2.1.07-.23v-.5s-.14-.49-.14-.49l-.03-.12c-.08-.05-.17-.16-.21-.26l-.15-.36-.62-1.4-.17-.39-.07-.17-.12-.28-.08-.16-.17-.34-.12-.3-.08-.14-.66-1.38-.17-.37-.1-.2-.06-.12c-.2-.14-.41-.24-.7-.24h-11.49c-.15,0-.36.05-.45.1l-.3.15-.2.18-.08.14c-.06.11-.12.34-.15.51l-.49,2.7-.11.63-.53,3-1.13-2.62-.12-.26-.89-2.07-.11-.26-.07-.17-.18-.39c-.18-.4-.33-.82-.59-1.18-.17-.23-.57-.38-.85-.38h-6.67s-.38.04-.38.04l-.32.08-.11.07c-.09.06-.23.19-.28.28-.16.3-.23.62-.3.95l-.14.66-.11.54-.03.14-.45,2.25-.15.74-.09.45-.09.44-.24,1.11-.41-.93-.13-.3-.11-.26-.1-.24-.63-1.45-.18-.46-.06-.12-.2-.44-.63-1.45-.06-.13-.13-.3-.12-.27-.38-.79c-.29-.6-.98-.64-1.56-.59h-.57s-3.39,0-3.39,0H1.08s-.39.08-.39.08l-.16.08-.33.3-.06.11-.09.26c-.1.27-.03.63.05.92l.09.33.12.56.09.43.12.75.15.56.14.59.13.63.15.68.07.32.14.62.15.64.36,1.68.12.65.15.39.07.19.18.38.1.22.45,1.04.08.2.08.22.12.27.18.38.1.23.66,1.54.1.23.12.31.11.35c.06.05.13.15.17.24l.1.25.65,1.52.1.24.17.39.09.23.11.26.14.31.16.38.08.19.13.31.16.39.08.19.13.3.37.88.18.46.13.25.08.19.17.38.09.22.2.47.09.25.07.17.17.4.08.18.13.31.17.39.08.18.42,1.01.09.23.13.32.17.4.15.32.05.12.36.87.2.46.11.25.08.18.37.87.19.46.11.25.08.18.37.88.18.44.13.25.07.19.41.95.15.38-.03.14c.06,0,.13.02.15.06l.08.23.46,1.07.1.25.09.2.11.24.43.95.17.38.02.12.18.37.32.75.14.32.19.43.08.18.4.91.08.19.14.34c-.63.46-1.16,1-1.66,1.54l-.37.54-.62,1.08-.08.22-.16.34-.09.24-.16.67-.12.57c-.07,1.11-.07,2.22.04,3.33l.11.45.13.55.07.21.14.41.15.4.57,1.19.13.25.14.23.18.33.15.27.04.06.63,1.12.17.33.08.15.17.34.16.26.91,1.68.13.26c.03.05.04.16.04.21.11.02.21.2.27.34l.84,1.52.12.12c.58.72,1.26,1.34,2.06,1.82l.81.39.3.1.46.16.44.15.8.13.26.02.19.02h83.04s1.08-.02,1.08-.02v-.03s.77-.1.77-.1l.97-.31.21-.06.89-.45.36-.24.26-.19,1.3-1.28.2-.28.29-.47.17-.29.17-.3.07-.13.85-1.54.16-.28.18-.32.11-.21.13-.25.13-.24.54-.97.52-.93.75-1.34.3-.45s0-.06,0-.07l.12-.25.18-.37.08-.19.16-.39.09-.25.37-1.68.06-1.44-.03-1.07-.02-.26-.06-.55-.19-.7c-.14-.52-.37-1.03-.63-1.5l-.14-.26c-.03-.06-.04-.19,0-.27l.83-1.68.13-.26.37-.74.09-.19.16-.31.13-.26.37-.75.13-.26.1-.21.12-.25.15-.29.07-.19.13-.24.19-.38.62-1.26.06-.13.19-.38.13-.25.06-.12.39-.82.04-.07.23-.49.06-.13.2-.37s.05-.15.05-.21v-14.27s.03-18.67.03-18.67l-.06-.59ZM108.34,2.16l-.02,5.62-1.66-2.54,1.68-3.07ZM93.78,1.29c0-.18.11-.35.3-.35h8.3c.26,0,.43.14.57.34l3.83,5.66,2.24,3.28.07-9.03c0-.19.32-.24.47-.24l11.03.02.05.68v4.11s-.02,25.66-.02,25.66l.05.38-.05.25v1.62c-.08.04-.18.09-.24.1l-8.49-.02-.25-.05c-.06-.17-.18-.33-.31-.39l-.06-.2-1.42-2.05-4.82-6.76-.06,4.74v2.71s0,1.07,0,1.07l-.04.95-9.51-.02-.13-.17-.11-.33c-.04-.11-.08-.29-.05-.41l9,.04.04-11.25,8.03,11.26h7.57s0-21.25,0-21.25l.02-9.81-9.93-.02-.07,11.27-7.55-11.27h-7.63s0,2.73,0,2.73v3.14s0,.56,0,.56v3.6s0,1.44,0,1.44l-.02,15.1v1s0,2.23,0,2.23c-.05.07-.16,0-.1-.08l-.71-1.56V13.73s0-12.45,0-12.45ZM103.43,40.79l.23-.67,1.07-2.95,1.59,2.63.53,1h-.07s-3.35,0-3.35,0ZM78.14,35.44l-.27,1.77-.42,2.89-.1.69h-.83s.92-6.28.92-6.28l.86-.02-.15.96ZM78.23,40.55l.08-.89.1-.5.34-2.34.13-.52,1.76,4.13v.14s.07.02.09.03c.02,0-.04.18-.09.18h-1.22s-1.21,0-1.21,0l.02-.24ZM91.51,40.81l1.69-6.35h1.16s-1.83,6.34-1.83,6.34h-1.02ZM95.18,29.38v-1.71s0-15.01,0-15.01v-.59s0-7.22,0-7.22v-2.53s6.74.01,6.74.01l7.99,12.03c.11.17.19.23.4.34l.08-.56.05-11.81,8.76.02-.03,7.36v22.55s-6.69-.01-6.69-.01l-2.65-3.78-5.99-8.4c-.07-.05-.2-.1-.23-.06-.02.03-.06.14-.06.2l-.03,12.03h-8.34s0-.9,0-.9v-1.97ZM102.53,40.79l-1.03-.04.15-.46.79-2.4,1.15-3.4,1.2.02-2.26,6.27ZM108.64,40.16l-.14.54c-.16.11-.53.15-.7.03l-.44-.78-.37-.62-1.91-3.2.7-1.99c.11-.32,0-.77.01-1.08l.02-1.45v-.76s-.01-2.5-.01-2.5l.03-1.68,2.26,3.19,2.19,3.14.7,1.03-2.34,6.14ZM92.59,12.58l.08,1.38.02,1.45-.11,3.99c-.02.65-.18,1.25-.34,1.87l-1.19,3.45-.98-1.76.83-4.23.33-1.76c.76-1.37,1.18-2.83,1.38-4.38ZM92.73,3.59l.32-.94v7.49s0,.12-.03.12h-.1c.02-.36-.15-.78-.28-1.12l-.17-.54-.67-1.95.93-3.07ZM67.81,7.64V1.28c.01-.19.14-.39.35-.39h13.82c1.16.01,2.25.24,3.32.61,3.74,1.3,5.98,4.64,6.51,8.48l.08.9v.25c.06,2.43-.65,4.79-2.14,6.71-.65.84-1.4,1.48-2.28,2.12l1.59,2.9,3.75,6.95,1.37,2.97.19.43.08.31c.02.06-.11.19-.19.19h-11.49s-2.57-4.59-2.57-4.59l-1.81-3.14-.04,4.7s0,.01,0,.02v.87s-.01.65-.01.65l.03.49-.03.99-.39.05h-.77s-1.2,0-1.2,0h-4.27s-.19,0-.19,0h-1.33s-1.55,0-1.55,0h-.17s-.67-.05-.67-.05V7.64ZM24.86,33.05l1.04-4.81.51-2.27,1.66,6.22.6,2.05-.98,5.49-.17,1.03h-.36s-.53-1.87-.53-1.87l-1.66-5.42c-.03-.09-.13-.33-.11-.43ZM28.42,40.23l.1-.57.1-.69.58-3.15,1.88,4.96-2.68.02-.08-.19.1-.37ZM29.3,33.92l-.59-2.13-.74-2.59.11.03,2.04,4.83,1.91,6.74c-.06,0-.11-.09-.14-.18l-2.58-6.7ZM42.33,40.34l-.07.47h-.33s-1.16-5.13-1.16-5.13l-.32-1.38c-.06-.27-.07-.54-.03-.83l.14-.97.03-.11v-.15s.47-2.84.47-2.84l.4-2.45.3-1.69.03,2.28v4.27s0,1.89,0,1.89c0,.35.07.67.24.94l.05.17.8,1.97-.47,3.08-.08.5ZM43.13,40.35l.33-1.95.38.89.13.3.05.15.36,1.04h-.65s-.62.01-.62.01l.02-.44ZM62.62,40.79l-.58-.02c2.23-1.81,3.67-3.95,4.89-6.54l.04,1.17v1.14s.01,1.76.01,1.76v.35s0,1.59,0,1.59v.55s-4.35,0-4.35,0ZM64.76,27.33c.35-1.4.59-2.75.6-4.23l.06-19.4.84,3.38.21.88.14.64.32,1.39v17.65s-.06,3.44-.06,3.44c0,.32.01.68-.07.98l-.19.71-.27.8c-.49,1.13-1.03,2.18-1.75,3.24l.14-8.53.03-.93ZM51.66,22.53c1.17,0,1.92-.97,1.92-2.07V1.25c0-.25.21-.35.43-.35h10.37c.11-.01.36.11.36.25l-.05,22.32c0,1.63-.33,3.2-.97,4.64l-.09.21-.08.15c-.94,1.79-2.41,3.2-4.24,4.09-.77.38-1.53.66-2.37.84-.9.19-1.78.35-2.71.35l-11.57.02v-11.05c0-.09.21-.2.29-.19h8.74ZM45.66,1.87l1.59,3.44.73,1.63-2.42,14.67c-.06.02-.17.07-.24.07h-1.33s-1.26,0-1.26,0l-.4.09,2.09-12.77,1.24-7.14ZM.98,1.42c-.03-.07-.01-.24.03-.3.04-.04.17-.09.26-.09l12.44-.03c.15,0,.36.06.41.19l4.14,9.67,1.01-4.73.96-4.66c.04-.19.11-.51.38-.51h6.76c.1,0,.25.17.3.27l3.95,9.09.78-4.13.22-1.26.68-3.63c.04-.21.14-.41.4-.41h11.37s-1.12,6.72-1.12,6.72l-1.03,6.15-1.09,6.7-.98,5.95-1.02,6.35-.07.64-.12.32h-8.73s-.18-.12-.18-.12l-4.39-10.24c-.4,1.26-.57,2.39-.84,3.58l-1.48,6.69c-.08.05-.21.09-.28.09h-1.02s-.69-.02-.69-.02h-2.96s-.31,0-.31,0h-.25s-.14,0-.14,0h-2.43s-1.18,0-1.18,0l-.24-.54-.14-.31-.06-.13-.19-.44-.07-.13-.11-.31-.65-1.57-.19-.39-.07-.17-.13-.33-.11-.24-.2-.44-.06-.13-.08-.2-.43-1.06-.13-.31-.17-.39-.11-.25-.65-1.52-.13-.31-.58-1.38-.17-.4-3.89-9.16L2.15,4.05.98,1.42ZM12.67,33.44l-1.05-2.48-.53-1.25-.55-1.29-.33-.77-4.43-10.42-3-6.98-1.18-5.5,5.09,12,2.5,5.85,1.92,4.52.29.7.53,1.24.62,1.47.15.31.31.77.18.46,1.99,5.15,1.18,3.32.38,1.11c-.16.09-.29.15-.43.19l-3.65-8.42ZM20.9,62.98c-1.03-.51-2.06-1.19-2.65-2.25l-3.06-5.55.08-.07c1,.81,2.16,1.41,3.43,1.63l3.06,6.46c-.34-.04-.62-.11-.87-.23ZM113.94,56.51l-2.22,4.01c-.69,1.25-1.88,2.15-3.2,2.64-.23.09-.48.11-.7.12l2.77-5.96.26-.47c.94-.15,1.79-.48,2.62-.94l1.29-.85-.81,1.45ZM116.74,48.97c-.01,2.12-.75,4.11-2.39,5.5-1.29,1.1-2.88,1.79-4.61,1.8h-3.29s-86.54,0-86.54,0h-.78s0-.11-.04-.11l-.15-.02c-1.89-.41-3.6-1.48-4.65-3.14-.85-1.21-1.09-2.58-1.09-4.02,0-1.58.35-3.03,1.31-4.31.91-1.21,2.14-2.08,3.56-2.58l1.32-.32.71-.06h89.37s1.04.06,1.04.06c1.29.13,2.54.66,3.56,1.44,1.8,1.38,2.69,3.5,2.68,5.77ZM115.89,43.77l-.57-.63.47-1.02.67-1.42,2.91-6.17h1.04s-4.52,9.24-4.52,9.24ZM109.72,42.76h-48.99s-40.5,0-40.5,0c-2.51,0-4.81,1.7-5.66,4.01-.64,1.74-.51,3.63.4,5.26,1.01,1.81,3.06,3.24,5.25,3.24h89.45c2.36,0,4.51-1.58,5.46-3.61.47-1.01.57-1.85.57-2.89,0-3.23-2.66-6-5.97-6.01ZM115.09,49.14c-.13,3.14-2.61,5.54-5.74,5.54h-14.38s-.53,0-.53,0h-29.35s-2.04.01-2.04.01h-3.02s-.4-.01-.4-.01H20.22c-.56,0-.99-.11-1.48-.27-2.45-.81-4.05-3.09-3.94-5.69.07-1.73.91-3.28,2.31-4.28,1.04-.74,2.2-1.05,3.49-1.05l89.3.02c3.06,0,5.31,2.84,5.19,5.73ZM7.87,15.3l6.36,14.95,1.08,2.57h7.99s.94-4.35.94-4.35l1.81-7.75,3.73,8.4,1.59,3.72h7.55s1.18-7.33,1.18-7.33l2.95-17.99.98-5.77h-9.99s-2.09,11.46-2.09,11.46L26.98,1.8h-5.97s-2.49,11.84-2.49,11.84L13.48,1.83l-11.31.03.56,1.36,5.13,12.09ZM13.09,2.39l1.76,4.12,2.82,6.67.79,1.79.21.14s.15-.09.2-.16l2.64-12.58h5.09s2.09,4.77,2.09,4.77l2.18,5.05,1.02,2.32c.03.07.18.17.25.17.07,0,.16-.11.21-.22l2.21-12.15h8.8s-1.59,9.55-1.59,9.55l-2.66,16.26-.66,4.12h-6.66s-2.99-6.96-2.99-6.96l-2.58-5.72c-.08-.08-.17-.16-.24-.18s-.18.11-.23.18l-.71,2.82-2.21,9.84h-7.1s-2.34-5.52-2.34-5.52L5.34,7.84,3.05,2.41l10.04-.02ZM68.68,32.83h8.83s.06-9.97.06-9.97l5.71,9.97h10.04s-2.41-4.79-2.41-4.79l-3.96-7.16-.66-1.22c2.75-1.62,4.45-4.19,4.71-7.36.34-4.26-1.75-8.46-5.86-9.95-1.07-.38-2.17-.6-3.34-.6h-13.08s-.04.52-.04.52v2.27s0,.58,0,.58v27.4s0,.32,0,.32ZM81.85,2.31c2.97.14,5.6,1.35,7.16,3.9,1.1,1.8,1.56,3.85,1.39,5.96-.18,2.28-1.17,4.37-2.9,5.87-.63.54-1.28.97-2.02,1.42l3.58,6.45,2.93,5.5.37.8h-8.74s-3.14-5.53-3.14-5.53l-3.13-5.41c-.1-.14-.2-.24-.38-.21l-.05,11.17h-7.64s-.02-.51-.02-.51V5.05s0-.43,0-.43l-.02-2.31h12.62ZM56.9,32.5c3.24-.85,5.64-2.93,6.5-6.22.27-1.04.35-2.03.41-3.13l.03-21.42h-9.41s0,18.84,0,18.84c-.06.84-.32,1.55-.9,2.12-.48.43-1.07.65-1.74.65h-8.31s0,9.54,0,9.54h10.18c1.16-.01,2.18-.16,3.26-.39ZM44.07,32.3v-8.32s7.84,0,7.84,0c1.11-.04,2.03-.61,2.6-1.55.32-.57.45-1.16.49-1.85V2.31s8.24,0,8.24,0l-.03,20.72c-.07,1.14-.15,2.17-.44,3.25-.87,3.23-3.51,5.21-6.74,5.8-.93.14-1.78.2-2.78.21h-9.19ZM82.91,11.81c-.09-1.69-1.3-3.14-3-3.15h-2.76s-.01,7.05-.01,7.05l2.45-.04c2.05-.17,3.43-1.81,3.33-3.87ZM77.74,9.23l2.14.02c1.08.01,1.95.78,2.28,1.79.29.97.14,1.98-.42,2.86-.5.63-1.16,1.04-1.95,1.16l-2.07.07v-5.89ZM80.78,13.68c-.32.32-.75.54-1.18.55l-1.06.04.02-4.21,1.21.02c.7.01,1.27.48,1.52,1.12.32.84.15,1.81-.52,2.47Z"/>
      <g>
        <path class="cls-2" d="M113.46,55.92c0,.28.2.56.48.6l-2.22,4.01c-.69,1.25-1.88,2.15-3.2,2.64-.23.09-.48.11-.7.12l2.77-5.96.26-.47c.94-.15,1.79-.48,2.62-.94Z"/>
        <path class="cls-2" d="M18.71,56.75l3.06,6.46c-.34-.04-.62-.11-.87-.23-1.03-.51-2.06-1.19-2.65-2.25l-3.06-5.55-.03-.04.05-.08.06.05c1,.81,2.16,1.41,3.43,1.63Z"/>
        <path class="cls-2" d="M45.56,21.62c-.06.02-.17.07-.24.07h-1.33s-1.26,0-1.26,0l-.4.09,2.09-12.77,1.24-7.14,1.59,3.44.73,1.63-2.42,14.67Z"/>
        <path class="cls-2" d="M28.06,32.19l.6,2.05-.98,5.49-.17,1.03h-.36s-.53-1.87-.53-1.87l-1.66-5.42c-.03-.09-.13-.33-.11-.43l1.04-4.81.51-2.27,1.66,6.22Z"/>
        <path class="cls-2" d="M9.19,22.62l1.92,4.52c-.37-.03-.76.17-.9.52l-4.43-10.42c.1.03.3,0,.37-.06l.54-.41,2.5,5.85Z"/>
        <path class="cls-2" d="M6.69,16.77l-.54.41c-.07.06-.27.09-.37.06l-3-6.98-1.18-5.5,5.09,12Z"/>
        <path class="cls-2" d="M13.19,32.09l1.99,5.15,1.18,3.32.38,1.11c-.16.09-.29.15-.43.19l-3.65-8.42.27-.17c.09-.07.18-.15.24-.23.05-.07.02-.28-.05-.31-.11-.05-.31-.17-.32-.26-.03-.2.22-.35.39-.37Z"/>
        <path class="cls-2" d="M42.08,34.79l.8,1.97-.47,3.08-.08.5-.07.47h-.33s-1.16-5.13-1.16-5.13c.26-.05.51-.27.56-.56l.29-.17c.13-.08.3-.14.46-.16Z"/>
        <polygon class="cls-2" points="78.14 35.44 77.87 37.21 77.45 40.1 77.35 40.79 76.52 40.79 77.44 34.5 78.29 34.48 78.14 35.44"/>
        <path class="cls-2" d="M42.03,34.63l.05.17c-.15.02-.33.09-.46.16l-.29.17c-.05.3-.3.52-.56.56l-.32-1.38.45-.32c.07-.05.09-.19.08-.31-.01-.11.15-.31.26-.32.12-.01.25,0,.46.03v-1.27c0-.05-.2-.06-.23-.03l-.11.12c-.29-.01-.54.04-.78.18v-.15s.47-2.84.47-2.84c.07.26.41.4.65.27v-2.62s-.25-.1-.25-.1l.3-1.69.03,2.28v4.27s0,1.89,0,1.89c0,.35.07.67.24.94Z"/>
        <path class="cls-2" d="M30.12,34.06l1.91,6.74c-.06,0-.11-.09-.14-.18l-2.58-6.7-.59-2.13-.74-2.59.11.03,2.04,4.83Z"/>
        <path class="cls-2" d="M92.93,10.26c.02-.36-.15-.78-.28-1.12l-.17-.54-.67-1.95.93-3.07.32-.94v7.49s0,.12-.03.12h-.1Z"/>
        <polygon class="cls-2" points="108.31 7.78 106.66 5.23 108.34 2.16 108.31 7.78"/>
        <path class="cls-2" d="M12.7,30.87l.31.77.18.46c-.18.02-.42.18-.39.37.01.09.2.21.32.26.07.03.1.24.05.31-.05.08-.15.16-.24.23l-.27.17-1.05-2.48c.36.01.73-.11.93-.41l.15.31Z"/>
        <path class="cls-2" d="M40.46,34.3c-.06-.27-.07-.54-.03-.83l.14-.97.03-.11c.24-.14.48-.19.78-.18l.11-.12s.22-.02.22.03v1.27c-.2-.03-.33-.04-.46-.03-.11.01-.27.21-.26.32.02.12-.01.26-.08.31l-.45.32Z"/>
        <polygon class="cls-2" points="115.79 42.12 116.46 40.7 119.37 34.53 120.42 34.53 115.89 43.77 115.32 43.14 115.79 42.12"/>
        <path class="cls-2" d="M110.28,32.99l.7,1.03-2.34,6.14-.14.54c-.16.11-.53.15-.7.03l-.44-.78-.37-.62-1.91-3.2.7-1.99c.11-.32,0-.77.01-1.08l.02-1.45v-.76s-.01-2.5-.01-2.5l.03-1.68,2.26,3.19,2.19,3.14Z"/>
        <polygon class="cls-2" points="101.5 40.76 101.65 40.29 102.44 37.89 103.59 34.49 104.79 34.52 102.53 40.79 101.5 40.76"/>
        <polygon class="cls-2" points="92.53 40.8 91.51 40.81 93.2 34.46 94.36 34.47 92.53 40.8"/>
        <path class="cls-2" d="M66.26,7.08l.21.88.14.64.32,1.39v17.65s-.06,3.44-.06,3.44c0,.32.01.68-.07.98l-.19.71-.27.8c-.49,1.13-1.03,2.18-1.75,3.24l.14-8.53.03-.93c.35-1.4.59-2.75.6-4.23l.06-19.4.84,3.38Z"/>
        <path class="cls-2" d="M92.67,13.96l.02,1.45-.11,3.99c-.02.65-.18,1.25-.34,1.87l-1.19,3.45-.98-1.76.83-4.23.33-1.76c.76-1.37,1.18-2.83,1.38-4.38l.08,1.38Z"/>
        <path class="cls-2" d="M12.55,30.56c-.2.3-.57.42-.93.41l-.53-1.25.62-.19.22-.44.62,1.47Z"/>
        <path class="cls-2" d="M11.92,29.08l-.22.44-.62.19-.55-1.29c.36.03.67-.28.86-.59l.53,1.24Z"/>
        <path class="cls-2" d="M41.07,29.39l.4-2.45.25.1v2.62c-.24.14-.58,0-.65-.27Z"/>
        <path class="cls-2" d="M11.1,27.14l.29.7c-.19.32-.5.62-.86.59l-.33-.77c.14-.36.53-.56.9-.52Z"/>
        <path class="cls-2" d="M113.94,56.51c-.28-.04-.48-.32-.48-.6l1.29-.85-.81,1.45Z"/>
      </g>
      <g>
        <path class="cls-3" d="M95.18,31.35v-1.97s0-1.71,0-1.71v-15.01s0-.59,0-.59v-7.22s0-2.53,0-2.53h6.74s7.99,12.04,7.99,12.04c.11.17.19.23.4.34l.08-.56.05-11.81,8.76.02-.03,7.36v22.55s-6.69-.01-6.69-.01l-2.65-3.78-5.99-8.4c-.07-.05-.2-.1-.23-.06-.02.03-.06.14-.06.2l-.03,12.03h-8.34s0-.9,0-.9Z"/>
        <path class="cls-3" d="M26.2,19.58c-.08-.08-.17-.16-.24-.18s-.18.11-.23.18l-.71,2.82-2.21,9.84h-7.1s-2.34-5.52-2.34-5.52L5.34,7.84,3.05,2.41l10.04-.02,1.76,4.12,2.82,6.67.79,1.79.21.14s.15-.09.2-.16l2.64-12.58h5.09s2.09,4.77,2.09,4.77l2.18,5.05,1.02,2.32c.03.07.18.17.25.17s.16-.11.21-.22l2.21-12.15h8.8s-1.59,9.55-1.59,9.55l-2.66,16.26-.66,4.12h-6.66s-2.99-6.96-2.99-6.96l-2.58-5.72Z"/>
        <path class="cls-3" d="M69.25,31.72V5.05s0-.43,0-.43l-.02-2.31h12.62c2.97.14,5.6,1.35,7.16,3.9,1.1,1.8,1.56,3.85,1.39,5.96-.18,2.28-1.17,4.37-2.9,5.87-.63.54-1.28.97-2.02,1.42l3.58,6.45,2.93,5.5.37.8h-8.74s-3.14-5.53-3.14-5.53l-3.13-5.41c-.1-.14-.2-.24-.38-.21l-.05,11.17h-7.64s-.02-.51-.02-.51ZM82.91,11.81c-.09-1.69-1.3-3.14-3-3.15h-2.76s-.01,7.05-.01,7.05l2.45-.04c2.05-.17,3.43-1.81,3.33-3.87Z"/>
        <path class="cls-3" d="M53.26,32.29h-9.19s0-8.31,0-8.31h7.85c1.11-.04,2.03-.62,2.6-1.56.32-.57.45-1.16.49-1.85V2.31s8.24,0,8.24,0l-.03,20.72c-.07,1.14-.15,2.17-.44,3.25-.87,3.23-3.51,5.21-6.74,5.8-.93.14-1.78.2-2.78.21Z"/>
      </g>
      <g>
        <polygon class="cls-1" points="41.81 46.04 43.04 46.04 41.62 52.16 40.36 52.18 39.47 48.18 38.58 52.17 37.31 52.17 35.92 46.04 37.14 46.03 37.99 50.13 38.91 46.04 40.06 46.03 40.96 50.16 41.81 46.04"/>
        <polygon class="cls-1" points="97.13 46.04 98.31 46.04 96.97 52.17 95.75 52.18 94.9 48.27 94.04 52.18 92.83 52.17 91.53 46.05 92.7 46.03 93.49 50.08 94.36 46.04 95.48 46.04 96.32 50.08 97.13 46.04"/>
        <path class="cls-1" d="M49.81,48.51v3.65s-1.14,0-1.14,0v-6.13s1.19,0,1.19,0l1.86,3.72.02-3.72h1.14s0,6.14,0,6.14h-1.14s-1.84-3.69-1.84-3.69l-.08.03ZM49.86,48.42h-.08s.08,0,.08,0Z"/>
        <polygon class="cls-1" points="83.23 52.16 82.14 52.17 80.29 48.41 80.27 52.16 79.16 52.18 79.17 46.04 80.33 46.04 82.11 49.69 82.13 46.03 83.23 46.04 83.23 52.16"/>
        <path class="cls-1" d="M47.8,50.62c-.31.98-1.14,1.62-2.1,1.66s-1.89-.55-2.26-1.52c-.4-1.05-.42-2.25-.03-3.29.37-.98,1.2-1.56,2.17-1.57s1.86.6,2.21,1.58.33,2.07,0,3.13ZM46.64,47.71c-.19-.46-.59-.73-1.05-.72-1.26.02-1.56,2.09-1.02,3.46.19.47.57.71,1.02.72,1.26.04,1.6-2.13,1.05-3.46Z"/>
        <path class="cls-1" d="M69.3,50.46c-.33,1.07-1.21,1.71-2.29,1.71h-1.72s0-6.14,0-6.14l1.99.02c.9,0,1.6.59,1.94,1.41.35.95.38,1.99.08,3ZM68.16,47.9c-.16-.45-.56-.78-1.03-.79h-.7s0,3.97,0,3.97h.68c1.12-.02,1.51-1.85,1.04-3.18Z"/>
        <path class="cls-1" d="M59.93,52.15l-1.23.03-.96-2.26h-.55s0,2.25,0,2.25h-1.13s0-6.14,0-6.14h2.1c.64.02,1.2.39,1.47.95.37,1.01.21,2.25-.81,2.69l1.11,2.48ZM58.67,47.93c0-.4-.21-.8-.61-.81l-.87-.02v1.77s.64,0,.64,0c.52,0,.85-.39.84-.94Z"/>
        <path class="cls-1" d="M76.25,50.99c-.42.9-1.28,1.34-2.18,1.28-2.11-.14-2.64-3.02-1.92-4.89.35-.91,1.15-1.47,2.08-1.48s1.78.54,2.13,1.47c.44,1.15.43,2.47-.11,3.61ZM75.27,47.71c-.16-.41-.52-.67-.9-.71-.92-.1-1.38.88-1.38,1.91,0,1.1.28,2.31,1.35,2.25,1.17-.06,1.42-2.17.93-3.45Z"/>
        <path class="cls-1" d="M107.53,52.15l-1.23.03-.94-2.24-.51-.03v2.26s-1.13,0-1.13,0v-6.14s2.08.02,2.08.02c.56,0,1.06.34,1.34.8.47.98.34,2.36-.72,2.84l1.11,2.46ZM106.27,47.88c-.02-.49-.31-.79-.75-.78h-.68s0,1.76,0,1.76c.28.01.6.03.86-.02.43-.1.59-.54.57-.95Z"/>
        <path class="cls-1" d="M102.79,50.91c-.37.85-1.12,1.34-1.96,1.37s-1.67-.45-2.05-1.29c-.52-1.16-.53-2.53-.04-3.7.37-.89,1.19-1.4,2.09-1.38s1.72.59,2.05,1.51c.4,1.12.4,2.37-.09,3.49ZM101.79,47.75c-.18-.46-.57-.76-1.02-.76-1.25,0-1.53,2.08-1.01,3.44.18.47.56.74,1.01.73,1.23-.01,1.5-2.15,1.02-3.42Z"/>
        <path class="cls-1" d="M25.39,50.92h-1.74s-.31,1.25-.31,1.25h-1.24s1.12-4.01,1.12-4.01l.62-2.12h1.39s1.71,6.13,1.71,6.13h-1.23s-.32-1.25-.32-1.25ZM25.14,49.87l-.62-2.37-.63,2.37h1.25Z"/>
        <polygon class="cls-1" points="111.92 52.14 110.64 52.17 109.42 49.69 109.13 50.08 109.13 52.17 108.01 52.17 108.01 46.04 109.13 46.03 109.14 48.43 110.56 46.04 111.84 46.04 110.18 48.76 111.92 52.14"/>
        <path class="cls-1" d="M63.32,50.92h-1.69s-.3,1.24-.3,1.24h-1.19s.21-.88.21-.88l1.43-5.25h1.36s1.68,6.12,1.68,6.12l-1.21.02-.3-1.26ZM63.06,49.87l-.61-2.37-.59,2.37h1.2Z"/>
        <path class="cls-1" d="M30.14,50.76c.14-.21.2-.47.25-.75l1.17.07c-.05.61-.24,1.15-.64,1.57-.55.57-1.34.76-2.14.57-1.8-.42-2.18-3.06-1.56-4.76.47-1.3,1.83-1.89,3.09-1.35.76.32,1.19,1.09,1.22,1.91l-1.15.09c-.04-.49-.27-.89-.65-1.03-.46-.17-.96,0-1.23.4-.67,1-.49,3.53.68,3.68.36.05.72-.05.95-.39Z"/>
        <polygon class="cls-1" points="35.26 49.55 33.37 49.56 33.36 51.07 35.53 51.08 35.53 52.17 32.2 52.17 32.2 46.04 35.5 46.04 35.51 47.11 33.37 47.11 33.37 48.46 35.26 48.47 35.26 49.55"/>
        <polygon class="cls-1" points="87.01 49.55 85.17 49.56 85.16 51.07 87.26 51.08 87.26 52.17 84.03 52.17 84.03 46.04 87.24 46.03 87.24 47.11 85.17 47.11 85.16 48.45 87 48.47 87.01 49.55"/>
        <path class="cls-1" d="M19.86,52.28c-1.12,0-1.89-.84-1.82-1.93l1.1-.12c-.03.49.23.88.66.93.47.06.81-.32.82-.83v-4.29s1.18-.01,1.18-.01v4.39c0,1.1-.86,1.87-1.94,1.86Z"/>
        <polygon class="cls-1" points="90.04 52.17 88.93 52.17 88.94 47.11 87.62 47.11 87.62 46.04 91.3 46.04 91.31 47.1 90.04 47.12 90.04 52.17"/>
        <polygon class="cls-1" points="71.27 52.16 70.12 52.18 70.12 46.04 71.26 46.04 71.27 52.16"/>
      </g>
    </g>
  </g>
</svg>