<?xml version="1.0" encoding="UTF-8"?>
<svg id="Layer_2" data-name="Layer 2" xmlns="http://www.w3.org/2000/svg" viewBox="0 0 975.69 516.48">
  <defs>
    <style>
      .cls-1 {
        fill: #0e0c07;
      }

      .cls-2 {
        fill: #e89401;
      }

      .cls-3 {
        fill: #ed9701;
      }

      .cls-4 {
        fill: #119ab4;
      }

      .cls-5 {
        fill: #12a0ba;
      }

      .cls-6 {
        fill: #fdfdfd;
      }
    </style>
  </defs>
  <g id="Layer_1-2" data-name="Layer 1">
    <g>
      <path class="cls-6" d="M975.21,4.66c-.02-.18-.08-.4-.01-.5l-1.83-1.38c-1.98-1.7-4.24-2.07-6.99-2.07l-76.17-.12-12.78.08c-1.96.01-4.48.93-5.95,2.07-2.42,1.88-3.65,4.83-5.11,7.43l-4.69,8.36-3.01,5.57-6.37,11.91-6.35-9.55-.98-1.48-6.92-10.15-1.69-2.51-6.28-9.06c-1.99-.98-4.42-2.63-6.62-2.64l-67.63-.17c-1.24,0-2.73.1-3.58.35-1.89.55-4.28,1.76-5.41,3.38-1.46,2.08-2.29,4.67-3.04,7.07l-.64,2.04-.8,2.47-1,3.05-1.64,5.01-.53,1.6-.98,2.97-.94,3.06-1.79,5.82-.4,1.31-1.94,6.34-6.36-10.24-1.12-1.45c-5.26-6.34-10.96-12.34-17.55-17.29l-2.03-1.45-.48-.32c-.13-.09-.19-.31-.2-.47l-5.32-2.79-10.56-4.98-3.47-1.17-10.61-2.87-8.62-1.19L657.7,0h-17.09s-6.13,0-6.13,0l-46.92.04h-1.06s-26.74-.02-26.74-.02h-12.2c-3.02-.01-7.03,1.59-8.22,3.6l-.7,1.18-1,1.88-.15,4.46-.05,19.79-.07,13.61-.32,7.36-9.25-37.62c-.46-1.86-.99-3.85-.6-5.55l-1-2.37c-.8-1.89-2.17-4.01-3.8-5l-2.1-1.27-86.24-.03c-2.1,0-4.06.36-5.6.99l-1.5.61-2.67,2.46-.76,2.68c-.33,1.18-.39,2.8-.39,4.59l-.03,154.02c0,3.52-2.3,6.89-5.22,7.91-2.87,1.01-5.9.78-8.63.66l-1.55-.07-27.82.14-6.52.11c-.44,0-1.21-.41-1.5-.63l1.17-5.17.45-3.02,4.62-28.89,1.04-6.07.74-4.46,1.19-7.18.76-4.9,1.15-7.12,1.01-6.62.97-5.96.99-5.64,1.1-6.23.92-5.4,2.76-16.83.6-1.87-.08-4.03-1.02-3.95-.25-.98c-.62-.42-1.33-1.3-1.65-2.06l-1.21-2.86-4.95-11.2-1.38-3.12-.59-1.37-.95-2.22-.66-1.29-1.33-2.74-.99-2.44-.61-1.11-5.29-11.09-1.34-2.95-.77-1.61-.48-.98c-1.63-1.13-3.29-1.91-5.62-1.9l-92.27.04c-1.22,0-2.86.34-3.64.73l-2.4,1.19-1.63,1.44-.63,1.12c-.5.89-.93,2.75-1.17,4.07l-3.93,21.65-.89,5.02-4.28,24.07-9.07-21-.92-2.06-7.14-16.63-.86-2.05-.6-1.38-1.43-3.17c-1.45-3.2-2.67-6.61-4.7-9.47-1.33-1.87-4.62-3.08-6.81-3.08l-53.56-.03-3.04.35-2.55.67-.9.58c-.72.46-1.82,1.52-2.21,2.26-1.29,2.39-1.84,4.97-2.41,7.65l-1.12,5.33-.87,4.32-.23,1.14-3.64,18.09-1.2,5.98-.74,3.65-.72,3.5-1.9,8.9-3.28-7.43-1.03-2.45-.89-2.08-.83-1.9-5.02-11.61-1.45-3.66-.48-1-1.59-3.5-5.03-11.65-.45-1.04-1.07-2.39-.97-2.16-3.01-6.35c-2.3-4.84-7.9-5.14-12.5-4.72l-4.55-.03-27.22.07-66.64.06-3.11.57-1.26.61-2.65,2.38-.49.91-.74,2.05c-.79,2.2-.28,5.04.38,7.42l.74,2.66.99,4.51.76,3.47.99,5.98,1.21,4.5,1.14,4.72,1.08,5.05,1.17,5.48.57,2.57,1.12,4.96,1.19,5.12,2.88,13.46.94,5.2,1.22,3.09.6,1.51,1.45,3.04.78,1.79,3.62,8.34.63,1.58.67,1.76.94,2.14,1.41,3.05.81,1.86,5.27,12.33.78,1.85.95,2.47.86,2.79c.47.38,1.01,1.18,1.32,1.94l.83,2.02,5.2,12.19.81,1.96,1.4,3.11.71,1.82.87,2.12,1.09,2.53,1.32,3.07.66,1.53,1.03,2.48,1.29,3.12.63,1.51,1.08,2.45,2.98,7.08,1.44,3.66,1.02,1.97.62,1.49,1.34,3.09.76,1.77,1.62,3.78.75,2.03.59,1.35,1.39,3.22.61,1.42,1.07,2.46,1.36,3.14.63,1.48,3.38,8.09.74,1.81,1.02,2.57,1.38,3.17,1.2,2.53.41.97,2.92,7.02,1.57,3.66.89,1.99.65,1.48,3,6.99,1.54,3.66.86,2.05.63,1.48,3,7.1,1.46,3.52,1.03,2.01.59,1.52,3.25,7.62,1.22,3.03-.23,1.14c.46-.05,1.07.16,1.19.51l.67,1.85,3.66,8.59.83,1.98.69,1.6.85,1.93,3.45,7.67,1.38,3.07.15.97,1.43,2.97,2.61,6.01,1.09,2.54,1.49,3.48.63,1.44,3.2,7.28.65,1.52,1.15,2.7c-5.03,3.7-9.3,8.04-13.31,12.4l-3,4.31-4.94,8.71-.63,1.74-1.25,2.77-.72,1.92-1.31,5.38-.94,4.56c-.59,8.88-.6,17.85.3,26.7l.89,3.59,1.06,4.43.56,1.67,1.15,3.27,1.24,3.21,4.57,9.56,1.06,2.01,1.13,1.86,1.47,2.68,1.18,2.14.29.51,5.09,9.03,1.37,2.65.68,1.21,1.37,2.73,1.32,2.11,7.29,13.49,1.04,2.08c.21.42.34,1.27.34,1.72.89.19,1.7,1.63,2.15,2.76l6.71,12.19.92.95c4.68,5.81,10.1,10.75,16.52,14.61l6.48,3.11,2.43.81,3.71,1.29,3.52,1.21,6.46,1.08,2.1.13,1.52.13h666.66s8.67-.18,8.67-.18l.08-.25,6.11-.84,7.77-2.49,1.68-.46,7.15-3.64,2.91-1.96,2.09-1.52,10.41-10.26,1.62-2.26,2.34-3.77,1.33-2.34,1.37-2.44.55-1.08,6.79-12.36,1.28-2.24,1.48-2.54.91-1.65,1.05-1.99,1.05-1.96,4.3-7.81,4.14-7.47,6-10.75,2.38-3.65c-.03-.12-.03-.48.02-.59l.95-2.03,1.41-3.01.62-1.55,1.25-3.14.72-1.98,3-13.52.52-11.59-.21-8.55-.2-2.1-.48-4.42-1.56-5.6c-1.1-4.21-2.97-8.24-5.04-12.06l-1.15-2.12c-.27-.49-.33-1.55-.03-2.17l6.65-13.51,1.04-2.1,2.97-5.97.76-1.53,1.26-2.52,1.03-2.1,2.99-6.05,1.05-2.07.84-1.66,1-1.98,1.18-2.35.54-1.55,1.02-1.94,1.52-3.07,5-10.08.51-1.03,1.49-3.02,1.07-2.04.5-.96,3.11-6.58.32-.53,1.81-3.97.47-1.03,1.59-3.01c.16-.3.38-1.2.38-1.69l.03-114.58.18-149.88-.48-4.71ZM830.39,327.47l1.83-5.41,8.61-23.69,12.8,21.13,4.25,8h-.58s-26.92-.02-26.92-.02ZM628.08,325.53l.67-7.14.8-4,2.72-18.76,1.06-4.14,14.16,33.14.02,1.09c0,.17.53.19.71.28.17-.07-.35,1.45-.76,1.45h-9.79s-9.72,0-9.72,0l.13-1.94ZM228.14,323.01l.79-4.6.79-5.55,4.68-25.3,15.09,39.79-21.49.15-.64-1.5.77-2.99ZM346.29,323.97l2.65-15.67,3.07,7.12,1.02,2.41.43,1.21,2.89,8.38-5.24.04-4.99.04.15-3.53ZM502.71,327.47l-4.68-.19c17.88-14.56,29.43-31.72,39.3-52.49l.3,9.39-.05,9.16.16,14.14-.03,2.82-.05,12.75-.1,4.42h-34.84Z"/>
      <path class="cls-1" d="M975.21,4.66c-.02-.18-.08-.4-.01-.5l-1.83-1.38c-1.98-1.7-4.24-2.07-6.99-2.07l-76.17-.12-12.78.08c-1.96.01-4.48.93-5.95,2.07-2.42,1.88-3.65,4.83-5.11,7.43l-4.69,8.36-3.01,5.57-6.37,11.91-6.35-9.55-.98-1.48-6.92-10.15-1.69-2.51-6.28-9.06c-1.99-.98-4.42-2.63-6.62-2.64l-67.63-.17c-1.24,0-2.73.1-3.58.35-1.89.55-4.28,1.76-5.41,3.38-1.46,2.08-2.29,4.67-3.04,7.07l-.64,2.04-.8,2.47-1,3.05-1.64,5.01-.53,1.6-.98,2.97-.94,3.06-1.79,5.82-.4,1.31-1.94,6.34-6.36-10.24-1.12-1.45c-5.26-6.34-10.96-12.34-17.55-17.29l-2.03-1.45-.48-.32c-.13-.09-.19-.31-.2-.47l-5.32-2.79-10.56-4.98-3.47-1.17-10.61-2.87-8.62-1.19L657.7,0h-17.09s-6.13,0-6.13,0l-46.92.04h-1.06s-26.74-.02-26.74-.02h-12.2c-3.02-.01-7.03,1.59-8.22,3.6l-.7,1.18-1,1.88-.15,4.46-.05,19.79-.07,13.61-.32,7.36-9.25-37.62c-.46-1.86-.99-3.85-.6-5.55l-1-2.37c-.8-1.89-2.17-4.01-3.8-5l-2.1-1.27-86.24-.03c-2.1,0-4.06.36-5.6.99l-1.5.61-2.67,2.46-.76,2.68c-.33,1.18-.39,2.8-.39,4.59l-.03,154.02c0,3.52-2.3,6.89-5.22,7.91-2.87,1.01-5.9.78-8.63.66l-1.55-.07-27.82.14-6.52.11c-.44,0-1.21-.41-1.5-.63l1.17-5.17.45-3.02,4.62-28.89,1.04-6.07.74-4.46,1.19-7.18.76-4.9,1.15-7.12,1.01-6.62.97-5.96.99-5.64,1.1-6.23.92-5.4,2.76-16.83.6-1.87-.08-4.03-1.02-3.95-.25-.98c-.62-.42-1.33-1.3-1.65-2.06l-1.21-2.86-4.95-11.2-1.38-3.12-.59-1.37-.95-2.22-.66-1.29-1.33-2.74-.99-2.44-.61-1.11-5.29-11.09-1.34-2.95-.77-1.61-.48-.98c-1.63-1.13-3.29-1.91-5.62-1.9l-92.27.04c-1.22,0-2.86.34-3.64.73l-2.4,1.19-1.63,1.44-.63,1.12c-.5.89-.93,2.75-1.17,4.07l-3.93,21.65-.89,5.02-4.28,24.07-9.07-21-.92-2.06-7.14-16.63-.86-2.05-.6-1.38-1.43-3.17c-1.45-3.2-2.67-6.61-4.7-9.47-1.33-1.87-4.62-3.08-6.81-3.08l-53.56-.03-3.04.35-2.55.67-.9.58c-.72.46-1.82,1.52-2.21,2.26-1.29,2.39-1.84,4.97-2.41,7.65l-1.12,5.33-.87,4.32-.23,1.14-3.64,18.09-1.2,5.98-.74,3.65-.72,3.5-1.9,8.9-3.28-7.43-1.03-2.45-.89-2.08-.83-1.9-5.02-11.61-1.45-3.66-.48-1-1.59-3.5-5.03-11.65-.45-1.04-1.07-2.39-.97-2.16-3.01-6.35c-2.3-4.84-7.9-5.14-12.5-4.72l-4.55-.03-27.22.07-66.64.06-3.11.57-1.26.61-2.65,2.38-.49.91-.74,2.05c-.79,2.2-.28,5.04.38,7.42l.74,2.66.99,4.51.76,3.47.99,5.98,1.21,4.5,1.14,4.72,1.08,5.05,1.17,5.48.57,2.57,1.12,4.96,1.19,5.12,2.88,13.46.94,5.2,1.22,3.09.6,1.51,1.45,3.04.78,1.79,3.62,8.34.63,1.58.67,1.76.94,2.14,1.41,3.05.81,1.86,5.27,12.33.78,1.85.95,2.47.86,2.79c.47.38,1.01,1.18,1.32,1.94l.83,2.02,5.2,12.19.81,1.96,1.4,3.11.71,1.82.87,2.12,1.09,2.53,1.32,3.07.66,1.53,1.03,2.48,1.29,3.12.63,1.51,1.08,2.45,2.98,7.08,1.44,3.66,1.02,1.97.62,1.49,1.34,3.09.76,1.77,1.62,3.78.75,2.03.59,1.35,1.39,3.22.61,1.42,1.07,2.46,1.36,3.14.63,1.48,3.38,8.09.74,1.81,1.02,2.57,1.38,3.17,1.2,2.53.41.97,2.92,7.02,1.57,3.66.89,1.99.65,1.48,3,6.99,1.54,3.66.86,2.05.63,1.48,3,7.1,1.46,3.52,1.03,2.01.59,1.52,3.25,7.62,1.22,3.03-.23,1.14c.46-.05,1.07.16,1.19.51l.67,1.85,3.66,8.59.83,1.98.69,1.6.85,1.93,3.45,7.67,1.38,3.07.15.97,1.43,2.97,2.61,6.01,1.09,2.54,1.49,3.48.63,1.44,3.2,7.28.65,1.52,1.15,2.7c-5.03,3.7-9.3,8.04-13.31,12.4l-3,4.31-4.94,8.71-.63,1.74-1.25,2.77-.72,1.92-1.31,5.38-.94,4.56c-.59,8.88-.6,17.85.3,26.7l.89,3.59,1.06,4.43.56,1.67,1.15,3.27,1.24,3.21,4.57,9.56,1.06,2.01,1.13,1.86,1.47,2.68,1.18,2.14.29.51,5.09,9.03,1.37,2.65.68,1.21,1.37,2.73,1.32,2.11,7.29,13.49,1.04,2.08c.21.42.34,1.27.34,1.72.89.19,1.7,1.63,2.15,2.76l6.71,12.19.92.95c4.68,5.81,10.1,10.75,16.52,14.61l6.48,3.11,2.43.81,3.71,1.29,3.52,1.21,6.46,1.08,2.1.13,1.52.13h666.66s8.67-.18,8.67-.18l.08-.25,6.11-.84,7.77-2.49,1.68-.46,7.15-3.64,2.91-1.96,2.09-1.52,10.41-10.26,1.62-2.26,2.34-3.77,1.33-2.34,1.37-2.44.55-1.08,6.79-12.36,1.28-2.24,1.48-2.54.91-1.65,1.05-1.99,1.05-1.96,4.3-7.81,4.14-7.47,6-10.75,2.38-3.65c-.03-.12-.03-.48.02-.59l.95-2.03,1.41-3.01.62-1.55,1.25-3.14.72-1.98,3-13.52.52-11.59-.21-8.55-.2-2.1-.48-4.42-1.56-5.6c-1.1-4.21-2.97-8.24-5.04-12.06l-1.15-2.12c-.27-.49-.33-1.55-.03-2.17l6.65-13.51,1.04-2.1,2.97-5.97.76-1.53,1.26-2.52,1.03-2.1,2.99-6.05,1.05-2.07.84-1.66,1-1.98,1.18-2.35.54-1.55,1.02-1.94,1.52-3.07,5-10.08.51-1.03,1.49-3.02,1.07-2.04.5-.96,3.11-6.58.32-.53,1.81-3.97.47-1.03,1.59-3.01c.16-.3.38-1.2.38-1.69l.03-114.58.18-149.88-.48-4.71ZM869.79,17.35l-.18,45.09-13.29-20.42,13.48-24.67ZM752.91,10.34c0-1.48.85-2.77,2.4-2.77l66.61.02c2.12,0,3.46,1.1,4.56,2.72l30.77,45.41,18.01,26.37.55-72.53c.01-1.51,2.56-1.95,3.8-1.94l88.55.13.37,5.47-.09,32.98-.08,206.04.38,3.06-.37,1.98v12.98c-.62.33-1.47.69-1.9.8l-68.18-.14-1.98-.43c-.46-1.35-1.44-2.68-2.5-3.11l-.46-1.62-11.42-16.49-38.68-54.31-.49,38.06-.03,21.74v8.55s-.32,7.6-.32,7.6l-76.33-.19-1.04-1.4-.9-2.63c-.3-.89-.61-2.34-.39-3.26l72.27.29.28-90.34,64.47,90.37,60.78.03.04-170.67.2-78.75-79.71-.2-.57,90.47-60.64-90.5-61.29-.03v21.94s.04,25.19.04,25.19v4.52s-.01,28.92-.01,28.92v11.58s-.15,121.23-.15,121.23v8.02s-.06,17.91-.06,17.91c-.39.56-1.29.08-.83-.6l-5.68-12.55.08-129.99-.04-99.93ZM830.39,327.47l1.83-5.41,8.61-23.69,12.8,21.13,4.25,8h-.58s-26.92-.02-26.92-.02ZM627.38,284.53l-2.19,14.18-3.36,23.2-.8,5.55h-6.7s7.38-50.45,7.38-50.45l6.87-.18-1.2,7.7ZM628.08,325.53l.67-7.14.8-4,2.72-18.76,1.06-4.14,14.16,33.14.02,1.09c0,.17.53.19.71.28.17-.07-.35,1.45-.76,1.45h-9.79s-9.72,0-9.72,0l.13-1.94ZM734.67,327.65l13.56-50.99,9.32.11-14.69,50.81-8.19.06ZM764.17,235.86v-13.76s.04-120.5.04-120.5v-4.78s-.02-57.96-.02-57.96l.03-20.29,54.12.11,64.12,96.57c.91,1.37,1.52,1.84,3.24,2.71l.63-4.48.39-94.8,70.33.19-.2,59.11-.06,181.07-53.65-.08-21.3-30.33-48.1-67.42c-.53-.39-1.6-.82-1.84-.45-.18.28-.48,1.16-.48,1.59l-.22,96.58-66.95-.12-.08-7.12v-15.84ZM823.19,327.49l-8.3-.29,1.2-3.73,6.37-19.26,9.2-27.27,9.66.19-18.12,50.37ZM872.24,322.42l-1.11,4.35c-1.3.89-4.25,1.24-5.61.26l-3.57-6.26-2.97-4.99-15.32-25.66,5.64-16.01c.9-2.55.08-6.16.11-8.71l.16-11.67.02-6.13-.12-20.09.27-13.49,18.14,25.64,17.54,25.22,5.62,8.23-18.81,49.32ZM743.34,101.01l.65,11.09.16,11.61-.91,32c-.15,5.22-1.47,10.03-2.76,15l-9.57,27.71-7.89-14.16,6.64-33.95,2.61-14.13c6.08-11.03,9.46-22.75,11.08-35.17ZM744.51,28.86l2.59-7.56-.1,60.13c0,.36.05.95-.12.98h-.81c.17-2.92-1.22-6.25-2.27-8.99l-1.35-4.3-5.41-15.64,7.47-24.62ZM544.39,61.33l.1-51.08c0-1.5.99-3.12,2.73-3.12l110.97.08c9.33,0,18.04,1.82,26.63,4.79,30.03,10.4,48.04,37.27,52.24,68.04l.63,7.21.04,2.01c.47,19.51-5.22,38.46-17.25,53.88-5.25,6.73-11.27,11.84-18.3,17.04l12.78,23.3,30.1,55.79,11,23.82,1.51,3.48.68,2.51c.12.46-.85,1.5-1.53,1.5h-92.26s-20.6-36.88-20.6-36.88l-14.53-25.21-.34,37.71s-.06.11,0,.19l.05,6.99-.13,5.18.24,3.93-.22,7.94-3.13.39h-6.16s-9.61-.02-9.61-.02l-34.29-.04h-1.52s-10.66-.02-10.66-.02l-12.42.04-1.37.11-5.42-.52.03-209.02ZM199.55,265.32l8.31-38.61,4.06-18.19,13.32,49.94,4.86,16.49-7.83,44.07-1.39,8.26h-2.86s-4.25-15-4.25-15l-13.32-43.51c-.23-.75-1.07-2.66-.9-3.44ZM228.14,323.01l.79-4.6.79-5.55,4.68-25.3,15.09,39.79-21.49.15-.64-1.5.77-2.99ZM235.23,272.34l-4.73-17.08-5.94-20.77.87.24,16.36,38.76,15.31,54.12c-.46,0-.87-.74-1.15-1.48l-20.71-53.77ZM339.86,323.9l-.57,3.77-2.61-.08-9.31-41.09-2.55-11.11c-.5-2.16-.55-4.32-.21-6.69l1.11-7.81.21-.91.08-1.19,3.69-22.84,3.22-19.69,2.38-13.6.2,18.27.08,34.3-.07,15.19c-.01,2.83.54,5.39,1.95,7.58l.37,1.35,6.41,15.82-3.79,24.72-.61,4.01ZM346.29,323.97l2.65-15.67,3.07,7.12,1.02,2.41.43,1.21,2.89,8.38-5.24.04-4.99.04.15-3.53ZM502.71,327.47l-4.68-.19c17.88-14.56,29.43-31.72,39.3-52.49l.3,9.39-.05,9.16.16,14.14-.03,2.82-.05,12.75-.1,4.42h-34.84ZM519.95,219.39c2.84-11.28,4.76-22.1,4.8-33.94l.45-155.75,6.75,27.15,1.71,7.03,1.14,5.11,2.55,11.13-.1,141.68-.35,27.63c-.03,2.57.1,5.48-.53,7.83l-1.52,5.67-2.18,6.4c-3.9,9.04-8.25,17.51-14.05,25.99l1.13-68.46.21-7.48ZM414.72,180.86c9.38,0,15.39-7.77,15.39-16.65l.08-154.2c0-1.97,1.59-2.8,3.33-2.8l83.23-.1c.91,0,2.9,1.02,2.89,2.11l-.43,179.22c-.03,13.12-2.65,25.68-7.81,37.22l-.74,1.66-.62,1.18c-7.55,14.38-19.37,25.69-34.03,32.87-6.19,3.03-12.26,5.33-19.04,6.77-7.19,1.53-14.26,2.82-21.79,2.83l-92.92.13-.05-88.74c0-.73,1.7-1.63,2.36-1.54l70.14.04ZM366.55,15.01l12.78,27.65,5.85,13.11-19.42,117.78c-.44.17-1.39.58-1.89.58h-10.67s-10.15-.01-10.15-.01l-3.23.72,16.76-102.5,9.96-57.33ZM7.86,11.42c-.24-.55-.12-1.95.28-2.38.33-.35,1.37-.74,2.08-.74l99.86-.22c1.2,0,2.85.5,3.3,1.54l33.22,77.67,8.09-37.96,7.72-37.38c.31-1.51.9-4.08,3.02-4.08l54.27-.05c.84,0,2.01,1.43,2.39,2.26l31.72,72.98,6.23-33.12,1.76-10.1,5.43-29.14c.32-1.7,1.14-3.32,3.23-3.32l91.28-.06-9,54-8.24,49.39-8.76,53.82-7.84,47.73-8.2,50.96-.58,5.12-.93,2.53-70.06-.05-1.48-.93-35.26-82.2c-3.17,10.11-4.55,19.17-6.74,28.74l-11.85,53.68c-.64.44-1.67.74-2.25.73l-8.16-.1-5.53-.05-23.74.06-2.53.02-2.01-.02-1.13-.03-19.54-.05-9.49-.02-1.95-4.34-1.1-2.47-.46-1.04-1.5-3.56-.55-1.07-.9-2.48-5.2-12.57-1.54-3.12-.54-1.4-1.01-2.62-.86-1.96-1.57-3.53-.46-1.05-.64-1.57-3.49-8.51-1.03-2.5-1.37-3.1-.85-2-5.2-12.16-1.05-2.48-4.65-11.05-1.34-3.17-31.26-73.53L17.23,32.51,7.86,11.42ZM101.71,268.51l-8.47-19.92-4.27-10.01-4.38-10.32-2.67-6.15-35.58-83.66-24.09-56.02-9.44-44.16,40.89,96.34,20.04,46.97,15.39,36.31,2.37,5.6,4.22,9.99,5,11.84,1.2,2.47,2.52,6.15,1.47,3.67,16.02,41.37,9.46,26.63,3.09,8.93c-1.28.7-2.34,1.2-3.48,1.54l-29.28-67.59ZM167.78,505.65c-8.24-4.13-16.55-9.52-21.24-18.04l-24.54-44.55.62-.57c8.03,6.49,17.31,11.28,27.56,13.11l24.57,51.86c-2.77-.34-5.01-.85-6.96-1.83ZM914.75,453.73l-17.84,32.18c-5.57,10.04-15.1,17.23-25.67,21.21-1.83.69-3.86.87-5.65.96l22.21-47.83,2.08-3.79c7.58-1.23,14.36-3.87,21-7.54l10.34-6.86-6.47,11.66ZM937.23,393.15c-.11,17.05-6,32.97-19.16,44.16-10.39,8.83-23.15,14.4-37,14.41l-26.43.02H159.84s-6.23,0-6.23,0c.04-.28-.04-.85-.31-.89l-1.19-.18c-15.19-3.27-28.94-11.85-37.31-25.17-6.79-9.75-8.78-20.67-8.77-32.31.01-12.7,2.83-24.36,10.5-34.63,7.28-9.75,17.19-16.68,28.55-20.68l10.6-2.55,5.67-.51h717.49s8.31.47,8.31.47c10.39,1.08,20.41,5.29,28.55,11.57,14.41,11.12,21.63,28.07,21.52,46.3ZM930.46,351.41l-4.61-5.04,3.81-8.2,5.35-11.37,23.39-49.54h8.37s-36.31,74.15-36.31,74.15ZM880.86,343.33l-393.33-.1-325.18.18c-20.16.01-38.64,13.65-45.44,32.16-5.13,13.95-4.1,29.14,3.2,42.22,8.14,14.57,24.54,26,42.19,26h718.11c18.95.01,36.21-12.71,43.85-28.99,3.81-8.13,4.56-14.83,4.54-23.23-.05-25.96-21.35-48.21-47.94-48.21ZM924.01,394.53c-1.03,25.24-20.92,44.46-46.09,44.46l-115.46.02h-4.29s-235.62,0-235.62,0l-16.36.09-24.21-.03-3.22-.07H162.33c-4.49,0-7.92-.9-11.86-2.21-19.67-6.54-32.54-24.84-31.66-45.71.58-13.85,7.33-26.34,18.55-34.32,8.33-5.92,17.7-8.46,27.99-8.45l716.95.2c24.6,0,42.65,22.8,41.7,46.02ZM63.19,122.87l51.06,120.03,8.69,20.65,64.14.05,7.56-34.97,14.56-62.23,29.93,67.41,12.79,29.85,60.62.05,9.44-58.88,23.69-144.39,7.83-46.3-80.22.06-16.78,91.92L216.63,14.44l-47.91.09-20.03,94.94L108.23,14.65l-90.78.25,4.54,10.9,41.2,97.08ZM105.09,19.15l14.09,33.09,22.63,53.58,6.31,14.37,1.71,1.14c.37.25,1.2-.7,1.57-1.27l21.21-100.99,40.84-.09,16.79,38.38,17.47,40.57,8.21,18.62c.23.53,1.44,1.4,2.02,1.36.57-.03,1.25-.92,1.67-1.79l17.75-97.53,70.62.05-12.8,76.63-21.37,130.57-5.28,33.1-53.46-.12-24.02-55.75-20.7-45.91c-.62-.62-1.4-1.32-1.95-1.41s-1.41.88-1.84,1.48l-5.7,22.6-17.71,78.96-57.01-.03-18.78-44.26L42.84,62.91,24.45,19.34l80.64-.2ZM551.37,263.54l70.89.11.52-80.16,45.8,80.04,80.61-.04-19.33-38.42-31.81-57.51-5.28-9.8c22.07-13.04,35.73-33.61,37.79-59.07,2.76-34.2-14.04-67.94-47.05-79.87-8.56-3.09-17.42-4.85-26.81-4.85l-105.05-.08-.33,4.22v18.2s0,4.66,0,4.66v220.01s.05,2.56.05,2.56ZM657.17,18.57c23.84,1.14,44.94,10.85,57.47,31.3,8.86,14.47,12.52,30.94,11.17,47.88-1.46,18.31-9.39,35.11-23.26,47.16-5.03,4.37-10.27,7.83-16.24,11.39l28.71,51.78,23.53,44.13,2.99,6.46-70.16.04-25.2-44.42-25.17-43.45c-.84-1.13-1.63-1.94-3.06-1.7l-.41,89.68-61.35-.04-.19-4.08V40.51s0-3.44,0-3.44l-.15-18.51,101.31.02ZM456.8,260.93c26.02-6.85,45.28-23.5,52.2-49.91,2.18-8.34,2.8-16.27,3.31-25.1l.23-171.98h-75.57s-.05,151.28-.05,151.28c-.48,6.74-2.57,12.46-7.24,17.05-3.84,3.45-8.58,5.18-13.95,5.23l-66.74.07-.04,76.54,81.71-.08c9.33,0,17.48-1.17,26.15-3.09ZM353.79,259.29l-.05-66.76,63-.02c8.94-.3,16.31-4.93,20.88-12.47,2.56-4.55,3.62-9.31,3.97-14.83l.03-146.66,66.15-.02-.25,166.37c-.54,9.17-1.22,17.46-3.54,26.11-6.96,25.91-28.21,41.84-54.09,46.55-7.45,1.15-14.32,1.57-22.29,1.71l-73.81.02ZM665.63,94.81c-.68-13.57-10.44-25.18-24.12-25.25l-22.13-.11-.1,56.73,19.66-.34c16.43-1.37,27.53-14.56,26.7-31.03ZM624.13,74.1l17.22.16c8.71.08,15.62,6.25,18.33,14.36,2.35,7.79,1.11,15.88-3.39,22.94-4,5.09-9.31,8.37-15.66,9.3l-16.58.56.08-47.32ZM648.55,109.86c-2.58,2.56-6.04,4.33-9.44,4.45l-8.48.31.15-33.77,9.74.17c5.6.1,10.23,3.81,12.2,9.03,2.56,6.76,1.17,14.52-4.17,19.81Z"/>
      <g>
        <path class="cls-5" d="M910.88,448.92c.02,2.26,1.61,4.5,3.87,4.81l-17.84,32.18c-5.57,10.04-15.1,17.23-25.67,21.21-1.83.69-3.86.87-5.65.96l22.21-47.83,2.08-3.79c7.58-1.23,14.36-3.87,21-7.54Z"/>
        <path class="cls-5" d="M150.18,455.62l24.57,51.86c-2.77-.34-5.02-.85-6.96-1.83-8.24-4.13-16.55-9.52-21.24-18.04l-24.54-44.55-.2-.33.38-.61.44.37c8.03,6.49,17.31,11.28,27.56,13.11Z"/>
        <path class="cls-5" d="M365.76,173.55c-.44.17-1.39.58-1.89.58h-10.67s-10.15-.01-10.15-.01l-3.23.72,16.76-102.5,9.96-57.33,12.78,27.65,5.85,13.11-19.42,117.78Z"/>
        <path class="cls-5" d="M225.25,258.46l4.86,16.49-7.83,44.07-1.39,8.26h-2.86s-4.25-15-4.25-15l-13.32-43.51c-.23-.75-1.07-2.66-.9-3.44l8.31-38.61,4.06-18.19,13.32,49.94Z"/>
        <path class="cls-5" d="M73.76,181.59l15.39,36.31c-2.98-.26-6.08,1.34-7.22,4.21l-35.58-83.66c.84.21,2.44-.02,3.01-.52l4.35-3.33,20.04,46.97Z"/>
        <path class="cls-4" d="M53.71,134.61l-4.35,3.33c-.57.5-2.17.73-3.01.52l-24.09-56.02-9.44-44.16,40.89,96.34Z"/>
        <path class="cls-4" d="M105.92,257.62l16.02,41.37,9.46,26.63,3.09,8.93c-1.28.7-2.34,1.2-3.48,1.54l-29.28-67.59,2.14-1.4c.72-.6,1.45-1.24,1.89-1.87.37-.53.18-2.23-.42-2.49-.92-.39-2.46-1.37-2.56-2.11-.21-1.57,1.75-2.83,3.16-3.01Z"/>
        <path class="cls-4" d="M337.84,279.35l6.41,15.82-3.79,24.72-.61,4.01-.57,3.77-2.61-.08-9.31-41.09c2.11-.36,4.12-2.13,4.5-4.51l2.31-1.35c1.04-.6,2.44-1.13,3.67-1.29Z"/>
        <polygon class="cls-4" points="627.38 284.53 625.19 298.71 621.84 321.91 621.03 327.46 614.33 327.46 621.71 277.01 628.58 276.83 627.38 284.53"/>
        <path class="cls-5" d="M337.47,277.99l.37,1.35c-1.23.16-2.63.69-3.67,1.29l-2.31,1.35c-.38,2.38-2.39,4.15-4.5,4.51l-2.55-11.11,3.64-2.6c.53-.43.75-1.55.62-2.5-.12-.88,1.22-2.45,2.09-2.55,1-.11,2.03,0,3.72.24l-.05-10.2c0-.43-1.55-.52-1.79-.24l-.87,1c-2.35-.12-4.3.34-6.23,1.43l.08-1.19,3.69-22.84c.59,2.1,3.32,3.25,5.21,2.13l.03-21.01-2.03-.81,2.38-13.6.2,18.27.08,34.3-.07,15.19c-.01,2.83.54,5.39,1.95,7.58Z"/>
        <path class="cls-4" d="M241.79,273.47l15.31,54.12c-.46,0-.87-.74-1.15-1.48l-20.71-53.77-4.73-17.08-5.94-20.77.87.24,16.36,38.76Z"/>
        <path class="cls-4" d="M746.07,82.39c.17-2.91-1.22-6.25-2.27-8.98l-1.35-4.3-5.41-15.64,7.47-24.62,2.59-7.56-.1,60.13c0,.36.05.95-.12.98h-.81Z"/>
        <polygon class="cls-4" points="869.6 62.44 856.31 42.02 869.79 17.35 869.6 62.44"/>
        <path class="cls-5" d="M101.94,247.8l2.52,6.15,1.47,3.67c-1.41.18-3.37,1.44-3.16,3.01.1.74,1.64,1.72,2.56,2.11.59.26.79,1.96.42,2.49-.44.63-1.17,1.27-1.89,1.87l-2.14,1.4-8.47-19.92c2.92.1,5.89-.87,7.49-3.26l1.2,2.47Z"/>
        <path class="cls-4" d="M324.81,275.38c-.5-2.16-.55-4.32-.21-6.69l1.11-7.81.21-.91c1.93-1.09,3.89-1.55,6.23-1.43l.87-1c.25-.28,1.79-.19,1.79.24l.05,10.2c-1.69-.23-2.72-.35-3.72-.24-.87.1-2.21,1.67-2.09,2.55.12.95-.09,2.06-.62,2.5l-3.64,2.6Z"/>
        <polygon class="cls-4" points="929.65 338.16 935.01 326.79 958.4 277.25 966.77 277.25 930.46 351.41 925.85 346.37 929.65 338.16"/>
        <path class="cls-5" d="M885.42,264.87l5.62,8.23-18.81,49.32-1.11,4.35c-1.3.89-4.25,1.24-5.61.26l-3.57-6.26-2.97-4.99-15.32-25.66,5.64-16.01c.9-2.55.08-6.16.11-8.71l.16-11.67.02-6.13-.12-20.09.27-13.49,18.14,25.64,17.54,25.22Z"/>
        <polygon class="cls-4" points="814.89 327.2 816.09 323.47 822.45 304.21 831.65 276.93 841.31 277.12 823.19 327.49 814.89 327.2"/>
        <polygon class="cls-4" points="742.86 327.59 734.67 327.65 748.23 276.67 757.55 276.78 742.86 327.59"/>
        <path class="cls-4" d="M531.95,56.86l1.71,7.03,1.14,5.11,2.55,11.13-.1,141.68-.35,27.63c-.03,2.57.1,5.48-.53,7.83l-1.52,5.67-2.18,6.4c-3.9,9.04-8.25,17.51-14.05,25.99l1.13-68.46.21-7.48c2.84-11.28,4.76-22.1,4.8-33.94l.45-155.75,6.75,27.15Z"/>
        <path class="cls-4" d="M743.99,112.09l.16,11.61-.91,32c-.15,5.22-1.47,10.03-2.76,15l-9.57,27.71-7.89-14.16,6.64-33.95,2.61-14.13c6.08-11.03,9.46-22.75,11.08-35.17l.65,11.09Z"/>
        <path class="cls-4" d="M100.74,245.33c-1.6,2.38-4.57,3.36-7.49,3.26l-4.27-10.01,4.96-1.54,1.8-3.55,5,11.84Z"/>
        <path class="cls-5" d="M95.74,233.49l-1.8,3.55-4.96,1.54-4.38-10.32c2.93.23,5.4-2.22,6.92-4.76l4.22,9.99Z"/>
        <path class="cls-4" d="M329.7,235.94l3.22-19.69,2.03.81-.03,21.01c-1.9,1.12-4.63-.02-5.21-2.13Z"/>
        <path class="cls-4" d="M89.15,217.9l2.37,5.6c-1.52,2.55-3.99,4.99-6.92,4.76l-2.67-6.15c1.14-2.87,4.24-4.48,7.22-4.21Z"/>
        <path class="cls-4" d="M914.75,453.73c-2.26-.3-3.85-2.54-3.87-4.81l10.34-6.86-6.47,11.66Z"/>
      </g>
      <g>
        <path class="cls-3" d="M764.17,251.7v-15.84s0-13.76,0-13.76l.03-120.5v-4.78s-.02-57.96-.02-57.96l.03-20.29,54.12.11,64.12,96.57c.91,1.37,1.52,1.84,3.24,2.71l.63-4.48.39-94.8,70.33.19-.2,59.11-.06,181.07-53.65-.08-21.3-30.33-48.1-67.42c-.53-.39-1.6-.82-1.84-.45-.18.28-.48,1.16-.48,1.59l-.22,96.58-66.95-.12-.08-7.12Z"/>
        <path class="cls-3" d="M210.34,157.16c-.62-.62-1.4-1.32-1.95-1.41s-1.41.88-1.84,1.48l-5.7,22.6-17.71,78.96-57.01-.03-18.78-44.26L42.84,62.91,24.45,19.34l80.64-.2,14.09,33.09,22.63,53.58,6.31,14.37,1.71,1.14c.37.25,1.2-.7,1.57-1.27l21.21-100.99,40.84-.09,16.79,38.38,17.47,40.57,8.21,18.62c.23.53,1.44,1.4,2.02,1.36s1.25-.92,1.67-1.79l17.75-97.53,70.62.05-12.8,76.63-21.37,130.57-5.28,33.1-53.46-.12-24.02-55.75-20.7-45.91Z"/>
        <path class="cls-3" d="M556.01,254.7V40.51s0-3.44,0-3.44l-.15-18.51,101.31.02c23.84,1.14,44.94,10.85,57.47,31.3,8.86,14.47,12.52,30.94,11.17,47.88-1.46,18.31-9.39,35.11-23.26,47.16-5.03,4.37-10.27,7.83-16.24,11.39l28.71,51.78,23.53,44.13,2.99,6.46-70.15.04-25.2-44.42-25.16-43.45c-.84-1.13-1.63-1.94-3.06-1.7l-.41,89.68-61.35-.04-.19-4.08ZM665.63,94.81c-.68-13.57-10.44-25.18-24.12-25.25l-22.13-.11-.1,56.73,19.66-.34c16.43-1.37,27.53-14.56,26.7-31.03Z"/>
        <path class="cls-3" d="M427.6,259.26l-73.81.02-.05-66.76,63-.02c8.94-.3,16.31-4.93,20.88-12.47,2.56-4.55,3.62-9.31,3.97-14.83l.03-146.66,66.15-.02-.25,166.37c-.54,9.17-1.22,17.46-3.54,26.11-6.96,25.91-28.21,41.84-54.09,46.55-7.45,1.15-14.32,1.57-22.29,1.71Z"/>
        <path class="cls-2" d="M506.19,439.11l-24.21-.03-3.22-.07H162.33c-4.49,0-7.92-.9-11.86-2.21-19.67-6.54-32.54-24.84-31.66-45.71.58-13.85,7.33-26.34,18.55-34.32,8.33-5.92,17.7-8.46,27.99-8.45l716.95.2c24.6,0,42.65,22.8,41.7,46.02-1.03,25.24-20.92,44.46-46.09,44.46l-115.46.02h-4.29s-235.62,0-235.62,0l-16.36.09Z"/>
      </g>
      <g>
        <polygon class="cls-1" points="335.69 369.66 345.55 369.6 334.12 418.79 324.05 418.9 316.86 386.82 309.75 418.87 299.58 418.87 288.37 369.66 298.19 369.58 305.02 402.49 312.35 369.59 321.64 369.59 328.87 402.7 335.69 369.66"/>
        <polygon class="cls-1" points="779.82 369.64 789.31 369.61 778.49 418.85 768.77 418.91 761.9 387.52 755.03 418.9 745.31 418.87 734.81 369.68 744.27 369.58 750.59 402.06 757.53 369.64 766.59 369.61 773.3 402.08 779.82 369.64"/>
        <path class="cls-1" d="M399.86,389.5v29.32s-9.13.06-9.13.06v-49.23s9.52-.06,9.52-.06l14.94,29.85.15-29.85,9.12.02v49.25s-9.19,0-9.19,0l-14.79-29.63-.63.28ZM400.27,388.74l-.61-.05.61.05Z"/>
        <polygon class="cls-1" points="668.25 418.77 659.45 418.89 644.6 388.67 644.42 418.78 635.55 418.9 635.63 369.63 644.92 369.6 659.21 398.92 659.37 369.58 668.24 369.64 668.25 418.77"/>
        <path class="cls-1" d="M383.78,406.39c-2.49,7.9-9.12,13.04-16.88,13.34-7.97.31-15.16-4.4-18.11-12.19-3.19-8.42-3.37-18.03-.23-26.39,2.94-7.84,9.61-12.54,17.46-12.59s14.94,4.81,17.74,12.72,2.68,16.63.01,25.11ZM374.48,383.01c-1.54-3.73-4.77-5.83-8.47-5.77-10.09.15-12.53,16.79-8.15,27.76,1.49,3.74,4.58,5.69,8.19,5.8,10.09.29,12.83-17.11,8.43-27.78Z"/>
        <path class="cls-1" d="M556.4,405.13c-2.61,8.58-9.68,13.71-18.35,13.72l-13.8.02.02-49.28,15.96.15c7.24.07,12.84,4.71,15.55,11.32,2.85,7.66,3.07,16.01.61,24.07ZM547.23,384.55c-1.27-3.61-4.53-6.27-8.24-6.32l-5.6-.07v31.93s5.49-.05,5.49-.05c9.02-.09,12.13-14.77,8.36-25.49Z"/>
        <path class="cls-1" d="M481.18,418.69l-9.87.23-7.7-18.11-4.45-.12-.02,18.18h-9.09s.02-49.29.02-49.29l16.87.12c5.14.04,9.6,2.98,11.81,7.48,3,8.09,1.66,18.04-6.49,21.63l8.94,19.88ZM471.04,384.77c-.03-3.18-1.67-6.43-4.92-6.51l-6.97-.18-.02,14.2,5.15.04c4.17.03,6.81-3.12,6.76-7.54Z"/>
        <path class="cls-1" d="M612.2,409.4c-3.4,7.22-10.25,10.76-17.53,10.27-16.94-1.13-21.23-24.21-15.41-39.26,2.82-7.29,9.25-11.77,16.66-11.85,7.61-.08,14.27,4.3,17.13,11.83,3.5,9.23,3.47,19.83-.85,29.01ZM604.35,383.02c-1.27-3.32-4.17-5.42-7.21-5.74-7.42-.78-11.04,7.03-11.09,15.37-.05,8.87,2.23,18.56,10.81,18.1,9.4-.5,11.44-17.43,7.49-27.73Z"/>
        <path class="cls-1" d="M863.29,418.65l-9.9.26-7.58-17.95-4.07-.21-.07,18.11-8.99.03.03-49.3,16.71.14c4.52.04,8.53,2.7,10.73,6.41,3.79,7.88,2.74,18.98-5.74,22.77l8.88,19.73ZM853.2,384.42c-.14-3.9-2.48-6.3-6.04-6.29l-5.44.03v14.09c2.21.12,4.8.27,6.87-.19,3.45-.78,4.74-4.32,4.62-7.64Z"/>
        <path class="cls-1" d="M825.22,408.74c-2.96,6.85-8.96,10.77-15.77,10.98s-13.39-3.63-16.42-10.35c-4.19-9.3-4.27-20.34-.36-29.74,2.96-7.11,9.58-11.22,16.79-11.05s13.8,4.75,16.45,12.15c3.2,8.95,3.19,19.03-.69,28.01ZM817.23,383.34c-1.41-3.69-4.56-6.07-8.17-6.07-10.07,0-12.3,16.66-8.08,27.61,1.44,3.74,4.51,5.94,8.08,5.9,9.86-.1,12.05-17.29,8.17-27.44Z"/>
        <path class="cls-1" d="M203.84,408.78h-13.94s-2.48,10.05-2.48,10.05l-9.97.03,8.98-32.24,5-17.02h11.14s13.76,49.22,13.76,49.22l-9.9.06-2.59-10.09ZM201.83,400.37l-4.96-19.05-5.06,19.04,10.02.02Z"/>
        <polygon class="cls-1" points="898.57 418.63 888.29 418.85 878.45 398.94 876.18 402.08 876.13 418.86 867.15 418.89 867.16 369.65 876.11 369.56 876.26 388.84 887.62 369.65 897.94 369.62 884.56 391.46 898.57 418.63"/>
        <path class="cls-1" d="M508.37,408.83l-13.56-.06-2.42,10.05-9.52.09,1.69-7.13,11.47-42.13,10.94-.02,13.47,49.12-9.7.18-2.38-10.1ZM506.29,400.37l-4.89-19-4.76,19h9.66Z"/>
        <path class="cls-1" d="M242,407.5c1.12-1.7,1.61-3.8,2.01-6.02l9.36.54c-.41,4.9-1.9,9.2-5.14,12.59-4.38,4.58-10.75,6.06-17.19,4.57-14.46-3.36-17.48-24.58-12.5-38.22,3.81-10.42,14.7-15.14,24.83-10.8,6.08,2.61,9.53,8.74,9.79,15.32l-9.23.69c-.29-3.93-2.14-7.17-5.21-8.3-3.73-1.37-7.68-.05-9.85,3.2-5.37,8.06-3.93,28.36,5.47,29.58,2.92.38,5.81-.38,7.64-3.15Z"/>
        <polygon class="cls-1" points="283.1 397.83 267.9 397.9 267.83 410.03 285.25 410.1 285.26 418.84 258.51 418.88 258.5 369.62 285.03 369.6 285.08 378.2 267.92 378.2 267.9 389.03 283.05 389.14 283.1 397.83"/>
        <polygon class="cls-1" points="698.57 397.85 683.75 397.9 683.72 410.04 700.54 410.08 700.54 418.85 674.63 418.84 674.65 369.62 700.39 369.58 700.43 378.19 683.77 378.23 683.75 389 698.48 389.11 698.57 397.85"/>
        <path class="cls-1" d="M159.46,419.73c-8.96-.07-15.16-6.73-14.58-15.51l8.84-.95c-.21,3.93,1.81,7.04,5.34,7.47,3.75.46,6.53-2.55,6.54-6.63l.08-34.42,9.39-.09-.06,35.22c-.01,8.8-6.81,14.98-15.55,14.91Z"/>
        <polygon class="cls-1" points="722.88 418.81 713.95 418.87 714.02 378.23 703.48 378.24 703.49 369.61 733.03 369.61 733.06 378.14 722.87 378.31 722.88 418.81"/>
        <polygon class="cls-1" points="572.17 418.77 562.94 418.9 562.96 369.62 572.14 369.6 572.17 418.77"/>
      </g>
    </g>
  </g>
</svg>