<svg xmlns="http://www.w3.org/2000/svg" viewBox="0 0 351.13 237.54"><defs><style>.cls-1{fill:#f06;}</style></defs><g id="Layer_2" data-name="Layer 2"><g id="Layer_1-2" data-name="Layer 1"><g id="bridge_city" data-name="bridge city"><path d="M62.26,55.76a8.85,8.85,0,0,0-1.55-5.48,23.67,23.67,0,0,0-3.87-4c-1.36-1.14-1.46-1.52,0-2.55l.48-.32c2.93-2.13,4.85-4.91,4.89-8.61.08-7.89,0-15.78,0-23.67a10.74,10.74,0,0,0-4.7-8.87C55.1.44,52.3,0,49.41,0H1C.07.07-.12.55.14,1.39,1.42,5.54,2.76,9.67,3.9,13.86A26.92,26.92,0,0,1,5,20.37L5.07,68a20.25,20.25,0,0,1-.77,6.72C2.77,79.23,1.58,83.86.15,88.42-.23,89.66.1,90,1.28,90c16.47,0,32.94.08,49.41-.06A11.4,11.4,0,0,0,62.25,78.27Q62.16,67,62.26,55.76ZM43,70.89c0,1.18-.63,1.59-1.76,1.57-2.52,0-5,0-7.55,0s-5.12,0-7.69,0c-1.1,0-1.59-.45-1.58-1.55q0-7.76,0-15.51c0-1.14.5-1.7,1.66-1.7q7.62,0,15.23,0A1.49,1.49,0,0,1,43,55.38C43,60.55,43,65.72,43,70.89Zm0-36.46c0,1.29-.58,1.93-2,1.92q-7.41,0-14.81,0c-1.29,0-1.85-.57-1.84-1.84,0-2.57,0-5.13,0-7.69,0-1.26,0-2.52,0-3.78s0-2.51,0-3.77.53-1.91,1.91-1.9c4.89,0,9.77.05,14.66,0,1.45,0,2,.61,2,2Z"/><path d="M128.8,88.37c-.82-2.48-1.53-5-2.25-7.49-1.46-5-2.87-10-4.34-15-.55-1.83-.38-2.43,1.24-3.5A9.76,9.76,0,0,0,128.22,54c.1-14.33,0-28.66.05-43a10.55,10.55,0,0,0-2.36-6.56c-2.49-3.29-6-4.45-10-4.46L66.55,0c-1,0-1.65.12-1.25,1.41q1.94,6.21,3.79,12.46A24.49,24.49,0,0,1,70.25,21c-.08,15.59,0,31.18,0,46.76a21.17,21.17,0,0,1-.77,7c-1.49,4.38-2.63,8.88-4,13.31-.57,1.87-.6,1.9,1.44,1.9H93.35c.77,0,1.38-.12,1.06-1.17C93.27,85,92.34,81.14,91,77.43A28.93,28.93,0,0,1,89.54,66,1.3,1.3,0,0,1,91,64.59c3.14,0,6.29,0,9.44,0a2,2,0,0,1,2,1.71q2.79,11,5.6,22a1.87,1.87,0,0,0,2,1.66c5.86,0,11.72,0,17.58,0C128.87,90,129.2,89.57,128.8,88.37Zm-19.73-43.3c0,1.75-.44,2.12-2.18,2.12q-7.64,0-15.26,0c-1.79,0-2.08-.3-2.09-2.15,0-4.26,0-8.52,0-12.78s0-8.51,0-12.77c0-1.85.29-2.12,2.11-2.12h15.26c1.74,0,2.15.36,2.16,2.14Q109.12,32.29,109.07,45.07Z"/><path d="M229.34,11.05a10.71,10.71,0,0,0-4.53-8.68A12.61,12.61,0,0,0,216.74,0H168.21c-.9,0-1.23.42-1,1.31,1.25,4.11,2.58,8.19,3.71,12.33a27.33,27.33,0,0,1,1.18,6.79c.1,15.83,0,31.65,0,47.48a20.24,20.24,0,0,1-.76,6.72c-1.5,4.43-2.67,9-4,13.45-.52,1.73-.49,1.85,1.26,1.85,16.23,0,32.45,0,48.68,0A13.65,13.65,0,0,0,223,88.63c4.3-2.07,6.43-5.68,6.42-10.5ZM208,72.44q-7.2,0-14.39,0c-2,0-2.11-.13-2.11-2.18V19.86c0-2.31.17-2.48,2.47-2.48h14c1.81,0,2.14.29,2.16,2.11v51C210,72.24,209.84,72.44,208,72.44Z"/><path d="M290.62,36.34q-10.89,0-21.79,0a1.7,1.7,0,0,0-1.89,1.42c-.29,1.23-.55,2.45-.83,3.68-.78,3.49-1.53,7-2.34,10.46-.33,1.43.31,1.82,1.6,1.79,1.94,0,3.88,0,5.81,0A1.55,1.55,0,0,1,273,55.44c0,5.08,0,10.16,0,15.25,0,1.27-.54,1.79-1.86,1.78-4.21-.06-8.42,0-12.64,0-3.22,0-3.22,0-3.22-3.3V19.78c0-2.17.25-2.4,2.43-2.4,4.41,0,8.82,0,13.22,0,1.44,0,2.06.56,2.06,1.95q0,3.33,0,6.68c0,2.07.33,2.26,2.29,1.8q7.56-1.75,15.13-3.42c1.22-.26,1.86-.79,1.84-2.13-.07-3.92,0-7.85-.07-11.77a6,6,0,0,0-.27-1.85C290,3,286.14.09,280.19.05q-16.06-.11-32.12,0a13.64,13.64,0,0,0-5.22,1C238.24,3.14,236,6.88,236,11.91q0,33.11,0,66.22A11.39,11.39,0,0,0,247.44,89.9c11.13.22,22.28.2,33.42,0a11.37,11.37,0,0,0,11.38-11.68q0-20,0-40.08C292.26,37,291.93,36.33,290.62,36.34Z"/><path d="M351.12,70.56c0-1.24-.42-1.72-1.7-1.71q-7.92.08-15.84,0c-1.31,0-1.88.45-1.77,1.77s-.57,1.88-1.92,1.84c-2.47-.06-4.94,0-7.41,0-1.81,0-2-.19-2-2q0-7.34,0-14.67c0-1.8.31-2.09,2.14-2.1,4,0,8,0,12.06,0,1.95,0,2.35-.31,2.78-2.2.21-.89.32-1.81.53-2.7.76-3.39,1.62-6.76,2.31-10.17.45-2.23.34-2.26-1.95-2.27-5.28,0-10.56,0-15.84,0-1.18,0-2-.31-2-1.67q0-7.84,0-15.68c0-1.14.58-1.64,1.73-1.63,2.62,0,5.23,0,7.85,0,1.25,0,1.83.59,1.75,1.76-.1,1.53.65,1.87,2,1.86,5.13,0,10.27,0,15.4,0,1.76,0,1.89-.14,1.89-1.92,0-5.42,0-10.84,0-16.26,0-2.76,0-2.76-2.7-2.76h-51c-1.09,0-1.47.41-1.12,1.54,1.3,4.15,2.57,8.3,3.76,12.48a19.81,19.81,0,0,1,1.07,5.21c.08,17.19.05,34.37,0,51.55a7.15,7.15,0,0,1-.2,2q-2.25,7.64-4.57,15.26c-.56,1.83-.57,1.88,1.32,1.88l51.59,0c1.26,0,1.85-.34,1.84-1.72C351.08,82.37,351.09,76.46,351.12,70.56Z"/><path d="M162.47,88.2c-1.12-3.85-2.31-7.67-3.43-11.51a25.11,25.11,0,0,1-1.25-7.24q.12-24.68,0-49.37A24.67,24.67,0,0,1,159.13,13c1.07-3.71,2.24-7.39,3.29-11.1.49-1.74.33-1.88-1.53-1.88H134.58c-1,0-1.3.4-1,1.38q1.92,6.21,3.79,12.46A24.15,24.15,0,0,1,138.54,21c-.08,15.64,0,31.28,0,46.91a20.81,20.81,0,0,1-.77,6.86c-1.51,4.43-2.67,9-4,13.45-.51,1.68-.49,1.79,1.34,1.79,4.31,0,8.62,0,12.93,0s8.72,0,13.08,0C162.87,90,163,89.88,162.47,88.2Z"/></g><path d="M118.83,150.4c0-1.56-.32-1.71-1.87-1.31l-15.68,3.57A2,2,0,0,0,99.53,155c.07,4.12,0,8.23,0,12.35,0,1.81-.24,2-2,2H91.46a5.11,5.11,0,0,1,.47,4c-.15.5-.28,1-.41,1.51A22.17,22.17,0,0,1,88,183.18a40.61,40.61,0,0,0-2.43,3.73l22.52-.08c6.25-.61,10.63-5.19,10.7-11.45C118.9,167.05,118.84,158.73,118.83,150.4Z"/><path d="M118.81,108.77a10.92,10.92,0,0,0-.44-3.43c-2-5.53-5.74-8.28-11.6-8.32-10.42-.06-20.83-.07-31.25,0a13.5,13.5,0,0,0-5.34,1.1c-4.51,2.08-6.72,5.76-6.71,10.76l0,66.67a10.84,10.84,0,0,0,4.35,8.78A11,11,0,0,0,70.62,186c1.15-1.83,2.33-3.61,3.49-5.37l.57-.86c2.53-3.82,5.22-7.53,7.52-10.66a6,6,0,0,1,.64-.7,7.24,7.24,0,0,1,0-.88q0-25.56,0-51.12c0-1.74.3-2,2-2,4.17,0,8.34,0,12.5,0,1.89,0,2.19.29,2.2,2.2,0,4,0,7.94,0,11.91,0,2,.37,2.2,2.24,1.76,5-1.18,10.06-2.36,15.12-3.44,1.38-.3,2-.89,2-2.34C118.81,119.23,118.86,114,118.81,108.77Z"/><path d="M262.12,176.88a5.67,5.67,0,0,1,1.53,4.45,8.58,8.58,0,0,1-1.39,3.7c-.11.18-.22.35-.31.53-.26.48-.53.92-.79,1.35h10.32c1.63,0,1.83-.21,1.4-1.79-.69-2.56-1.53-5.08-2.27-7.64q-.15-.54-.33-1.08H269A50.36,50.36,0,0,0,262.12,176.88Z"/><path d="M289.42,97H265c-1,0-1.62.27-1.4,1.43.74,3.85,1.51,7.68,2.16,11.54.38,2.21,1.05,4.44.16,6.7l-6.82,16.91c-.44.74-1.06.9-1.46-.11q-3.15-8-6.28-16c-.58-1.48-1.17-2.92-.74-4.62L253.14,99c.22-1.75,0-2-1.76-2H227.26c-1.54,0-1.71.35-1.11,1.76.44,1.07.85,2.15,1.27,3.23l19.43,50.09c.73,1.89,1.91,3.8,2,5.72.07,2.69.33,5.39.24,8.09l19.12-1.12c0-2.41.09-4.84.11-7.26a3.8,3.8,0,0,1,.26-1.42l22.24-57.22C291.37,97.29,291.12,97,289.42,97Z"/><path d="M219.38,97l-61.75,0c-1.21,0-2,.15-2,1.69,0,5.91,0,11.81,0,17.72,0,1.11.42,1.57,1.54,1.56,5.23,0,10.46,0,15.69.06,1.47,0,2.3-.38,2.15-2.05-.12-1.29.74-1.6,1.87-1.62s2.18.12,2.2,1.62l.09,50.08a21.9,21.9,0,0,1-.73,5.39,17.55,17.55,0,0,1,7.61-1.72,13.2,13.2,0,0,1,7.53,2.46,5.88,5.88,0,0,1,2.61,4,5.73,5.73,0,0,1-1.32,4.41l-.29.37c-1.59,2-3.23,4.07-5.06,6h12.64c1,0,1.64-.12,1.24-1.4q-2-6.42-4-12.87a22.53,22.53,0,0,1-1.11-6.81l.05-49.65c0-1.28.68-1.8,1.91-1.84s2.22.13,2.41,1.64c.25,1.92.4,2,2.34,2l14.52,0c2.24,0,2.31-.07,2.31-2.26q0-8.13,0-16.26C221.85,97.07,221.77,97,219.38,97Z"/><path d="M151.36,185.47q-1.85-5.88-3.52-11.8a23,23,0,0,1-1.22-5.77c-.09-15.34,0-30.69-.05-46,0-4.45,0-8.84,1.69-13.11a80.4,80.4,0,0,0,2.9-9.71c.51-1.93.34-2-1.69-2l-26.16,0c-.89,0-1.2.47-.94,1.34.92,3,1.81,6.11,2.74,9.15,1.25,4.11,2.69,8.17,2.16,12.61l-.15,49.49q-2.28,7.86-4.69,15.68c-.47,1.54-.46,1.63,1.18,1.63H150.2C151.23,186.92,151.75,186.7,151.36,185.47Z"/><path class="cls-1" d="M313.17,187.75a15.55,15.55,0,0,0-4.36.09c-11.82,1.35-23.49,2.81-35.19,4.95-2.45.45-4.86,1.13-7.3,1.63-1.68.35-3.39.54-5.07.89-3.85.82-7.69,1.71-11.55,2.54a1.93,1.93,0,0,1-1.12-.2,1.12,1.12,0,0,1,.13-.85c2-2.34,4.34-4.34,6.23-6.74a38.18,38.18,0,0,0,4.4-7.34c1.08-2.32.5-3.56-1.8-4.71a3.17,3.17,0,0,0-3.7.45c-1.85,1.69-3.65,3.44-5.37,5.26-2.87,3-4.6,6.75-6.18,10.56a4.32,4.32,0,0,1-1.15,1.84c-1.57,1.11-3.24,2.09-4.91,3-.33.19-1,.24-1.23,0a1.62,1.62,0,0,1-.22-1.32q1-3.62,2.11-7.2c.47-1.48,1-3,1.59-4.39.77-1.93,1.65-3.83,2.43-5.76.6-1.5,1.37-2.77,3.11-3.17,1.56-.37,3.09-.85,4.64-1.27,6.68-1.79,13.39-3.34,20.37-3.32,4.47,0,8.94,0,13.41,0,4,0,8.19.25,12-1.2.3-.12.64-.29.69-.61s-.36-.71-.74-.87c-3.09-1.35-7-1.26-10.31-1.49q-6-.41-12.13-.32a145.29,145.29,0,0,0-23.9,2.35c-2,.36-2.16.28-2.23-1.81,0-.41,0-.82-.05-1.23-.13-1.19-1-1.92-2.56-2.27-1.11-.26-1.46.58-1.83,1.27-.93,1.69-1.77,3.43-2.69,5.12a2.73,2.73,0,0,1-1.12,1.26c-2.56.89-5.17,1.62-7.73,2.5a3.63,3.63,0,0,0-2,1.3,2,2,0,0,0,.81,2.49,29.12,29.12,0,0,0,2.68,1.73c1.21.66,1.35,1,.67,2.22-.35.61-.69,1.21-1.06,1.81-3.11,5-6.21,10-9.37,15-.25.4-.85.57-1.29.86a4.57,4.57,0,0,1-.12-1.5c.47-1.87,1-3.72,1.57-5.56a3.16,3.16,0,0,1,.65-1.16c.71-.78.44-1.38-.32-1.8a20.27,20.27,0,0,0-2.48-1.09c-1.11-.43-1.73-.07-2.23,1a20.66,20.66,0,0,1-1.55,2.9c-1.2,1.82-2.47,3.59-3.75,5.35a21.54,21.54,0,0,1-2.13,2.54,4.19,4.19,0,0,1-1.42.64,5.2,5.2,0,0,1,0-1.47,19,19,0,0,1,.93-2.41c.63-1.5,1.4-2.91,1.15-4.69-.21-1.42-1.3-3-2.73-3a1.93,1.93,0,0,0-1.38.55c-1.29,1.53-2.48,3.15-3.73,4.72-1.38,1.73-2.77,3.46-4.21,5.14a4.47,4.47,0,0,1-1.27.72,6.32,6.32,0,0,1,0-1.5,12.42,12.42,0,0,1,.68-1.71,2.79,2.79,0,0,0-1.76-3.67c-1.63-.56-2.54-.08-3.14,1.71-.93,2.76-1.83,5.53-2.74,8.3-.36,1.1-.65,1.19-1.68.56a12.61,12.61,0,0,0-1.63-.85c-10.57-4.39-23-1.56-34.06-2.2a36.56,36.56,0,0,1,8-7.92,198.67,198.67,0,0,1,17.11-12.12,2.84,2.84,0,0,1,2.41-.62,33.16,33.16,0,0,1-9.77,7.38,3.65,3.65,0,0,0-1.5,1.08,2.47,2.47,0,0,0,.59,3,5.24,5.24,0,0,0,5.29.83,15.25,15.25,0,0,0,4.68-3.09c4.53-3.89,9.05-7.91,12.39-12.86a2.4,2.4,0,0,0,.56-1.47,2.19,2.19,0,0,0-1-1.43c-2.47-2-6-2.25-9-1.47a28.59,28.59,0,0,0-8.43,4.25,241.83,241.83,0,0,0-25.41,19.32,6.85,6.85,0,0,0-2.56,3.45,4.54,4.54,0,0,0,2,4.38,10.32,10.32,0,0,0,4.75,1.62,74,74,0,0,0,12.28.15,149.64,149.64,0,0,1,18.7.62c3.27.31,1.22,2.17-.49,2.84s-3.58,1.2-5.35,1.86c-9.51,3.54-19.51,5.31-29.5,6.93a9,9,0,0,1-2.88.21c-.87-.14-1.63-1.1-2.35-1.14a11.43,11.43,0,0,0-3.23.39,1.22,1.22,0,0,0-.63,1.05c.53,1.52,1.06,3.1,2.43,4.11,2,1.45,4.31,1.57,6.59,1.53,7.08-.12,14.89-2.3,21.65-4.32a75.92,75.92,0,0,0,11.29-4.32,60,60,0,0,0,5.45-3c1.46-.91,3.23-3,5.06-2.08,1.11.54,2.5,1,3.57,0,1.41-1.46,2.68-3.06,4-4.62.39-.47.67-1,1.08-1.49a1.22,1.22,0,0,1,.93-.42c.24.06.42.5.59.8.3.52.52,1.09.85,1.59,1.13,1.68,3,2.11,4.74,2.61a2.13,2.13,0,0,0,2.4-.8c1-1.18,1.95-2.33,2.92-3.5,1.62-2,1.93-1.95,3,.39a2.74,2.74,0,0,0,2.76,1.85,8.18,8.18,0,0,0,1.71,0,3.7,3.7,0,0,0,1.88-.91c1.2-1.51,2.23-3.14,3.32-4.73.88-1.28,1.73-2.59,2.65-3.84.2-.27.65-.36,1-.53a5.33,5.33,0,0,1,.17,1.11c-.2,2.77.49,4.63,3.59,5.46,2.25.6,5.16.68,7-.91a1.44,1.44,0,0,1,2.12-.05c1.71,1.62,3.57,1.25,5.58.57,2.56-.88,5.22-1.54,7.88-2.19,5.49-1.33,11-2.52,16.57-3.61,11.24-2.19,22.56-3.92,33.91-5.46a22.07,22.07,0,0,1,8.06-.08,4.56,4.56,0,0,0,1.86.22c1.51-.3,1.21-2.32.66-3.31A4.61,4.61,0,0,0,313.17,187.75Zm-65.86,4.11c.7-3.11,3.2-6.63,7.15-9.71.29-.23.62.29.5.78-.92,3.61-4.47,8.44-7.22,9.55C247.48,192.59,247.22,192.24,247.31,191.86Z"/><path class="cls-1" d="M150.58,215.59a1.82,1.82,0,0,0,1.87-1l-1.18-1.09,1-.77c-.62-.3-1.09-.51-1.54-.76a8.12,8.12,0,0,1-1.46-.86,2.94,2.94,0,0,0-3.5-.46,3.68,3.68,0,0,1-1.11.46q-4.78.84-9.58,1.62c-1.66.27-1.91.06-2.25-1.55s-.78-3.19-1-4.8a3,3,0,0,1,.31-2.09,1.52,1.52,0,0,0-.2-2.36,30.86,30.86,0,0,0-2.95-2.09c.54-.12,1.2-.24,1.85-.43.39-.12,1.1-.4,1.08-.52a3.85,3.85,0,0,0-.59-1.37c-.17-.29-.55-.47-.66-.77a2.32,2.32,0,0,0-3.33-.79,5.53,5.53,0,0,1-1.1.73c-1.47.81-3,1.57-4.43,2.4A53.17,53.17,0,0,0,112,206.6c-.24.23-.5.45-.76.67l-.27-.18c.54-2,.4-4.15,1.79-6a2.36,2.36,0,0,0,0-1.76c-.13-.44-.64-.76-.94-1.16-.69-.9-3.28-.88-4,0-1.53,1.85-3.12,3.66-4.69,5.49-.4.47-.82.94-1.23,1.41l-.39-.21a9.91,9.91,0,0,1,.92-2.27c.79-1.15,1-1.95-.19-3.12-1.64-1.58-3-1.6-4.23.38a7.66,7.66,0,0,1-.88,1l-9.17,9.8c-.63.67-1.24,1.36-1.86,2l-.28-.15a2,2,0,0,1,0-.7c.59-1.64,1.18-3.28,1.84-4.9a.82.82,0,0,0-.56-1.24c-1.32-.51-2.29-1.91-4-1.57-.23.05-.54-.33-.82-.5a3,3,0,0,0-.82-.49c-2.71-.65-4.9.51-6.67,2.33s-3.56,4.16-5.35,6.23c-.18.21-.61.44-.8.36a1.19,1.19,0,0,1-.66-.78,2.91,2.91,0,0,1,.19-1.43c.37-.85.85-1.64,1.28-2.46,1.31-2.48,2.59-5,3.94-7.43,1-1.92,2.14-3.8,3.28-5.66,1-1.61,2.09-3.14,3.09-4.74,1.78-2.87,3.31-5.94,5.34-8.62s2.49-5.62,3.32-8.57A1.61,1.61,0,0,0,87,170.38a2.32,2.32,0,0,0-1.89.86c-2.54,3.45-5.05,6.93-7.42,10.51-2.48,3.75-5,7.49-7.12,11.44-3,5.69-5.73,11.56-8.6,17.35a2,2,0,0,1-.84,1c-2,.79-4.11,1.49-6.55,2.35.56-1.39.92-2.45,1.39-3.45,1.72-3.66,3.5-7.3,5.21-11,1-2.08.16-3.44-2.08-3.68-2.57-.28-3.47.37-4.08,2.86a11.14,11.14,0,0,1-.82,2.31c-2.44,5.08-4.87,10.16-7.41,15.19a5,5,0,0,1-2.09,2.11c-3.2,1.55-6.5,2.89-9.72,4.4a1.86,1.86,0,0,0-1,1.39c.12.9,1.63,1.72,2.62,1.67.78,0,1.55-.1,2.33-.16l3.81-.31c-.69,2.09-3,6.25-2.23,8.42a11.51,11.51,0,0,0,2.38,3.42,3,3,0,0,0,2.27.39c1.29-.24.77-1.68.8-2.53.15-4,2.55-8.46,4.23-12.06a5.1,5.1,0,0,1,2.06-2.27,62.56,62.56,0,0,1,5.88-2.51c.12-.05.3,0,.53,0a5.26,5.26,0,0,1,0,1c-.76,3-3.63,8.94-2.15,11.86.83,1.63,2.15,3.06,4.06,2.64.28-.06.47-.85.56-1.33.31-1.58.55-3.18.83-4.78a3,3,0,0,0,.14-.57c-.09-2.52,1.2-4.61,2.1-6.81a8.67,8.67,0,0,1,.69-1.18c.7,1.23,1.29,2.39,2,3.46A4.66,4.66,0,0,0,73,223.91c1.62-1,2.85-2.6,4.2-4,.84-.87,1.59-1.82,2.54-2.91.74,3.36,2.07,4.51,4.91,4.51a1.73,1.73,0,0,0,1.14-.3c1.22-1.37,2.42-2.77,3.53-4.24.78-1,1.4-2.18,2.1-3.28s1.53-2.48,2.34-3.7a13.22,13.22,0,0,1,1.14-1.27c.15.4.25.53.23.62-.53,2.1-1.1,4.19-1.61,6.29a2.89,2.89,0,0,0,.36,2.8,3.59,3.59,0,0,0,5.46-.48c2.11-3.2,4.19-6.43,6.31-9.63a6.27,6.27,0,0,1,1-.9,45.18,45.18,0,0,1-.23,4.78c-.06,1.39-1.06,2.77-.15,4.15.36.56.91,1.4,1.37,1.39.72,0,1.65.52,2.3-.5.78-1.24,1.77-2.35,2.64-3.54a6.68,6.68,0,0,0,.51-1.08c.6,1.46.7,2.62,1.31,3.34s1.73,1,2.93,1.61c-.83.46-1.27.75-1.75,1-3.78,1.68-7.59,3.29-11.34,5.05a6.41,6.41,0,0,0-2.82,2.22c-2.3,4.05,6.05,4.43,7.87,4.56a55.83,55.83,0,0,0,18.61-1.69,20.53,20.53,0,0,0,4.11-1.74,5.44,5.44,0,0,0,1.93-1.66,7.61,7.61,0,0,0,1.31-3,14.34,14.34,0,0,0-.31-3.61c-.17-1.52-.06-1.67,1.43-1.89,2.6-.38,5.18-.89,7.79-1.12A58,58,0,0,1,150.58,215.59Zm-80.79,4.74C69.47,218,76.35,209.28,79.5,208,79.5,210.09,72.72,218.77,69.79,220.33Zm58.29-11.81c.19.42.42.83.57,1.27.35,1,.72,2.09,1,3.16.07.28-.09.89-.27,1-3,.91-6,1.76-9,2.62-.06,0-.15-.06-.33-.14ZM125.15,202a.43.43,0,0,1,.6.5c-.63,2.65-4.93,7.57-7.72,8.65a.38.38,0,0,1-.52-.4C118.1,206.65,122.55,203.26,125.15,202Zm2.22,22.79a82.52,82.52,0,0,1-9.32,2,34.12,34.12,0,0,1-5.8.3c-.78,0-5.48.06-2.73-1.22,3.1-1.46,6.16-3.07,9.36-4.27,3.55-1.34,7.23-2.32,10.87-3.41,1.22-.37,1.47-.15,1.55,1.07C131.49,222.05,130.35,224,127.37,224.8Z"/><path class="cls-1" d="M220.28,186.83a19,19,0,0,0,2.26,1.12,4.73,4.73,0,0,0,3.28-2.62,1.29,1.29,0,0,0,0-.39,4.82,4.82,0,0,0-2.51-3.56,1.11,1.11,0,0,0-1.53.47c-.56.93-1.16,1.84-1.74,2.76S219.55,186.33,220.28,186.83Z"/></g></g></svg>