<?xml version="1.0" encoding="UTF-8"?>
<svg id="Layer_2" data-name="Layer 2" xmlns="http://www.w3.org/2000/svg" viewBox="0 0 351.13 237.54">
  <defs>
    <style>
      .cls-1 {
        fill: #f06;
      }
    </style>
  </defs>
  <g id="Layer_1-2" data-name="Layer 1">
    <g id="Layer_2-2" data-name="Layer 2">
      <g id="uuid-d653f853-fd6c-4b57-9d45-93405435b7bf" data-name="Layer 1-2">
        <g id="bridge_city" data-name="bridge city">
          <path class="cls-1" d="M62.26,55.78c.1-1.95-.44-3.87-1.55-5.48-1.13-1.48-2.43-2.82-3.87-4-1.36-1.14-1.46-1.52,0-2.55l.48-.32c2.93-2.13,4.85-4.91,4.89-8.61.08-7.89,0-15.78,0-23.67,0-3.55-1.76-6.87-4.7-8.87C55.1.46,52.3.02,49.41.02H1C.07.09-.12.57.14,1.41c1.28,4.15,2.62,8.28,3.76,12.47.63,2.12,1,4.3,1.1,6.51l.07,47.63c.12,2.27-.14,4.54-.77,6.72-1.53,4.51-2.72,9.14-4.15,13.7-.38,1.24-.05,1.58,1.13,1.58,16.47,0,32.94.08,49.41-.06,6.3.09,11.47-4.94,11.56-11.24,0-.14,0-.29,0-.43-.06-7.51-.06-15.02,0-22.51ZM43,70.91c0,1.18-.63,1.59-1.76,1.57h-15.24c-1.1,0-1.59-.45-1.58-1.55,0-5.17,0-10.34,0-15.51,0-1.14.5-1.7,1.66-1.7h15.23c.81-.12,1.57.45,1.69,1.26.02.14.02.28,0,.42v15.51ZM43,34.45c0,1.29-.58,1.93-2,1.92h-14.81c-1.29,0-1.85-.57-1.84-1.84v-15.24c0-1.26.53-1.91,1.91-1.9,4.89,0,9.77.05,14.66,0,1.45,0,2,.61,2,2l.08,15.06Z"/>
          <path class="cls-1" d="M128.8,88.39c-.82-2.48-1.53-5-2.25-7.49-1.46-5-2.87-10-4.34-15-.55-1.83-.38-2.43,1.24-3.5,2.96-1.76,4.77-4.94,4.77-8.38.1-14.33,0-28.66.05-43-.02-2.39-.85-4.7-2.36-6.56C123.42,1.17,119.91.01,115.91,0l-49.36.02c-1,0-1.65.12-1.25,1.41,1.29,4.14,2.56,8.29,3.79,12.46.74,2.31,1.13,4.71,1.16,7.13-.08,15.59,0,31.18,0,46.76.14,2.36-.12,4.73-.77,7-1.49,4.38-2.63,8.88-4,13.31-.57,1.87-.6,1.9,1.44,1.9h26.43c.77,0,1.38-.12,1.06-1.17-1.14-3.8-2.07-7.66-3.41-11.37-1.25-3.67-1.74-7.56-1.46-11.43-.07-.71.46-1.35,1.17-1.41.1,0,.19,0,.29,0h9.44c1-.01,1.85.72,2,1.71,1.86,7.33,3.73,14.67,5.6,22,.11,1,.99,1.74,2,1.66h17.58c1.25.04,1.58-.39,1.18-1.59ZM109.07,45.09c0,1.75-.44,2.12-2.18,2.12h-15.26c-1.79,0-2.08-.3-2.09-2.15v-25.55c0-1.85.29-2.12,2.11-2.12h15.26c1.74,0,2.15.36,2.16,2.14.03,8.52.03,17.04,0,25.56Z"/>
          <path class="cls-1" d="M229.34,11.07c-.02-3.45-1.71-6.69-4.53-8.68-2.34-1.69-5.19-2.53-8.07-2.37h-48.53c-.9,0-1.23.42-1,1.31,1.25,4.11,2.58,8.19,3.71,12.33.68,2.2,1.07,4.49,1.18,6.79.1,15.83,0,31.65,0,47.48.13,2.27-.13,4.54-.76,6.72-1.5,4.43-2.67,9-4,13.45-.52,1.73-.49,1.85,1.26,1.85h48.68c1.98-.01,3.93-.46,5.72-1.3,4.3-2.07,6.43-5.68,6.42-10.5l-.08-67.08ZM208,72.46h-14.39c-2,0-2.11-.13-2.11-2.18V19.88c0-2.31.17-2.48,2.47-2.48h14c1.81,0,2.14.29,2.16,2.11v51c-.13,1.75-.29,1.95-2.13,1.95Z"/>
          <path class="cls-1" d="M290.62,36.36h-21.79c-.91-.11-1.75.51-1.89,1.42-.29,1.23-.55,2.45-.83,3.68-.78,3.49-1.53,7-2.34,10.46-.33,1.43.31,1.82,1.6,1.79h5.81c.84-.16,1.65.4,1.81,1.24.03.17.04.34.01.51v15.25c0,1.27-.54,1.79-1.86,1.78-4.21-.06-8.42,0-12.64,0q-3.22,0-3.22-3.3V19.8c0-2.17.25-2.4,2.43-2.4h13.22c1.44,0,2.06.56,2.06,1.95v6.68c0,2.07.33,2.26,2.29,1.8,5.04-1.17,10.08-2.31,15.13-3.42,1.22-.26,1.86-.79,1.84-2.13-.07-3.92,0-7.85-.07-11.77,0-.63-.08-1.25-.27-1.85-1.91-5.64-5.77-8.55-11.72-8.59C269.48,0,258.78,0,248.07.07c-1.79-.01-3.56.33-5.22,1-4.61,2.09-6.85,5.83-6.85,10.86v66.22c-.21,6.29,4.72,11.55,11,11.76.15,0,.29,0,.44,0,11.13.22,22.28.2,33.42,0,6.28,0,11.38-5.08,11.38-11.36,0-.11,0-.22,0-.32v-40.08c.02-1.14-.31-1.81-1.62-1.8Z"/>
          <path class="cls-1" d="M351.12,70.58c0-1.24-.42-1.72-1.7-1.71-5.28.05-10.56.05-15.84,0-1.31,0-1.88.45-1.77,1.77s-.57,1.88-1.92,1.84c-2.47-.06-4.94,0-7.41,0-1.81,0-2-.19-2-2v-14.67c0-1.8.31-2.09,2.14-2.1h12.06c1.95,0,2.35-.31,2.78-2.2.21-.89.32-1.81.53-2.7.76-3.39,1.62-6.76,2.31-10.17.45-2.23.34-2.26-1.95-2.27h-15.84c-1.18,0-2-.31-2-1.67v-15.68c0-1.14.58-1.64,1.73-1.63h7.85c1.25,0,1.83.59,1.75,1.76-.1,1.53.65,1.87,2,1.86h15.4c1.76,0,1.89-.14,1.89-1.92V2.83q0-2.76-2.7-2.76h-51c-1.09,0-1.47.41-1.12,1.54,1.3,4.15,2.57,8.3,3.76,12.48.59,1.68.95,3.43,1.07,5.21.08,17.19.05,34.37,0,51.55.03.67-.04,1.35-.2,2-1.5,5.09-3.02,10.18-4.57,15.26-.56,1.83-.57,1.88,1.32,1.88h51.59c1.26,0,1.85-.34,1.84-1.72-.04-5.88-.03-11.79,0-17.69Z"/>
          <path class="cls-1" d="M162.47,88.22c-1.12-3.85-2.31-7.67-3.43-11.51-.77-2.34-1.19-4.78-1.25-7.24.08-16.45.08-32.91,0-49.37.1-2.41.55-4.8,1.34-7.08,1.07-3.71,2.24-7.39,3.29-11.1.49-1.74.33-1.88-1.53-1.88h-26.31c-1,0-1.3.4-1,1.38,1.28,4.14,2.54,8.29,3.79,12.46.75,2.31,1.14,4.71,1.17,7.14-.08,15.64,0,31.28,0,46.91.13,2.31-.13,4.63-.77,6.86-1.51,4.43-2.67,9-4,13.45-.51,1.68-.49,1.79,1.34,1.79h26.01c1.75-.01,1.88-.13,1.35-1.81Z"/>
        </g>
        <path class="cls-1" d="M118.83,150.42c0-1.56-.32-1.71-1.87-1.31l-15.68,3.57c-1.1.12-1.89,1.11-1.77,2.21,0,.04.01.09.02.13.07,4.12,0,8.23,0,12.35,0,1.81-.24,2-2,2h-6.07c.7,1.21.87,2.66.47,4-.15.5-.28,1-.41,1.51-.59,2.99-1.79,5.82-3.52,8.32-.88,1.2-1.69,2.44-2.43,3.73l22.52-.08c6.25-.61,10.63-5.19,10.7-11.45.11-8.33.05-16.65.04-24.98Z"/>
        <path class="cls-1" d="M118.81,108.79c.04-1.16-.11-2.32-.44-3.43-2-5.53-5.74-8.28-11.6-8.32-10.42-.06-20.83-.07-31.25,0-1.84,0-3.65.37-5.34,1.1-4.51,2.08-6.72,5.76-6.71,10.76v66.67c-.03,3.45,1.58,6.71,4.35,8.78.85.69,1.79,1.26,2.8,1.67,1.15-1.83,2.33-3.61,3.49-5.37l.57-.86c2.53-3.82,5.22-7.53,7.52-10.66.19-.25.41-.48.64-.7-.02-.29-.02-.59,0-.88v-51.12c0-1.74.3-2,2-2h12.5c1.89,0,2.19.29,2.2,2.2v11.91c0,2,.37,2.2,2.24,1.76,5-1.18,10.06-2.36,15.12-3.44,1.38-.3,2-.89,2-2.34-.09-5.27-.04-10.5-.09-15.73Z"/>
        <path class="cls-1" d="M262.12,176.9c1.13,1.19,1.69,2.82,1.53,4.45-.17,1.32-.65,2.59-1.39,3.7-.11.18-.22.35-.31.53-.26.48-.53.92-.79,1.35h10.32c1.63,0,1.83-.21,1.4-1.79-.69-2.56-1.53-5.08-2.27-7.64-.1-.36-.21-.72-.33-1.08h-1.28c-2.3,0-4.6.16-6.88.48Z"/>
        <path class="cls-1" d="M289.42,97.02h-24.42c-1,0-1.62.27-1.4,1.43.74,3.85,1.51,7.68,2.16,11.54.38,2.21,1.05,4.44.16,6.7l-6.82,16.91c-.44.74-1.06.9-1.46-.11-2.1-5.33-4.19-10.67-6.28-16-.58-1.48-1.17-2.92-.74-4.62l2.52-13.85c.22-1.75,0-2-1.76-2h-24.12c-1.54,0-1.71.35-1.11,1.76.44,1.07.85,2.15,1.27,3.23l19.43,50.09c.73,1.89,1.91,3.8,2,5.72.07,2.69.33,5.39.24,8.09l19.12-1.12c0-2.41.09-4.84.11-7.26,0-.49.08-.97.26-1.42l22.24-57.22c.55-1.58.3-1.87-1.4-1.87Z"/>
        <path class="cls-1" d="M219.38,97.02h-61.75c-1.21,0-2,.15-2,1.69v17.72c0,1.11.42,1.57,1.54,1.56,5.23,0,10.46,0,15.69.06,1.47,0,2.3-.38,2.15-2.05-.12-1.29.74-1.6,1.87-1.62s2.18.12,2.2,1.62l.09,50.08c-.02,1.82-.26,3.63-.73,5.39,2.38-1.14,4.98-1.72,7.61-1.72,2.7.03,5.33.89,7.53,2.46,1.4.9,2.35,2.36,2.61,4,.2,1.59-.28,3.19-1.32,4.41l-.29.37c-1.59,2-3.23,4.07-5.06,6h12.64c1,0,1.64-.12,1.24-1.4-1.33-4.28-2.67-8.57-4-12.87-.72-2.2-1.09-4.5-1.11-6.81l.05-49.65c0-1.28.68-1.8,1.91-1.84s2.22.13,2.41,1.64c.25,1.92.4,2,2.34,2h14.52c2.24,0,2.31-.07,2.31-2.26v-16.26c.02-2.45-.06-2.52-2.45-2.52Z"/>
        <path class="cls-1" d="M151.36,185.49c-1.23-3.92-2.41-7.85-3.52-11.8-.65-1.86-1.06-3.8-1.22-5.77-.09-15.34,0-30.69-.05-46,0-4.45,0-8.84,1.69-13.11,1.17-3.17,2.14-6.42,2.9-9.71.51-1.93.34-2-1.69-2h-26.16c-.89,0-1.2.47-.94,1.34.92,3,1.81,6.11,2.74,9.15,1.25,4.11,2.69,8.17,2.16,12.61l-.15,49.49c-1.52,5.24-3.08,10.47-4.69,15.68-.47,1.54-.46,1.63,1.18,1.63h26.59c1.03-.06,1.55-.28,1.16-1.51Z"/>
        <path class="cls-1" d="M313.17,187.77c-1.45-.17-2.92-.14-4.36.09-11.82,1.35-23.49,2.81-35.19,4.95-2.45.45-4.86,1.13-7.3,1.63-1.68.35-3.39.54-5.07.89-3.85.82-7.69,1.71-11.55,2.54-.38.05-.78-.02-1.12-.2-.07-.29-.02-.6.13-.85,2-2.34,4.34-4.34,6.23-6.74,1.74-2.27,3.21-4.74,4.4-7.34,1.08-2.32.5-3.56-1.8-4.71-1.2-.67-2.69-.49-3.7.45-1.85,1.69-3.65,3.44-5.37,5.26-2.87,3-4.6,6.75-6.18,10.56-.22.7-.62,1.33-1.15,1.84-1.57,1.11-3.24,2.09-4.91,3-.33.19-1,.24-1.23,0-.26-.39-.34-.87-.22-1.32.67-2.41,1.37-4.81,2.11-7.2.47-1.48,1-3,1.59-4.39.77-1.93,1.65-3.83,2.43-5.76.6-1.5,1.37-2.77,3.11-3.17,1.56-.37,3.09-.85,4.64-1.27,6.68-1.79,13.39-3.34,20.37-3.32h13.41c4,0,8.19.25,12-1.2.3-.12.64-.29.69-.61s-.36-.71-.74-.87c-3.09-1.35-7-1.26-10.31-1.49-4-.27-8.04-.38-12.13-.32-8.02.12-16.01.91-23.9,2.35-2,.36-2.16.28-2.23-1.81,0-.41,0-.82-.05-1.23-.13-1.19-1-1.92-2.56-2.27-1.11-.26-1.46.58-1.83,1.27-.93,1.69-1.77,3.43-2.69,5.12-.23.53-.62.97-1.12,1.26-2.56.89-5.17,1.62-7.73,2.5-.79.2-1.5.65-2,1.3-.39.92-.04,1.98.81,2.49.86.63,1.76,1.2,2.68,1.73,1.21.66,1.35,1,.67,2.22-.35.61-.69,1.21-1.06,1.81-3.11,5-6.21,10-9.37,15-.25.4-.85.57-1.29.86-.12-.49-.16-1-.12-1.5.47-1.87,1-3.72,1.57-5.56.13-.43.35-.82.65-1.16.71-.78.44-1.38-.32-1.8-.8-.42-1.63-.78-2.48-1.09-1.11-.43-1.73-.07-2.23,1-.44,1.01-.96,1.98-1.55,2.9-1.2,1.82-2.47,3.59-3.75,5.35-.64.9-1.36,1.75-2.13,2.54-.43.3-.91.52-1.42.64-.07-.49-.07-.98,0-1.47.25-.82.57-1.63.93-2.41.63-1.5,1.4-2.91,1.15-4.69-.21-1.42-1.3-3-2.73-3-.51,0-1.01.19-1.38.55-1.29,1.53-2.48,3.15-3.73,4.72-1.38,1.73-2.77,3.46-4.21,5.14-.38.31-.81.55-1.27.72-.06-.5-.06-1,0-1.5.18-.59.41-1.16.68-1.71.56-1.44-.15-3.05-1.59-3.61-.06-.02-.11-.04-.17-.06-1.63-.56-2.54-.08-3.14,1.71-.93,2.76-1.83,5.53-2.74,8.3-.36,1.1-.65,1.19-1.68.56-.52-.32-1.07-.61-1.63-.85-10.57-4.39-23-1.56-34.06-2.2,2.24-3.04,4.94-5.71,8-7.92,5.49-4.34,11.2-8.38,17.11-12.12.67-.57,1.55-.8,2.41-.62-2.77,3.05-6.08,5.55-9.77,7.38-.58.23-1.1.6-1.5,1.08-.52,1.02-.28,2.26.59,3,1.48,1.22,3.51,1.54,5.29.83,1.74-.73,3.32-1.78,4.68-3.09,4.53-3.89,9.05-7.91,12.39-12.86.35-.41.54-.93.56-1.47-.12-.59-.48-1.11-1-1.43-2.47-2-6-2.25-9-1.47-3.03.94-5.87,2.38-8.43,4.25-8.89,5.87-17.37,12.33-25.41,19.32-1.2.85-2.1,2.06-2.56,3.45-.23,1.72.55,3.42,2,4.38,1.43.92,3.06,1.48,4.75,1.62,4.08.39,8.19.44,12.28.15,6.24-.18,12.49.02,18.7.62,3.27.31,1.22,2.17-.49,2.84s-3.58,1.2-5.35,1.86c-9.51,3.54-19.51,5.31-29.5,6.93-.94.22-1.91.3-2.88.21-.87-.14-1.63-1.1-2.35-1.14-1.09-.02-2.18.11-3.23.39-.38.21-.62.61-.63,1.05.53,1.52,1.06,3.1,2.43,4.11,2,1.45,4.31,1.57,6.59,1.53,7.08-.12,14.89-2.3,21.65-4.32,3.87-1.14,7.65-2.58,11.29-4.32,1.87-.91,3.69-1.91,5.45-3,1.46-.91,3.23-3,5.06-2.08,1.11.54,2.5,1,3.57,0,1.41-1.46,2.68-3.06,4-4.62.39-.47.67-1,1.08-1.49.23-.27.57-.42.93-.42.24.06.42.5.59.8.3.52.52,1.09.85,1.59,1.13,1.68,3,2.11,4.74,2.61.89.29,1.86-.04,2.4-.8,1-1.18,1.95-2.33,2.92-3.5,1.62-2,1.93-1.95,3,.39.4,1.17,1.53,1.93,2.76,1.85.57.06,1.14.06,1.71,0,.7-.12,1.35-.43,1.88-.91,1.2-1.51,2.23-3.14,3.32-4.73.88-1.28,1.73-2.59,2.65-3.84.2-.27.65-.36,1-.53.1.36.15.74.17,1.11-.2,2.77.49,4.63,3.59,5.46,2.25.6,5.16.68,7-.91.52-.6,1.43-.66,2.03-.13.03.03.06.05.09.08,1.71,1.62,3.57,1.25,5.58.57,2.56-.88,5.22-1.54,7.88-2.19,5.49-1.33,11-2.52,16.57-3.61,11.24-2.19,22.56-3.92,33.91-5.46,2.66-.52,5.39-.55,8.06-.08.6.2,1.23.28,1.86.22,1.51-.3,1.21-2.32.66-3.31-.86-1.17-2.23-1.87-3.69-1.88ZM247.31,191.88c.7-3.11,3.2-6.63,7.15-9.71.29-.23.62.29.5.78-.92,3.61-4.47,8.44-7.22,9.55-.26.11-.52-.24-.43-.62h0Z"/>
        <path class="cls-1" d="M150.58,215.61c.77.1,1.53-.3,1.87-1l-1.18-1.09,1-.77c-.62-.3-1.09-.51-1.54-.76-.52-.23-1-.52-1.46-.86-.93-.91-2.36-1.1-3.5-.46-.34.21-.72.37-1.11.46-3.19.56-6.38,1.1-9.58,1.62-1.66.27-1.91.06-2.25-1.55s-.78-3.19-1-4.8c-.15-.71-.04-1.45.31-2.09.61-.58.63-1.54.05-2.15-.08-.08-.16-.15-.25-.21-.94-.75-1.93-1.45-2.95-2.09.54-.12,1.2-.24,1.85-.43.39-.12,1.1-.4,1.08-.52-.11-.49-.31-.96-.59-1.37-.17-.29-.55-.47-.66-.77-.62-1.12-2.04-1.52-3.16-.9-.06.03-.12.07-.17.11-.34.29-.71.53-1.1.73-1.47.81-3,1.57-4.43,2.4-3.55,2.11-6.84,4.63-9.81,7.51-.24.23-.5.45-.76.67l-.27-.18c.54-2,.4-4.15,1.79-6,.23-.56.23-1.2,0-1.76-.13-.44-.64-.76-.94-1.16-.69-.9-3.28-.88-4,0-1.53,1.85-3.12,3.66-4.69,5.49-.4.47-.82.94-1.23,1.41l-.39-.21c.21-.79.52-1.55.92-2.27.79-1.15,1-1.95-.19-3.12-1.64-1.58-3-1.6-4.23.38-.26.36-.56.69-.88,1l-9.17,9.8c-.63.67-1.24,1.36-1.86,2l-.28-.15c-.04-.23-.04-.47,0-.7.59-1.64,1.18-3.28,1.84-4.9.24-.39.12-.89-.27-1.13-.09-.06-.19-.09-.29-.11-1.32-.51-2.29-1.91-4-1.57-.23.05-.54-.33-.82-.5-.25-.21-.52-.37-.82-.49-2.71-.65-4.9.51-6.67,2.33s-3.56,4.16-5.35,6.23c-.18.21-.61.44-.8.36-.33-.15-.57-.43-.66-.78-.06-.49,0-.98.19-1.43.37-.85.85-1.64,1.28-2.46,1.31-2.48,2.59-5,3.94-7.43,1-1.92,2.14-3.8,3.28-5.66,1-1.61,2.09-3.14,3.09-4.74,1.78-2.87,3.31-5.94,5.34-8.62s2.49-5.62,3.32-8.57c.19-.87-.36-1.73-1.22-1.92-.06-.01-.13-.02-.2-.03-.73-.03-1.43.29-1.89.86-2.54,3.45-5.05,6.93-7.42,10.51-2.48,3.75-5,7.49-7.12,11.44-3,5.69-5.73,11.56-8.6,17.35-.16.42-.46.77-.84,1-2,.79-4.11,1.49-6.55,2.35.56-1.39.92-2.45,1.39-3.45,1.72-3.66,3.5-7.3,5.21-11,1-2.08.16-3.44-2.08-3.68-2.57-.28-3.47.37-4.08,2.86-.19.8-.46,1.57-.82,2.31-2.44,5.08-4.87,10.16-7.41,15.19-.47.9-1.2,1.63-2.09,2.11-3.2,1.55-6.5,2.89-9.72,4.4-.54.27-.91.79-1,1.39.12.9,1.63,1.72,2.62,1.67.78,0,1.55-.1,2.33-.16l3.81-.31c-.69,2.09-3,6.25-2.23,8.42.58,1.28,1.39,2.43,2.38,3.42.67.43,1.49.57,2.27.39,1.29-.24.77-1.68.8-2.53.15-4,2.55-8.46,4.23-12.06.44-.95,1.16-1.74,2.06-2.27,1.92-.94,3.88-1.77,5.88-2.51.12-.05.3,0,.53,0,.03.33.03.67,0,1-.76,3-3.63,8.94-2.15,11.86.83,1.63,2.15,3.06,4.06,2.64.28-.06.47-.85.56-1.33.31-1.58.55-3.18.83-4.78.07-.18.11-.38.14-.57-.09-2.52,1.2-4.61,2.1-6.81.2-.41.43-.81.69-1.18.7,1.23,1.29,2.39,2,3.46,1.33,2.02,3.98,2.69,6.11,1.54,1.62-1,2.85-2.6,4.2-4,.84-.87,1.59-1.82,2.54-2.91.74,3.36,2.07,4.51,4.91,4.51.4.04.81-.07,1.14-.3,1.22-1.37,2.42-2.77,3.53-4.24.78-1,1.4-2.18,2.1-3.28s1.53-2.48,2.34-3.7c.35-.45.73-.87,1.14-1.27.15.4.25.53.23.62-.53,2.1-1.1,4.19-1.61,6.29-.38.93-.24,1.99.36,2.8,1.41,1.4,3.68,1.39,5.08-.02.14-.14.27-.29.38-.46,2.11-3.2,4.19-6.43,6.31-9.63.3-.33.64-.64,1-.9,0,1.6-.07,3.19-.23,4.78-.06,1.39-1.06,2.77-.15,4.15.36.56.91,1.4,1.37,1.39.72,0,1.65.52,2.3-.5.78-1.24,1.77-2.35,2.64-3.54.2-.34.37-.71.51-1.08.6,1.46.7,2.62,1.31,3.34s1.73,1,2.93,1.61c-.83.46-1.27.75-1.75,1-3.78,1.68-7.59,3.29-11.34,5.05-1.13.46-2.11,1.23-2.82,2.22-2.3,4.05,6.05,4.43,7.87,4.56,6.25.49,12.55-.09,18.61-1.69,1.43-.43,2.81-1.01,4.11-1.74.77-.39,1.43-.96,1.93-1.66.65-.89,1.1-1.92,1.31-3,.05-1.21-.05-2.42-.31-3.61-.17-1.52-.06-1.67,1.43-1.89,2.6-.38,5.18-.89,7.79-1.12,2.14-.15,4.28-.19,6.42-.1ZM69.79,220.35c-.32-2.33,6.56-11.05,9.71-12.33,0,2.09-6.78,10.77-9.71,12.33ZM128.08,208.54c.19.42.42.83.57,1.27.35,1,.72,2.09,1,3.16.07.28-.09.89-.27,1-3,.91-6,1.76-9,2.62-.06,0-.15-.06-.33-.14l8.03-7.91ZM125.15,202.02c.21-.1.47-.01.57.2.04.09.05.2.03.3-.63,2.65-4.93,7.57-7.72,8.65-.19.08-.42-.01-.5-.21-.02-.06-.03-.13-.02-.19.59-4.1,5.04-7.49,7.64-8.75ZM127.37,224.81c-3.07.85-6.18,1.51-9.32,2-1.92.26-3.86.37-5.8.3-.78,0-5.48.06-2.73-1.22,3.1-1.46,6.16-3.07,9.36-4.27,3.55-1.34,7.23-2.32,10.87-3.41,1.22-.37,1.47-.15,1.55,1.07.19,2.79-.95,4.74-3.93,5.54h0Z"/>
        <path class="cls-1" d="M220.28,186.85c.73.42,1.48.8,2.26,1.12,1.44-.31,2.66-1.28,3.28-2.62.02-.13.02-.26,0-.39-.22-1.52-1.15-2.84-2.51-3.56-.54-.3-1.21-.1-1.51.43,0,.01-.01.03-.02.04-.56.93-1.16,1.84-1.74,2.76s-.49,1.72.24,2.22Z"/>
      </g>
    </g>
  </g>
</svg>