<?xml version="1.0" encoding="UTF-8"?>
<svg id="Layer_2" data-name="Layer 2" xmlns="http://www.w3.org/2000/svg" viewBox="0 0 655.6 497.85">
  <defs>
    <style>
      .cls-1 {
        fill: #f1c215;
      }
    </style>
  </defs>
  <g id="Layer_1-2" data-name="Layer 1">
    <g>
      <path d="M653.07,355.5c-.68-1.21-1.54-2.48-2.69-4-1.43-1.88-3.41-4.25-6.04-7.25-4.43-5.04-9.81-10.8-13.73-15.01-1.74-1.86-3.7-3.97-4.15-4.48-11-12.92-21.33-27.81-30.73-44.31,6.8-9.52,14.05-18.59,21.71-28.18,9.8-12.26,19.92-24.92,28.95-38.53,1.39-1.22,3.57-3.27,5.25-6.41,2.09-3.9,3.81-13.89,3.82-13.98.53-4.93-2.03-13.67-2.06-13.75-.22-.62-5.5-15.3-17.92-17.63-1.7-.32-3.4-.37-5.04-.18-6.02-.49-12.04,2.32-15.47,7.59-.25.22-.56.5-.81.73-1.17,1.03-2.63,2.32-4.09,3.97-3.97,4.48-15.8,18.48-21.37,27.57-1.04.93-2,1.96-2.88,3.12-2.45,3.19-4.9,6.39-7.34,9.6.01-.65,0-1.31-.07-1.96.03-.37.06-.76.07-1.14.2-.38.43-.78.6-1.11,1.47-2.68,3.31-6.01,4.15-10.18,1.21-6.03,1.9-12.32,2.56-18.41.51-4.67,1-9.09,1.68-13.12,2.02-11.98,4.3-24.21,6.5-36.03,1.21-6.49,2.41-12.96,3.58-19.4.06-.3.32-1.13.5-1.74.57-1.86,1.36-4.45,1.75-7.51.36-.92.63-1.88.82-2.87l5.15-26.67c.11-.55.18-1.1.24-1.66.28-3.03.66-6.21,1.08-9.58,1-8.18,2.03-16.63,1.79-25.35-.09-3.24-.24-8.66-3.55-13.83-2.74-4.28-8.23-9.4-18.78-9.51-.06,0-.11,0-.17,0-4.9,0-9.56,2.14-12.75,5.86-2.6,3.02-4.01,6.84-4.06,10.77-.59,1.15-1.36,2.69-2.04,4.56-8.04,22.31-14.78,43.62-20.03,63.34-.46,1.71-.9,3.41-1.35,5.09-2.19-8.98-4.48-18.23-7.38-27.37-1.38-4.35-4.47-7.95-8.56-9.97-5.93-2.94-13.04-3.08-20.02-.41-7.08,2.71-13.64,8.02-17.65,14-4.5-1.72-11.05-2.25-18.89,2.95-4.13,1.63-8.45,3.28-12.64,4.88-2.26.86-4.54,1.73-6.82,2.61,3.26-5.69,3.57-12.59.72-19.01-2.1-4.72-6.25-8.22-11.26-9.48-1.23-.31-2.35-.53-3.26-.7-.11-.02-.24-.05-.36-.07-1.94-1.06-4.04-1.72-6.2-1.96.57-.79,1.09-1.64,1.52-2.54.33-.48.96-1.3,1.36-1.82,1.45-1.9,2.94-3.86,4.07-6.2,1.23-1.5,2.21-3.23,2.87-5.11.51-.91,1.73-2.76,2.56-4.03,4.51-6.84,9.18-13.92,7.85-22.56-1.47-9.49-10.63-14.07-11.02-14.26,0,0-.01,0-.02,0-12.98-6.32-22.28-.35-25.78,1.9-.38.24-.89.57-1.01.63-4.23,1.85-8.75,3.26-13.52,4.74-3.81,1.19-7.76,2.41-11.83,3.95-5.97,2.25-11.85,4.69-17.55,7.04-1.25-2.62-2.78-5.07-4.36-7.43-1.15-1.72-2.6-3.21-4.29-4.4-2.49-1.75-7.78-4.43-15.27-2.65-3.69.87-10.32,3.27-13.93,9.55-.14.14-.27.29-.4.43-2.13,2.37-2.91,4.21-5.81,11.06l-.11.25c-1.7,4.02-3.24,8.2-4.67,12.47-1.65-1.03-3.47-1.89-5.44-2.59-.11-.04-.21-.07-.32-.11-2.82-4.28-6.23-8.18-9.92-10.55-3.94-2.54-14.09-7.42-24.47.94-3.59,1.53-8.59,3.5-12.07,4.75-2.58-.43-5.18-.27-7.78.46-3.5.99-5.92,2.85-7.52,4.08-.06.05-.13.1-.19.15-7.16,3.11-14.66,6.14-21.92,9.08-12.02,4.86-24.44,9.89-36.41,15.63l-.26.12c-8.55,4.03-16.62,7.83-18.82,16.96-1.22,5.06-.11,10.33,3.06,14.44,1.74,2.26,4.03,4.04,6.65,5.18l42.93,18.56c.64.28,1.29.51,1.95.7l-3.63,13.76c-2.09-.33-4.47-.37-7.12.09-5.65.99-9.54,4.41-14.42,9.15-2.46,2.38-5.3,5.32-6.62,6.83-1.14,1.31-2.27,2.66-3.38,4.06,1.72-3.4,2.24-7.31,1.45-11.07-2.64-12.49-9.29-30.59-17.65-40.82-3.62-4.43-11.02-9.68-12.47-10.69-9.43-6.57-16-8.71-22.67-7.41-4.05.79-7.3,2.66-15.12,8.7-2.73,2.11-7.51,5.92-9.49,7.79-16.83,15.9-36.25,41.92-51.94,69.61-23.08,40.72-28.86,67.71-29.65,83.18-.93,18.4,5.47,35.08,17.42,46.27-1.65.54-3.37,1.09-5.15,1.66-13.65,4.38-29.11,9.35-40.72,15.95-2.53,1.44-10.21,5.8-12.01,14.84-1.03,5.2.25,10.6,3.54,14.82,1.26,1.62,2.8,2.99,4.55,4.05l19.14,11.59c3.51,2.12,7.63,2.87,11.59,2.18l-3.28,11.15c-3.37,2.14-5.92,5.45-7.1,9.4-.33,1.1-.54,2.23-.64,3.35-1.01,2.19-1.56,4.6-1.55,7.09,0,3.25.96,6.37,2.65,9.02-.16.53-.33,1.06-.5,1.6-1.97,6.35-4,12.91-5,19.9-.39,2.73-.16,5.42.6,7.91-17.06,11.72-23.25,16.87-24.59,25.46-.74,4.73.51,9.6,3.43,13.35,2.16,2.77,5.13,4.8,8.49,5.79,1.69.5,3.34.92,4.94,1.33,2.12.54,4.31,1.1,5.71,1.64.63.27,2.25,1.26,3.32,1.91,2.69,1.65,5.48,3.35,8.79,4.43,2.02.65,3.96.93,5.79.93,7.59,0,13.49-4.74,16.64-7.28.33-.27.65-.53.93-.75,6.01-3.74,10.26-7.37,14.01-10.58,2.3-1.96,4.47-3.82,7.03-5.7,4.35-3.2,9.4-6.58,14.8-10.12-3.09,3.05-4.81,5.84-5.93,8.67-.95,2.38-1.31,4.88-1.15,7.32-.01.13-.02.27-.03.4-.48,6.56,2.9,12.7,8.5,15.86.32.31.72.71,1.02,1.02,1.61,1.63,3.43,3.47,5.97,4.95,2.33,1.36,4.61,2.16,6.36,2.7,1.62,1.48,3.54,2.64,5.65,3.4,1.84.66,3.76.99,5.67.99,2.62,0,5.23-.61,7.61-1.82,17.63-8.94,33.32-15.8,46.64-20.38,1.36-.47,2.83-1.02,4.25-1.56,1.26-.48,3-1.13,4.23-1.54h.13c2.36.04,5.6.09,9.11-1.05,2.79-.91,5.7-2.65,7.98-5.31,1.59-.53,3.67-1.22,6.42-2.11l.56-.18c2.89-.94,6.3-1.77,9.91-2.65,2.38-.58,4.79-1.17,7.22-1.83-1.93,4.64-2.16,9.67-.53,14.57,1.2,3.59,3.58,6.68,6.75,8.75.64.42,2.04,1.48,3.28,2.41,7.3,5.51,16.22,12.24,26.07,12.24.99,0,1.99-.07,3-.21,4.23-.6,8.04-2.46,17.85-7.6,2.36-1.23,5.91-3.1,6.97-3.54,37.39-15.28,93.72-30.64,133.94-36.52,1.58-.23,2.83-.36,4.15-.5,2.85-.3,5.8-.61,9.97-1.73,3.54-.95,9.06-1.48,13.94-1.95,2.48-.24,5.05-.49,7.48-.79,8.29-1.04,14.55-8.02,14.71-16.37.06-3.39-.91-6.59-2.61-9.29,32.27-.81,64.57.06,94.01,2.73,2.22.2,4.8.69,7.53,1.21,8.68,1.65,19.49,3.69,31.06-.92.64-.26,1.26-.55,1.86-.88,4.12-.83,7.76-3.18,10.22-6.52,5.51-2.44,9.44-7.73,9.95-14.01.2-2.49-.15-4.91-.96-7.13-.25-1.99-.85-3.94-1.81-5.76-1.16-2.2-2.78-4.08-4.71-5.55,1.36.59,2.73,1.11,4.1,1.55,3.09,1.01,5.98,1.51,8.66,1.51,2.98,0,5.69-.62,8.14-1.85,1.52-.42,2.97-1.05,4.32-1.88,4.32-.74,8.2-3.13,10.79-6.7,1.53-2.1,6.09-9.7.73-19.2Z"/>
      <path class="cls-1" d="M358.88,250.34l2.23-.53,1.14-3.19c1.37.87.87,2.64,1.51,3.76.25.44,2.46.55,3.52,1.43,6.37,5.31,5.23,12.42,5.08,19.92-.34,16.34-1.75,32.95-2.28,49.3l.02,49.79c-.5.67-13.59-7.55-14.47-8.34-2.23-2-2.54-6.9-2.76-9.96-1.05-14.85,1.14-33.36,1.23-48.69,0-.69-.17-2.26-.82-2.6-3.99,8.14-7.5,16.76-10.68,25.24-3.28,8.74-5.91,20.44-9.74,28.42-.38.79-1.3,2.2-2.13,2.36-.63.12-10.45-4.79-11.46-5.55-4.22-3.22-4.84-10.57-5.27-15.68-.51-6.13.26-13.28-.75-19.45-.14-.88-.42-1.33-1.13-1.85l-1.13,1.1-20.95,67.73c-12.17-6.74-16.27-16.13-9.72-29.18-1.99-.42-1.29.5-1.86,1.47-2.65,4.51-4.72,10.19-7.89,14.42-1.93,2.58-4.96,5.49-6.99,7.73-3.82,4.23-9.27,10.72-15.1,11.5-15.1,2-32.5-13.07-32.88-28.39-1.5,1.63-1.31,3.9-2.32,5.91-1.2,2.41-3.59,3.69-3.3,6.81l-1.48-.75c-.25,3.92-3.79,10.31-6.7,12.97-1.41,1.29-2.45-.68-2.3,3.49l-1.33-.58c-1.34,1.67-2.12,2.61-2.81,4.28l-1.83-.7c1.18,1.93-1.75,5.01-3.26,6.47-3.32,3.2-9.44,7.17-14.17,6.1-3.88-.88-16.17-10.06-18.87-13.31-2.14-2.58-4.15-5.94-4.86-9.25l-1.48-.49c.04.95-.22,1.82-.71,2.64-15.54,25.73-56.52,46.59-80.79,64.44-7.6,5.59-11.75,10.48-20.19,15.69-2.28,1.41-6.67,6.01-9.08,5.23-2.88-.93-7.43-4.57-11.24-6.03s-8.13-2.28-11.94-3.41c-1.95-2.5,26.11-20.14,28.29-22.2l1.63-16.69-3.49,3.28c.33,1.33-2.84,4.03-2.49,1.59,1.4-9.85,5.83-20.21,7.95-29.97l-4.95-2.97c1.93-1.17.64-4.45,2.97-4.13l-1.48-1.48c2.42-.5,3.95-3.48,5.61-5.25l1.11,1.49,1.51-3.37-1.56-.81,12.74-43.35-1.7-.99-25.96,8.87-.38,1.5-19.14-11.59c-1.49-1.91,2.33-4.04,3.57-4.75,12.62-7.18,32.68-12.82,46.8-17.56,2.1-.71,4.86-.63,6.76-1.48,1.78-.79,2.03-2.32,4.62-2.96,2.05-.51,2.51.68,3.45.54,4.86-.73,11.01-3.07,16.29-3.9,10.27-1.61,31.3-3.82,40.08,1.38,5.02,2.97,8.64,13.77,7.48,19.17-.97,4.54-13.67,16.28-17.87,19.61-3.73,2.96-7.96,5.18-11.58,8.24,6.11-1.08,13.73-.75,19.75.84,4.38,1.16,8.14,4.54,12.43,5.9,3.51-22.35,15.12-46.84,29.96-63.96,4.77-5.5,10.41-12.78,18.7-9.76,2.23.81-3.74,3.84-4.5,3.39,1.56,1.76,2.87,1.51,2.24,4.48,11.19.29,20.64,6.5,24.15,17.38l2.78,16.29c5.83-16.21,15.06-35.55,27.31-47.89,5.33-5.37,6.6-6.42,13.86-2.98l-.76,2.23c8.57,3.1,16.38,6.33,20.85,14.71,6.45,12.09,2.75,24.42,1.6,37.28l1.49,1.15,20.61-55.35c2.79-4.29,6.29-15.65,12.57-14.76,1.03.15,9.05,4.57,9.33,5.52.48,16.09-1.73,32.42-.61,48.51.08,1.11-.58,2.17,1.11,1.85l28.08-72.58c2.34.94,1.57,3.57.74,5.23ZM236.92,374.56c2.54,2.37,14.87-13.42,16.32-15.48,9.7-13.84,18.62-34.56,18.44-51.66-.05-4.89-.73-10.1-4.57-13.63-3.18-.94-10.7,8.81-12.41,11.38-9.31,13.92-23.02,45.66-19.96,62.22.48,2.58,2.04,4.57,2.18,7.17ZM202.43,305.77c-.91-.67-4.16,1.21-5.13,1.87-15.75,10.83-35.96,61.01-27.86,78.59,2.71,5.89,12.87-5.64,15.07-8.32,14.17-17.24,28.02-50.59,17.92-72.14ZM123.92,320.69c-.85-1.08-23.76,3.18-27.12,3.92-1.65.36-3.36,1-4.69,2.06l-.72-1.51-3.2,1.68-9.16,29.75c.98.89,10.86-6.17,12.51-7.31,3.03-2.11,34.28-26.17,32.38-28.59ZM61.06,429.93c-1.2-1.85,2.01-3.22,3.51-4.34,23.5-17.66,52.98-29.68,70.58-54.37-1.19-1.47-2.96-1.75-4.67-2.15-10.89-2.55-33.98,4.6-44.48,9.11-5.64,2.42-10.9,5.58-16.38,8.31-3.87,13.79-7.95,28-10.08,42.32l1.52,1.13ZM584.11,97.7l-1.48-.76c1.75,4.46-.88,8.94-1.62,13.04-3.35,18.5-6.99,37.08-10.12,55.67-1.69,10-2.21,21.36-4.15,31.02-.64,3.18-3.89,7.15-4.9,10.82-.73,2.65,1.1,4.48-2.41,5.82l2.24.74-3.41,4.08c-.91.22-6.8-3.06-8.07-3.82-14.04-8.37-16.08-21.45-20.48-36.39-4.14-14.06-6.98-28.51-11.37-42.51.33-1.2-1.12-1.46-1.56-1.05-1.47,1.38-4.67,13.76-5.26,16.47l-1.48-.76c.24,1.39.68,2.24.46,3.75-1.59,11-8.3,26.8-11.34,38.14-2.37,8.84-4.17,17.67-5.89,26.49-.49,2.53-1.55,5.35-1.95,7.96l-2.23-.76-.04,2.19c-2.57.87-4.28-1.02-6.18-1.6-.92-.28-1.92.08-2.7-.27-9.47-4.21-4.41-15.98-1.92-23.51.33-.99.75-.91-.78-.78-5.17.43-21.43,9.86-27.03,12.63-10.62,5.25-22.25,10.42-32.63,16.56-.74.44-.78,1.56-1.62,1.96-2.81,1.32-13.51-4.53-14.83-7.38-1.82-3.91-.54-8.01.24-11.96,2.13-10.74,6.96-23.08,9.87-34.41.2-.77,1.15-2.34.17-2.82-6.05,7.73-11.37,15.94-17.61,23.55-16.17,19.75-34.86,36.61-55.12,51.91-11.68-5.04-19.6-13.29-18.58-26.83l-52.74,39.28c-1.05.36-1.85-.56-2.62-1.11-2.5-1.8-12.36-11.41-11.98-14.26,3.33-12.45,7.84-24.53,11.66-36.81,4.45-14.31,8.6-32.42,14.54-46.95,1.65-4.04,3.83-8.77,7.8-10.91,1.49-.8,3.24-.82,4.48-1.5,1.34-.74,2.32-2.73,3.43-3.31,1.54-.79.73.19.79.78,1.56,14.37-.02,20.05-3.8,33.63-4.16,14.97-11.08,31.39-14.44,46.17-.21.94-.46,2.31.97,1.71,1.88-.79,9.05-6.83,11.68-8.53,6.83-4.42,13.98-8.4,20.7-13.01,2.91-.86,5.09,1.4,7.28,2.85l3.37,5.22,8.99-46.38c-3.18-.79-4.91,2.69-7.81,2.27s-11.21-8.62-11.48-11.75c-.39-4.67,18.11-13.11,22.29-14.83,21.03-8.67,66.41-19.75,77.62,7.67,1.46,3.57,1.6,7.35,2.45,11.03.27,1.15-.5,1.31,1.47,1.11l7.55-26.45c-3.42-1.43-14.61-6.88-11.66-11.71,1.33-2.18,8.12-3.63,10.48-5.24,3.13-2.14,4.18-6.86,9.35-6.74l1.12,2.24c1-1.05,2.03-2.05,3.37-2.69,14.1-6.67,30.65-12.42,45.83-18.46,1.76-.7,4.08-3.44,6.04-2.11,2.25,1.52,1.56,18.76-.41,20.84-.62.65-2.49.73-3.19,1.67l-1.1-1.49-2.03,2.83-43.99,18.87-3.71,23.08.34,3.1c1.5,1.4,32.48-15.89,37.11-17.21,5.76-1.32,5.87,9.92,4.09,12.4-.84,1.16-16.08,9.72-18.75,11.19-8.54,4.71-17.42,8.39-25.83,13.08l-1.11-1.49c.38,5.3-6.52,19.06-5.16,23.45.88,2.84,2.65.03,3.74-.55,14.88-7.9,30.63-14.12,45.71-21.66,3.72-1.68,5.78,1.47,8.82,2.49-.52-4.12,1.26-7.87,2.06-11.79,5.18-25.42,12.34-59.77,21.86-83.65,2.01-5.04,11.75-12.4,17.22-9.69,5.17,16.27,8.35,33.24,13.1,49.76,3.02,10.5,6.59,23.1,10.07,33.33.41,1.21.91,2.9,2.28,3.33,4.55-21.79,9.82-43.4,15.54-64.91,5.37-20.16,12.18-41.37,19.6-61.96,1.15-3.19,3.71-5.93,3.03-10.07,5.31.05,5.57,2.34,5.69,6.99.3,10.83-1.84,22.35-2.81,32.95l-5.15,26.67ZM366.85,200.7c7.38-7.9,16.07-17.94,22.27-26.75,1.19-1.69,5.92-8.54,5.59-9.89-1.21-2.16-6.13-3.16-8.59-3.44-11.3-1.26-22.97,2.16-33.88,4.5-4.7,19.16-7.75,38.65-9.81,58.28,8.62-7.07,16.81-14.56,24.42-22.71ZM165.63,173.08c-4.49,1.66-10.07-1.54-9.51-6.84,1.29-12.14,3.96-17.39,1.05-30.76-3.01-13.85-8.16-6.66-13.78.01-26.42,31.39-58.3,83.08-62.87,124.21-.68,6.09-.44,12.85-1.5,19.07,6.71-.07,12.66-3.38,18.18-6.88,6.88-4.36,16.27-11.77,22.57-17.09,13.99-11.81,26.31-25.73,38.56-39.27l-36.66,15.35c.14,2.53,2.42.71.82,4.41l1.42.81c-2.73.42-5.81,1.27-8.58.73-3.37-.65-3.5-4.56-5.21-6.75-.8-1.03-9.08-6.81-8.65-7.43l5.62-3.75,1.11,1.49,1.2-2.92c12.71-6.12,25.15-13.13,37.97-18.98,10.38-4.73,22.77-9.44,34.35-13.45,2.5-.87,1.69-3.09,6.07-.44,3.48,2.1,4.47,5.45,6.09,8.86,5.27-12.1,12.24-24.46,20.95-34.43,1.59-1.82,9.76-10.21,11.27-10.47,3.5-.61,3.97,2.05,7.01,2.32l.06,2.17-2.98-.75-.76,2.99c2.95-.97,3.26,1.76,4.33,2.23,2.39,1.06,7.15,1.59,10.41,2.88,47.18,18.64,9.47,85.2-18.84,104.9-11.34,7.89-20.01,4.85-29.95-3.72-17.99-15.51-13.28-37.23-5.16-56.83.45-1.1.45-2.17-.8-1.55-2.4,1.19-9.81,19.03-11.68,22.42l-2.17-.73.62,3.91c-11.8,20.15-19.67,42.04-28.7,63.42-2.84,6.72-2.45,8.63-8.6,3.39-3.37-2.88-7.04-7.1-9.51-10.57l11.01-27.97c-8.65,9.67-17.67,19.08-28.19,26.8-3.28,2.41-7.19,4.08-10.26,6.21-.71.49-1.19,1.29-1.21,2.16l-1.11-1.49-16.15,4.15c-1.83-.08-1.22-2.17-2.19-3.01-.85-.74-4.58-1.7-6.24-2.77-12.56-8.11-17.73-22.42-16.99-36.95,2.15-42.38,45.69-112.45,76.34-141.41,2.09-1.97,14.4-11.85,16.28-12.22,3.55-.69,16.39,9.16,18.9,12.24,6.51,7.96,12.1,23.64,14.22,33.66l-18.15,28.63ZM235.94,174.18c-4.31,1-11.57,12-14.01,15.91-7.59,12.16-23.62,48.13-16.35,61.27.57,1.03,1.68,1.87,2.52,2.69,17.49-11.28,36.64-39.31,38.52-60.22.71-7.88.79-22.31-10.68-19.66ZM504.59,232.63c.24.08.58,1.62,1.69,1.27l-1.49,2.22c10.35.26,20.03,3.95,25.23,13.32,16.82,30.34-9.96,81.15-36.49,98.52-5.81,3.8-11.15,1.2-16.25-2.39-5.68-4-14.71-11.12-18.01-17.16-.53-.97-2.11-6.89-3.11-6.23-3.2,6.21-9.65,10.94-15.05,15.26-14.14,11.3-30.07,20.29-44.77,30.8-1.58,1.13-3.54,3.84-5.33,4.46-2.88,1-14.23-9.91-14.25-12.74-.03-4.08,5.04-2.95,5.31-6.35-2.4-.41-5.03-3.75-5.65-5.99-1.02-3.72,2.09-19.29,2.9-24.1,2.73-16.36,6.44-32.59,9.52-48.88-.15-1.87-5.95-2.93-8.21-4.53-4.08-2.89-6.42-7.42-3.06-11.95,6-3.15,11.86-7.06,18.22-9.48,12.28-4.67,42.95-10.58,54.16-3.74,5.72,3.5,9.71,14.2,8.31,20.56-.49,2.21-8,11.94-9.94,14.02-3.51,3.76-7.95,6.49-11.59,10.09,3.97,2.05,8.19,1.81,12.21,4.24.9.54,3.94,3.09,4.72,3.89,1.19,1.22,1.79,3.51,3.25,4.22,2.48-20.11,12.58-39.54,25.47-54.98,3.31-3.96,12-13.56,16.66-14.8,1.26-.33,4.35.01,5.57.43ZM512.08,252.05c-2.59-2.15-2.78.21-3.32.53-14.73,8.7-26.95,33.11-31.27,49.39-2.48,9.35-5.13,21.59.86,30,1.58.25,5.08-2.22,6.5-3.18,16.95-11.41,37.23-49.24,30.83-69.49-.3-.95-3.26-6.97-3.6-7.25ZM438.95,259.33c-1.86-1.68-26.66,4.46-28.95,6.96-2.89,3.16-3.67,18.21-5.47,22.96l22.46-16.07c1.08-1.54,13.6-12.37,11.96-13.85ZM442.69,308.72c-15.1-4.91-30.36,1.41-43.98,7.64l-6.15,30.5c.39.44,4.81-2.47,5.63-2.97,13.52-8.37,26.71-18.27,38.91-28.43l5.59-6.74ZM516.75,380.61c-112.06-1.26-224.53,13.76-330.6,47.72-17.13,5.49-35.46,11.67-51.64,19.32-6.81,3.22-28.21,13.5-30.69,19.76,1.29.97,2.43-.14,1.85,2.32l-1.89.43c2.45.94,5.63,5.17,7.22,6.1,2.92,1.71,7.82,1.66,9.18,4.77,15.33-7.78,32.44-15.66,48.77-21.28,3.23-1.11,7.95-3.09,10.91-3.84,1.8-.45,5.44.13,7.1-.41,1.17-.38.07-2.22,1.24-2.82,1.92-.99,10.92-3.88,13.71-4.79,7.43-2.41,16.31-3.9,23.83-6.51l-1.85-1.85c5.5,2.42,7.53-.64,11.9-1.71,39.69-9.68,80.62-18.96,119.28-25.46,63.93-10.76,143.63-13.49,209.66-7.5,10.29.93,20.89,5.38,30.83,1.41l-.93-1.82,5.69.08-5.64-2.84,4.72.99-.89-2.77,8.55-.79-7.55-1.97c.93-3.7,5.59.92,6.67-1.71l-9.45-2.02,2.88-2.7-6.97-2.04-.63,1.89c-1.5.33-.41-1.46-2.07-2.17-5.41-2.29-10.63-.22-17.11-4.26-4.68-2.92-47.81-3.45-56.09-3.55ZM629.06,178.55c-1.27,2.45-4.36,4.36-6.42,6.68-5.38,6.07-16.64,19.77-20.32,26.39-.18.32.57,1.23.5,1.29-.43.34-2.08,0-3.69,2.1-10.76,13.99-21.56,28.29-32.14,42.56-.51.69-.73,1.66-.85,2.5l-1.54-.46c-2.86-5.29-5.76-11.4-8.79-16.52-2.04-3.45-6.2-11.34-8.71-13.74-2.72-2.6-16.11-8.17-19.67-8.05-1.82.06-4.64,6.15-3.62,8.09,7.61,16.6,17.78,32.43,24.91,49.22.45,1.06.66,2.3.75,3.44l-40.68,61.05c-.22.57-.25,1.11-.13,1.71.65,3.1,11.71,10.66,14.45,13.26.91-.51.83-1.17,1.08-1.93,1.05-3.14.85-4.99,2.87-8.33,8.01-13.19,20.93-30.46,30.53-42.79.86-1.1,4.41-6.07,5.53-5.3.55,1.74,1.67,3.67,2.7,5.17,13.21,19.17,38.19,55.69,59.8,62.73.8.26,3.65.93,4.11.57l-1.49-1.87,4.5.73-.37-1.5,6.34-.75c1.18-1.63-22.48-26.11-25.08-29.16-13.14-15.43-24.82-32.9-34.65-50.65-.91-1.65-1.87-3.35-2.39-5.18-.07-1.25,3.87-6.95,4.95-8.47,16.52-23.24,35.97-44.27,51.61-68.12.94-1.44,2.88-2.44,3.64-3.84.19-.36,1.87-7.37,1.92-7.84.03-.32-1.03-5.91-1.2-6.39-.61-1.74-3.44-6.35-5.17-6.68l-.37,1.5-2.94-1.44ZM350.07,24.54c-.44.81.13,2.27-.27,2.73-.24.28-1.52-.2-2.19.55-.27.29-2.49,5.57-2.94,6.63-4.97,11.71-8.64,26.05-12.5,38.38-1.14,3.63-1.16,10.13-4.49,11.97-4.17,2.3-12.19,3.31-16.66,6.15-.87-1.16,4.99-17.73,5.77-20.79,1.62-6.39,4.87-13.67-3.28-16.54l-2.44,3.2-1.55.46c-.78-4.42-6-13.62-9.77-16.05-4.13-2.66-4.31.31-7.28,1.62-4.37,1.92-15.36,6.34-19.61,7.39-1.83.45-2.56-1.16-3.75-.82-.84.24-2.98,2.33-4.49,2.99-19.4,8.47-39.82,15.8-58.87,24.94-1.07.52-10.83,4.99-9.97,6.11l42.93,18.56,3.43-3.22c-4.18-4.13-5.77-10.61-11.19-13.47l10.5-5.22,22.05-7.88-16.91,63.99c-.1.92.35,1.54.78,2.28.47.8,12.17,12.5,13.09,13.09.91.59,1.5.94,2.65.71,4.3-28.16,10.46-55.9,19.14-83,1.68-3.04,8.65-3.27,12.12-4.35,4.34-1.35,8.78-2.75,12.89-4.69-6.14,18.23-13.91,35.94-19.23,54.47-2.1,7.3-3.29,14.89-5.11,22.22l4.63,5.55,9.99-5.53,6.68-24.58,20.26-9.47c1.16,1.25-6.38,23.47-5.97,27.99.19,2.04,5.38,9.88,7.08,10.99,3.66,2.39,6.68-6.55,7.46-9.08,6.41-20.68,11.31-44.08,17.08-65.23,1.84-6.75,4.97-21.26,7.19-25.88,3.91-8.12,2.54-11.51-2.29-18.73-1-.7-4.61.91-4.95,1.54ZM422.99,20.75c-8.75,3.83-17.55,5.77-26.16,9.01-11.92,4.5-23.58,9.79-35.51,14.25-1.9,3.61-.21,6.38,1.72,9.48,1.38,2.22,3.54,1.96,3.18,5.44-.44,4.27-4.45,14.11-5.98,18.87-.52,1.61-.91,2.84-1.29,4-3.88,11.93-8.34,23.7-11.97,35.72.02,1.18,1.35,3.57,2.16,4.49,1.22,1.39,9.31,7.18,10.68,6.99,18.63-8.77,37.62-16.92,55.94-25.09.45-.2.58-1.35.88-1.57s4.69,1.21,6.17-2.4c.18-.44.43-3.26,1.1-4.16.54-.72,1.91-.84,2.21-1.25s-.84-2.39.3-3.39c.66-.58,3.96-1.54,5.23-2.43.72-.5.95-1.52,1.78-2.13,2.91-2.12,8.32-3.23,6.11-8.21-2.8-.7-5.85-.87-7.58-2.32l-40.46,20.95-1.2,2.92-.76-1.47-23.68,11.84c-1.18.6-1.44-1.14-1.4-1.78.08-1.37,3.63-13.29,4.34-14.79.27-.57,4.24-3.93,4.81-4.19,10.62-4.8,22.28-6.92,32.92-13.43,4.11-2.52,4.8-3.07,5.07-8.24.13-2.63-.24-4.95-3.52-4.46-1.73.26-8.11,3.44-10.46,4.42-1.76.74-5.38,2.88-7.14,3.61-2,.83-14.68,6.22-15.49,6.05-1.68-.35.08-5.14.41-6.32.86-3.07,2.06-7.52,3.1-10.37.53-1.46,1.55-2.72,2.3-4.06,12.87-3.55,25.79-9.29,39.44-7.28.95-2.33,4.77-6.42,5.48-8.13.98-2.36-1.77-2.41,2.09-3.22,1.18-4.31,10.26-14.63,9.67-18.46-.02-.12-1.67-1.67-1.78-1.72-6.16-3-7.96.75-12.69,2.82ZM448.55,426.98c-2.11-.06-6.31-.44-9.94.58l1.94-2.72c-9.63-.21-19.33-.1-28.94.43-11.17.62-23.3,2.15-34.34,2.99-5.4.41-17.59.2-21.56,1.6-.99.35-.66,1.71-.75,1.76-.55.33-1.29-1.35-2.25-1.44-7.17-.67-21.49,3.67-28.14,5.06-23.47,4.93-53.99,12.04-75.07,22.99-3.58,1.86-11.43,5.68-9.85,10.43,4.68,3.06,15.38,12.64,20.78,11.87,2.91-.42,16.51-8.29,20.84-10.06,38.61-15.78,96.53-31.55,137.87-37.6,5.4-.79,7.71-.64,12.21-1.84,6.98-1.86,16.38-2.26,23.65-3.17l-3.72-.61c-.91-.15-1.82-.25-2.74-.27Z"/>
    </g>
  </g>
</svg>