<?xml version="1.0" encoding="UTF-8"?>
<svg id="Layer_2" data-name="Layer 2" xmlns="http://www.w3.org/2000/svg" viewBox="0 0 347.04 367.34">
  <defs>
    <style>
      .cls-1 {
        fill: #7bad4b;
      }

      .cls-2 {
        fill: #ffb243;
      }

      .cls-3 {
        fill: #fff;
      }

      .cls-4 {
        fill: #9a5034;
      }
    </style>
  </defs>
  <g id="Layer_1-2" data-name="Layer 1">
    <g>
      <g>
        <path d="M347.04,172.91c-.11-9.49-4.6-17.97-11.83-22.61,3.84-4.25,5.72-9.79,5.23-15.79-.52-6.37-4.25-11.7-9.98-14.25-1.57-.7-3.22-1.16-4.88-1.38.27-.41.53-.84.78-1.27,1.86-3.22,4.01-8.82,3.93-13.99-.03-2.01-.53-8.79-5.76-11.52-1.59-.84-3.38-1.14-5.12-.92.57-1.89.89-3.79.91-5.58.05-4.24-.82-8.18-2.51-11.62.86-.27,1.7-.66,2.46-1.18,2.95-2.01,4.48-5.58,3.91-9.11-.9-5.5-3.02-11.03-5.97-15.58-3.67-5.66-8.5-9.65-13.96-11.54-7.12-2.46-18.33-2.74-26.1,2.48-.2.13-.55.38-.98.7-1.18-3.49-2.95-6.58-5.3-9.15-2.92-3.2-8.64-6.95-12.16-8.46-5.04-2.16-11.04-3.32-17.85-3.45-1.74-.03-3.4.45-4.82,1.32-8.48-6.72-18.61-11.97-29.81-15.38-13.95-4.25-29.23-5.62-44.18-3.95-13.23,1.48-25.84,5.33-36.48,11.16-6.09,3.34-11.46,7.24-16.06,11.65.2-2.08-.41-3.73-.82-4.58-1.04-2.13-3.78-5.57-10.51-4.81-10.43,1.19-21.4,8.73-26.2,17.96-1.79-1.66-3.95-2.98-6.43-3.89-5.89-2.14-12.83-1.56-18.1,1.51-.12.07-.24.14-.35.22-3.51,2.3-5.05,6.44-3.84,10.3,1.21,3.86,4.84,6.37,9.05,6.26.34,0,.67-.02,1.01-.04.32-.02.74-.03.94-.03,0,0,.02,0,.03,0,.08.04.22.13.39.27.07.06.14.12.21.18.61.5,1.25,2.04,1.87,3.53.26.62.55,1.32.89,2.06-.07-.01-.14-.03-.21-.04-2.16-.45-4.86-1.01-7.95-.72-9.22.87-14.13,10.15-14.07,18.44.05,6.87,3.39,12.32,8.47,14.45-.42-.17-.85-.36-1.15-.54-5.92-3.63-13.11-4.23-20.2-1.89-3.47.95-9.28,4.09-9.35,10.18-.04,3.45,1.98,7.64,7.75,9.1.04,0,.07.02.11.03.04,0,.06.02.06.02.65.38,1.86,3.01,2.51,4.43.74,1.6,1.57,3.42,2.65,5.14,1.01,1.6,2.11,2.89,3.09,4.03.41.48.8.93,1.12,1.34.06.08.12.15.19.23,0,0,0,0,0,.01.2.36.46.83.82,1.35-.05.34-.1.67-.14,1.01-5.81-1.02-11.7.23-16.82,3.68-7.82,5.28-12.6,14.88-12.26,24.56-.06,2.23.33,5.85.79,8.53.62,3.62,1.9,11.15,8.63,12.49.84.17,2.11.29,3.54,0-2.55,3.99-4.44,8.41-5.62,13.2-2.07,8.45-1.71,17.74.94,26.89-.48.01-.97.04-1.45.07-4.09.13-8.77,2.65-9.88,7.37-.82,3.47.53,7.99,5.41,10.23.09.04.19.08.28.12.3.57.73,1.8,1.02,2.66,1.17,3.4,2.93,8.54,8.06,12.23.13.1.27.19.41.27,3.08,1.94,4.01,2.91,5.4,5.88-1.62-.18-3.28.08-4.81.79-3.52,1.65-5.53,5.26-5.17,9.26.62,10.3,6.89,20.11,16.43,25.67,5.68,3.61,11.55,4.18,16.85,3.98-3.11,7.61-2.5,17.22,1.8,24.6.71,1.28,1.86,2.84,3.03,4.12,2.53,2.77,5.22,4.17,8.03,4.17.68,0,1.37-.08,2.07-.25,1.13-.27,2.34-.82,3.41-1.7.01,3.36.74,6.56,2.17,9.28.02.03.03.07.05.1,2.81,5.17,8.45,8.37,14.35,8.22.03,0,.06,0,.09,0,1.42-.06,2.74-.4,3.91-.98.06.15.12.3.18.44.07.17.15.35.24.52,3.13,6.28,8.65,5.37,9.73,5.13.11-.02.24-.06.38-.1.1.49.22.97.36,1.45,1.41,5.12,5.04,8.32,9.26,8.32.39,0,.79-.03,1.19-.08,1.83-.26,3.66-1.15,5.02-2.68,1.56.98,3.53,1.48,5.71,1.15.11,3.38,1.14,6.58,3.01,9.07,3.86,5.58,11.24,6.85,15.34,5.95,4.53-.99,6.57-4.37,6.97-7.2.17-1.21.36-4.96-3.15-7.86,0,0,.01,0,.02,0,1.25-.56,2.69-1.2,4.17-2.1.64,3.58,2.18,7.7,5.8,10.86.15.13.26.23.42.34l.1.08c1.13.9,4.13,3.31,8.23,2.55,2.42-.45,4.52-1.93,5.77-4.06.07-.12.14-.24.2-.36,3.6,5.98,9.64,10.38,16.28,11.39.39.06.79.09,1.18.09.54,0,1.08-.05,1.61-.16.04,0,.08-.02.11-.02,3.18-.68,5.61-3.03,6.35-6.15.07-.31.13-.62.17-.91.15.06.3.12.45.17.8.27,1.63.41,2.47.41,2.52.02,4.81-.91,6.77-2.78.47,1.05,1.07,2.16,1.84,3.28.07.1.14.21.22.31,1.07,1.41,2.4,2.35,3.33,2.89,4.33,2.49,7.81.91,9.11.11,2.67-1.65,4.16-4.64,3.89-7.81-.06-.65-.18-1.28-.38-1.92,1.36.14,2.77-.06,4.08-.64,1.93-.85,3.61-2.17,4.96-3.85,2.96,3.87,7.74,6.28,13.13,6.48,6.37.23,12.11-2.75,14.96-7.79.93-1.64,1.25-3.56.9-5.42-.15-.83-.43-1.61-.81-2.34,1.42.07,2.87-.22,4.18-.89.23-.12.46-.25.68-.39.55-.35,1.2-.86,1.84-1.56,1.47,2.98,3.91,5.91,8.26,7.32.08.03.17.05.25.08,1.49.43,3.21.7,4.99.7,3.64,0,7.53-1.13,10.17-4.35.16-.2.32-.4.46-.62.98-1.46,1.49-3.13,1.47-4.84,0-.55-.07-1.1-.18-1.63-.43-2.04-1.59-3.79-3.32-5,3.65.56,7.39-1.38,9.35-5.08.05-.09.09-.18.14-.27,1.01-2.08,1.64-4.16,1.87-6.2,3.66.99,8.19,1.04,13.36-1.83.07-.04.15-.08.22-.13,5.56-3.32,8.32-9.79,6.87-16.1-.61-2.65-1.86-4.97-3.57-6.82.15,0,.29,0,.44,0,4.18,0,8.28-.93,11.81-2.86,1.55-.85,3.65-2.52,5.36-4.27,3.68-3.76,5.05-7.55,4.06-11.26-.76-2.85-2.74-5.05-5.44-6.03-1.63-.59-3.29-1.04-4.76-1.19,1.46-.33,2.98-.86,4.67-1.72,3.98-2.02,6.24-4.87,7.6-6.84,3.36-4.89,5.51-10.71,6.21-16.85.36-3.14.38-6.04.08-8.86-.66-6.07-4.1-12.43-7.14-18.04-.37-.68-.72-1.33-1.06-1.97,0,0,0,0,0,0-1.56-2.92-4.59-4.54-7.72-4.39-.78-3.01-1.48-5.99-1.94-8.81,2.7,1.15,5.69,1.36,8.58.59,7.04-1.89,11.31-8.94,12.46-11.05,2.8-5.18,3.61-10.18,4.19-14.85.04-.33.06-.66.06-.99v-1.16s0-.06,0-.09ZM46.37,85.1c-.06.11-.03.05,0,0,0,0-.14-.04-.35-.11.12.04.23.08.35.11.03-.06.06-.12,0,0Z"/>
        <polygon points="46.37 85.1 46.37 85.1 46.37 85.1 46.37 85.1"/>
      </g>
      <g>
        <path class="cls-3" d="M339.03,173.01v1.16c-.54,4.33-1.19,8.15-3.29,12.04-2.03,3.75-6.88,9.41-11.58,6.53-3.13-1.91.12-5.26.06-8.29-.12-5.63-5.63-6.39-8.37-1.47-8.72,15.62,6.98,40.37,5.35,56.58-.95,9.39-13.53,12.38-20.66,7.89-6.47-4.07-4.11-10.72-4.53-17.2-.58-8.96-5.11-22.52-8.72-30.85-1.03-2.36-2.23-5.02-3.87-6.98-1.38.01-1.42,8.26-1.35,9.5.63,11.71,4.75,22.03,8.24,32.88,1,3.11,3.26,10.25-1.84,10.79-3.56.38-10.43-3.53-14.06-4.96-2.11-.83-7.11-1.63-8.19-3.44-1.74-2.91.95-4.9,2.08-7.53,5.59-13.04,5.72-41.58,1.56-55.1-.66-2.14-2.94-5.77-3.08-7.32-.46-5.07,8.11-3.48,11.1-3.04,15.21,2.26,12.68,7.56,15.61,20.07.88,3.73,1.97,7.46,3.3,11.05s8.59,20.71,8.16,6.96c-.51-16.32-9.58-32.91,7.62-44.34,12.87-8.55,26.31.58,26.48,15.06Z"/>
        <path class="cls-3" d="M105.29,136.53l6.56,3.71c12.13,8.88,9.67,25.2,27.44,31.51,11.67,4.15,31.4.33,38.02-11.05,1.12-1.93,2.28-7.34,5.7-4.39,4.11,3.54,1.95,11.55-.98,15.32-8.6,11.03-37.9,12.54-50.96,11.84s-27.3-4.96-29.95-19.69c-1.18-6.57.88-17.91-5.78-22.15-1.66-1.06-7.51-2.26-8.21-.19s.99,10.13,1.6,12.63c.99,4.05,4.67,11.63,4.91,14.9.09,1.27-.66,2.93-1.57,3.8-3.79,3.58-12.8.15-17.6-.15-5.06-.31-10.2.75-14.91,2.52-3.42,1.29-13.25,7.24-15.69,7.19-4.34-.09-3.21-4.03-1.53-6.58,6.63-10.07,21.02-10.01,27.6-21.26,4.43-7.57,8.27-27.3,5.78-35.52-2.37-7.82-8.54-5.1-7.86,2.05.35,3.72,4.61,4.33,1.19,8.53-5.25,6.44-13.82.52-15.89-5.84-8.19-25.21,32.87-31.73,49.74-27.67,24.36,5.86,25.89,32.85,2.39,40.5ZM93.17,106.35c-1.65.34-3.15,2.07-3.84,3.53-1.5,3.19-2.07,10.84-1.87,14.42.3,5.34.78,6.47,6.3,4.38,6.83-2.59,9.43-11.25,6.56-17.64-1.21-2.69-3.97-5.34-7.16-4.69Z"/>
        <path class="cls-3" d="M297.06,92.4c-2.04-2.01-5.67-1.65-8-.27-4.33,2.57-9.11,10.08-12.82,13.95-2.2,2.3-4.64,4.27-6.99,6.39,7.52-.09,14.65,2.16,17.84,9.5,3.64,8.36,3.46,28.39,14.32,31.45,2.32.65,7.27-.07,6.53,3.4-.39,1.83-6.01,5.54-7.8,6.18-6.48,2.3-9.09-1.53-14.62-3.36-4.55-1.5-11.78-1.48-13.73-6.82-2.91-7.93.28-26.62-4.84-32.02-2.71-2.86-8.4-2.39-9.6,1.67s.02,11.06,1.77,15.1c1.87,4.34,10.56,12.82,6.67,17.79-2.62,3.34-7.71,1.54-11.06,1.36-5.01-.28-9.09.22-13.96.38-3.91.13-8.2.2-7.08-5.15.45-2.15,3.16-6.79,4.06-9.51,4.52-13.58,6.68-36.13-.46-48.99-2.47-4.43-6.5-7.1.31-10.93,4.38-2.46,16.94-6.44,21.77-6.13,2.68.17,6.79,1.68,6.25,5.05-.41,2.58-4.82,9.34-6.12,12.54-1.59,3.92-4.02,11.08-2.55,15.11.67,1.85,3.07.88,4.3.22,10.66-5.68,8.69-28.47,22.07-37.28,11.87-7.82,29.19-2.23,28.99,13.48-.07,5.5-5.38,14.27-11.43,14.12-6.51-.15-1.47-4.92-3.83-7.23Z"/>
        <path class="cls-3" d="M169.64,215.7l4,1.62c10.5,6.14,4.93,22.59,14.24,29.21,8.67,6.17,26.63-.83,36.34-2.76,17.14-3.42,43.74-3.8,53.49,13.73,8.47,15.23-.31,35.49-19.38,30.27-7.24-1.98-11.54-11.11-6.12-17.15,4.63-5.16,4.42,2.23,8.43,2.84s7.08-4.39,7.1-7.88c.03-6.6-4.86-11.59-10.62-13.85-26.25-10.29-53.27,22.11-77.41,8.81-11.29-6.22-10.88-16.78-12.9-27.84-.64-3.52-1.55-11.4-5.93-11.94-4.73-.59-3.9,5.02-3.64,8.33.66,8.35,4.33,10.78,6.66,17.4.75,2.12,1.04,4.15-1.26,5.48-2.42,1.39-12.48,1.55-14.83.17-1.75-1.03-3.3-5.74-3.85-7.79-1.7-6.29.63-10.5,1.55-16.52,1.25-8.21,1.61-24.53-3.21-31.49-1.67-2.41-4.56-3.75-2.91-7.53,2.5-1.88,5.95-1.09,8.75-1.43,10.01-1.22,27.77-6.32,33.99,4.78,5.76,10.26-1.87,21.55-12.48,23.56ZM162.97,192.88c-2.58.26-4.27,1.99-4.93,4.4-.71,2.57-1.26,10.27-.8,12.78.39,2.11,4.7.36,5.96-.24,8.02-3.83,7.8-17.74-.23-16.94Z"/>
        <path class="cls-3" d="M70.54,210.52c-3.26-3.27-1.54-12.07,3.2-12.66,2.36-.3,6.63,3.02,7.12-2.58.37-4.24-3.07-7.27-7.16-7.16-22.26.61-24.15,52.34-2.03,49.21,4.05-.57,8.25-5.2,5.88-9.18-1.83-3.08-4.57-.52-6.91-.81-4.37-.54-6.44-10.28.39-11.21,4.82-.66,8.38.45,13.64-1.09,2.71-.79,11.33-5.14,11.7.49.17,2.6-4.4,8.4-5.6,11.43-4.79,12.17-.52,27.5-8.02,38.54-2.19,3.22-9.34,9.44-13.14,5.92-2.57-2.38,1.49-4.67,2.9-6.46,3.3-4.19,5.21-9.75,5.26-15.1-2.19,3.02-3.95,5.74-7.24,7.68-8.93,5.26-19.62,1.3-26.29-5.74-24.06-25.42-2.47-81.15,33.93-73.17,20.15,4.42,15.42,32.47-1.42,33.53-2,.13-4.73-.15-6.21-1.63Z"/>
        <path class="cls-3" d="M208.32,84.64c7.53-.77,16.28.04,21.17,6.52,6.68,8.85,2.25,25.64-10.04,25.99-5.52.16-10.97-4.95-6.92-10.05,3.58.26,7.18.44,7.51-4.15.5-6.85-7.92-8.06-12.6-4.45-11.23,8.68-13.41,35.99,4.3,37.19,4.62.32,10.45-2.72,12.08-7.21.72-1.99.29-4.84,3.07-5.46,7.75-1.75,9.64,7.48,8.99,13.27-2.26,20.06-24.47,34.17-42.34,21.13-21.6-15.77-16.5-69.6,14.78-72.78Z"/>
        <path class="cls-3" d="M121.87,229.76c-.99-.85-4.92-.51-6.22-.01-3.64,1.42-3.68,8.04-3.37,11.36.7,7.55,6.41,12.85-5.03,15.15-2.7.54-8.03,1.31-10.69,1.36-7.4.13-5.58-7.13-3.61-11.79s4.51-8.54,6.25-13.92c2.36-7.28,6.89-22.77,7.25-29.99.06-1.3-.55-8.2-2.67-5.01-1.11,1.68.36,5.31-4.32,4.27-6.06-1.35-7.01-17.67,1.41-18.82,7.5-1.02,17.3,4.82,25.56,5.78,3.19.37,7.32-.94,9.18,2.83,1.5,3.03-.45,4.83-1.13,7.57-2.88,11.47-.26,26.22,3.02,37.5.95,3.26,3.68,8.3,4.14,10.99.73,4.33-1.41,6.28-5.53,6.7s-8.72.05-12.8.4c-3.47-.64-3.52-2.93-3.24-5.98.44-4.81,2.73-10.7,2.67-15.57,0-.52-.57-2.55-.88-2.81ZM117.97,199.84c-1.9.53-3.98,8.7-4.42,10.73-.82,3.85-2.33,8.74,3.17,9.38,1.1.13,5.62.2,5.98-1.02-.82-5.46-.04-12.79-2.73-17.75-.51-.93-.64-1.73-2-1.35Z"/>
        <path class="cls-3" d="M198.24,168.08c32.07-3.04,39.01,44.72,20.82,63.92-6.27,6.62-17.74,12.32-26.95,9.9-11.05-2.9-5.09-13.72-3.66-21.15,1.99-10.31,2.85-27.75-3.92-36.46-2.28-2.93-5.89-3.52-2.3-8.19s10.19-7.48,16.01-8.03ZM203.28,180.08c-1.95.19-2.72.92-2.99,2.86-.87,6.31.03,16.12-.02,22.88-.02,3.12-.62,6.37-.42,9.7.26,4.17.2,7.3,5.19,5.16,10.19-4.35,11.1-18.42,8.97-27.89-1.12-5-4.36-13.35-10.74-12.72Z"/>
        <path class="cls-3" d="M245.92,161.87c6.3-.56,14.33.3,17.73,6.46,2.44,4.42,1.49,14.22-4.98,12.74-2.8-.64-2.84-6.19-7.23-7.11-5.56-1.17-7.98,3.26-8.18,8.15-.08,2.09.15,6.96,2.62,7.51,3.52.79,3.85-3.12,6.17-4.52,7.56-4.55,6.59,15.3,2.58,16.56-3.37,1.06-3.45-3.64-5.83-4.13-6.23-1.28-7.34,14.69-2.18,17.72,4.16,2.44,10.59-1.09,13.1-4.62,1.17-1.66,2.94-8.02,6.02-5.6,2.36,1.85,1.52,11.69,1.13,14.7-1.04,7.89-3.6,17.8-13.32,17.31-6.6-.33-10.19-2.46-17.79-1.5-2.41.3-10.06,2.9-11.29.34-.5-3.85,2.54-7.46,3.97-11.16,4.4-11.34,6.92-36.33.64-47.01-1.81-3.07-6.27-4.79-1.83-8.51,4.57-3.83,12.76-6.8,18.66-7.32Z"/>
        <path class="cls-3" d="M100.25,89.96h-8.33c-.12,0-1.93-.81-2.12-.98-2.46-2.15,1.62-10.05-.89-12.89-4.4-1.83-5.54,1.31-5.32,5.13.24,4.24,3.27,6.93-1.95,8.92-2.32.89-9.06,2.57-8.51-1.51.29-2.18,1.67-5.41,2.13-7.98.67-3.76,1.23-8.44.96-12.23-.23-3.15-2.32-7.25-.56-9.88,2.36-3.54,8.22-2.81,8.71,1.72.3,2.79-2.65,9.38,1.5,10.08,7.51,1.25,1.14-11.17,2.66-14.44s14.83-4.18,12.39,2.31c-3.65,9.71-4.68,15.08-2.01,25.54.54,2.1,2.09,4.19,1.36,6.21Z"/>
        <path class="cls-3" d="M56.44,68.29c-4.55-.59-2.81,4.45-3.3,6.46-.36,1.5-2.2,2.9-3.77,2.77-7.49-.6-6.14-17.1,1.87-17.86,3.32-.31,6.49,1.1,9.7,1.2,2.92.09,6.71-1.29,9.31-.78,3.92.76,4.4,12.08,3,15.01-2,4.19-3.39-3.54-3.77-4.53-1.33-3.46-4.81-3.87-5.23-.21-.39,3.37.55,8.27,1.76,11.45,1.49,3.93,6.83,8.59,2.01,11.72-2.02,1.31-7.82,4.23-10.08,5.04-2.7.97-5.57.68-6.05-2.63-.75-5.24,2.66-7.99,4.3-12.31,1.78-4.71,2.2-10.66.26-15.33Z"/>
        <path class="cls-3" d="M110.44,65.23c-.91,1.06-1.26,3.64.05,4.57,2.05,1.47,3.58-1.17,4.99-.75,1.9.56,1.72,5.27.28,6.37-1.62.85-2.74-1.64-4.78-.93-2.5.87-.63,6.96,3.81,6.95,5.38,0,4.73-5.97,6.66-6.55,6.13-1.84,5.78,7.37,4.45,11.05-3.51,9.68-16.79,8.77-22.16,1.48-4.43-6.01-5.56-23.38.97-28.13,4.37-3.18,17.25-3.28,18.03,3.68.15,1.38.16,3.51-1.26,4.19-2.23,1.06-2.82-1.43-4.42-2.37-1.8-1.05-5.19-1.22-6.61.44Z"/>
        <path class="cls-3" d="M151.73,90.47c8.87-.69,17.63,3.23,21.96,11.16,9.55,17.52,4.04,62.76-20.91,65.17-42.6,4.12-34.62-73.72-1.04-76.33ZM153.25,101.69c-11.11,2.28-16.25,29.97-7.23,37.33,4.87,3.97,10.24,1.52,13.31-3.3,4.36-6.85,5.18-19.37,2.57-26.95-1.22-3.53-4.39-7.95-8.65-7.08Z"/>
      </g>
      <g id="leaves">
        <path class="cls-1" d="M299.1,119.46c2.33,6.34,1.46,11.55,5.11,17.59,4.56,7.54,15.58,13.05,22.19,4.5,5.64-7.3-4.13-14.08-7.91-8.31-1.46,2.22,0,3.19-.43,4.6-.78,2.56-2.41-1.28-2.57-2.36-1.77-11.4,16.04-11.79,16.97-.31,1,12.35-13.34,18.05-23.29,13.22-3.82-1.85-8.85-7.73-10.52-11.59-3.29-7.61-.45-15.69-7.8-21.87-.9-.75-7.07-3.75-5.7-5.16,5.72-.13,10.7,3.16,13.57,7.97,1.14.58,9.27-2.87,10.46-4.29l-6.88,2.03c-2.08.31-3.75.48-2.91-2.11.75-2.32,4.57-6.43,6.97-7.01,5.73-1.39,12.1,1.42,13.68-7.07,1.6-1.07,2.22,3.47,2.24,4.46.05,3.07-1.32,7.21-2.86,9.86-4.63,8.03-12.04,8.89-20.32,5.86Z"/>
        <path class="cls-1" d="M323.5,277.24c-.44-1.64-2.73.54-3.38.83-2.41,1.07-5.04,1.14-6.92-.91-1.8-1.96-2.58-4.76-3.34-7.24-.54-1.73-1.02-3.49-1.72-5.17-2.14-5.08-8.3-8.39-13.71-7.82-1.04.11-1.56,1.27-.96,2.12.64.89,1.63,1.7,2.27,2.18.52.39,1,.84,1.43,1.33,3.55,4.09,5.32,8.08,6.97,13.47-.31.47-.95-.64-1.1-.84-3.26-4.33-4.09-7.41-8.22-11.56-.82-.82-1.35-1.88-2.19-2.57-.88-.73-2.2-.01-2.15,1.12.34,6.96.59,13.44,6.28,18.54,5.34,4.78,14.8,6.48,21.22,2.97,1.44-.79,6-4.65,5.52-6.44Z"/>
        <path class="cls-1" d="M254.41,260.05c-.6-.56-3.14-1.31-4.07-1.55-6.13-1.6-11.06-1.55-15.19,3.69-2.94,3.73-2.29,7.85-4.66,11.72l-1.78-4.22c-1.9-3.56-5.69-3.86-9.34-4.07-.29-.02-.44.35-.22.54,1.41,1.2,2.79,2.16,3.91,3.74,1.61,2.28,3.09,7.71,4.31,8.88.65.63,2.81,1.12,3.69.96,1.29-.22,2.06-3.65,3.29-4.88,2.34-2.34,6.78-1.98,9.67-4.29,3.15-2.52,3.16-6.65,7.13-8.39.82-.36,1.85-.55,2.81-.8.56-.15.83-.82.49-1.29-.01-.02-.03-.03-.04-.04Z"/>
        <path class="cls-1" d="M331.63,234.55c-.55-5.14-4.51-11.85-7.3-17.1-.17-.31-.64-.12-.53.22,3.7,12.08,6.97,26.94-1.68,36.4-2.21,2.41-6.02,4.26-9.33,3.74-.59-.09-1.07.56-.78,1.08.58,1.03,2.34,1.36,3.56,1.43,2.65.16,4.17-.04,6.52-1.24,2.11-1.07,3.47-2.56,4.62-4.24,2.7-3.92,4.31-8.48,4.85-13.21.26-2.33.33-4.69.07-7.1Z"/>
        <path class="cls-1" d="M94.07,43.72c-.15.2-.3.4-.45.59-1.37,1.74-3.75,4.96-5.77,5.88-1.52.7-1.94-1.18-2-3.28-.07-2.5.38-4.98,1.23-7.33l2.13-5.89c-3.36,3.39-5.39,7.76-5.25,12.63.07,2.27.99,4.47.79,6.77-2,.5-3.69-1.82-4.58-3.37-7.35-12.82,8.12-26.3,19.93-27.65,5.47-.63.2,3.13-.79,4.65-1.95,3.01-1.07,4.74-1.43,7.88-.37,3.27-1.86,6.46-3.81,9.11Z"/>
        <path class="cls-1" d="M74.67,52.2c1.67,2.07-1.95,2.6-3.23,2.35-6.53-1.85-5.46-9.79-10.49-13.89-1.24-1.08-2.8-1.93-4.39-2.15-1.09-.2-2.28-.06-3.47-.03-1.3.04-1.65-1.16-.6-1.85,5.74-3.35,15-1.8,17.42,4.91,1.42,4.26.03,8,4.71,10.6l.05.06Z"/>
        <path class="cls-1" d="M298.5,50.1c.37.07.75.15,1.14.27.22.07.54.08.59-.14.05-.21-.22-.35-.43-.4-6.1-1.55-12.41-1.29-17.38,3.06-7.94,6.52-9.17,13.96-20.54,17.47-10.98,3.38-16.95,2.9-27.67,8.74-2.16,1.18-5.73,4.93-8.03,2.43-1.16-1.27,1.05-4.56,1.56-6.19,1.48-4.78,1.48-7.79-.49-12.48-.94-2.25-2.33-4.28-3.91-6.11-.55-.63-5.22-5.58-5.66-4.85-.14.22.03.5.2.71,4.32,5.45,10.49,11.07,9.04,18.9-.61,3.39-3.09-1.96-3.61-2.4-4.65-3.89-8.34-4.18-12.79-9.7s-3.77-9.58-6.87-14.56c-.51-.82-1.54-1.35-2.26-2-1-.91-.26-2.58,1.09-2.48,11.7.81,25.87,4.82,30.17,16.87,2.05,5.74,2.23,12.27-.37,17.8,5.82-2.59,10.45-4.38,16.65-6,6.25-1.63,14.14-1.34,16.44-8.77-1.79-.29-1.62-2.44-2.89-4.08-1.77-2.27-5.01-3.4-7-5.41-3.9-3.93-4.33-8.99-5.88-13.9-1.19-3.79-1.43-4.7-4.88-6.75-.36-.22-2.23-.93-3.5-1.72-.79-.49-.42-1.71.51-1.69,4.98.09,10.31.86,14.84,2.8,2.71,1.16,7.41,4.32,9.4,6.5,5.91,6.48,5.65,16.85,3.68,24.84,3.68-3.38,5.88-8.79,9.29-12.24.49-.49,2.99-2.43,3.68-2.9,5.06-3.39,13.39-3.5,19.02-1.56,8.15,2.82,13.27,12.44,14.64,20.83.17,1.02-.93,1.76-1.82,1.23-2.24-1.33-3.94-3.62-6.74-4.47-4.18-1.27-8.02.45-12.2-.2-4.62-.72-7.73-5.64-12.69-5.34-.53-2.44,2.58-4.21,4.55-4.96,2.51-.95,5.17-1.26,7.84-1.3,1.21-.02,2.22-.03,3.3.16ZM265.34,52.91c.01.08.02.17.03.25.22,1.78-.12,3.5-.04,5.25-.01-.27.33-.63.43-.87.19-.48.29-.99.35-1.5.66-5.91-2.46-12.32-6.17-16.7-.15-.18-.9-1.23-1.15-.78,1.64,3.12,3.63,6.04,5.09,9.25.73,1.62,1.22,3.35,1.46,5.11Z"/>
        <path class="cls-1" d="M146.28,263.11c-9.92,3.54-20.29.42-30.47,1.15-9.59.96-23.19,5.39-27.01,13.79-1.02,2.4-1.26,4.96-1.17,7.53,0,.52.11,1.24-.06,1.22-7.11-7.63-18.28-9.21-27.25-14.22-23.1-11.87-36.52-37.03-31.86-64.09,2.34-9.51,8.61-16.99,6.68-27.03-.48-1.83-.47-4.9-2.69-5.44-1.5-.12-.98,3.19-1.29,4.2-.16,1.66-.3,3.32-.54,4.97-.83,6.85-4.72,12.93-6.21,19.57-.09.22-.11.92-.36.41-.4-1.02-1.14-2.33-1.38-3.48-4.06-16.35,5.59-31.79,19.89-39.24,6.41-3.33,13.23-6.09,16.72-12.94.86-1.63,4.44-9.18,2.92-9.92-1.16-.54-3.6-2.68-5.02-1.86-.71.97-.24,2.38-.32,3.58-.03.32.14,1.06-.26,1.13-.16-.05-.29-.38-.37-.56-1.12-3.45-3.64-5.59-6.17-7.92-11.65-9.63-1.75-18.51-2.99-30.66-1.51-10.77-10.71-17.09-21.24-13.47-1.94.44-5.87,2.82-1.93,3.82,6.07,1.44,7.24,8.46,10.16,13.13,1.06,1.69,2.5,3.11,3.72,4.67.82.79,1.11,2.15,2.03,2.75.83.14,1.18-1.1,1.18-1.76.19-3.23.62-6.28-.32-9.57-.38-1.39-1.3-2.57-1.83-3.86,7.45,5.29.84,16.44,1.28,24.72.14,2.78,1.14,5.42,2.4,7.88.23.59.84,1.24.47,1.37-1.19.17-4.91-.16-6.57.09-6.24.99-11.85,3.65-16.39,8.05-.73.58-.42-.14-.02-.71,3.37-4.7,8.57-7.9,14.37-8.52,4.72-.62,5.09-1.73.64-3.71-12.72-5.9-24.37,6.46-23.73,19.06-.21,2.64,1.76,20.21,5.05,10.02,3.26-11.04,17.64-5.13,21.7-18.09.84-1.53,1.23-2.56,2.63-2.75,8.01-1.07,14.89,9.45,8.86,15.79-3.16,3.55-8.45,5.2-12.45,7.59-20.5,11.05-24.38,33.73-14.91,54.09.81,2.19,1.64,4.42,1.93,6.72,0,.39-.38.07-.56-.07-3.63-3.05-8.29-4.57-13.07-4.13-1.4-.04-3.86,1.23-1.5,2.32,6.51,2.4,4.3,11.18,10.69,15.79,6.5,4.1,7.38,6.88,10.48,14.04,2.3,4.71,5.58,8.95,9.03,12.88,1.21,1.44-2.7-.23-3.2-.2-4.09-.74-7.82,1-11.36-1.63-1.48-.97-2.28-2.69-3.56-3.86-1.01-1.08-2.44-.7-2.25.86.43,8.08,5.7,15.47,12.62,19.45,10.37,6.72,22.71-1.27,32.92,3.8,7.82,3.61,9.86.69,1.96,4.55-4.74,3.02-8.35,8.28-9.72,13.76-.18.5-.48.46-.5-.12.25-3.42,1.63-6.56,3.67-9.27,1.4-1.91,3.56-3.39,4.89-5.37.22-.35.42-.83.18-1.11-.14-.18-.42-.27-.75-.3-13.51-.86-17.07,15.58-11.2,25.52.87,1.62,4.78,6.53,4.87,2.92-.54-7.24,9.56-9.11,11.4-15.85,1.46-4.46-.15-9,6.07-9.7,8.53-.36,13.54,14.89,22.83,14.32,1.51.12,5.56-1.53,3.84-3.31-1.08-.55-2.41-.5-3.5-1.03-5.96-2.49-7.98-10.33-4.67-15.66,7.16-10.47,24.97-6.4,36.11-7.18,1.61-.03-.78,1.03-1.21,1.12-9.64,2.84-23.39-2.74-30.82,5.33-.7.71.24,1.1.87,1.03,2.34-.09,4.74-.33,7.09.08,3.61.59,7.01,2.43,10.71,2.54,13.6.93,22.23-8.45,30.25-17.85.35-.48.38-1.23-.34-1.2h-.07ZM51.4,273.47c-4.9-.68-10.08-2.36-14.85-3.7-.49-.13-.95-.31-1.4-.57-.47-.28-.23-.65.24-.59,5.72,1.02,11.66,1.62,16.84,4.34.37.2.51.61-.04.63-.24,0-.49-.05-.72-.09h-.08Z"/>
      </g>
      <path id="vinyl-label" class="cls-2" d="M150.33,74.7c-2.3,3.35-4.54,7.68-4.72,11.76,6.25-1.9,12.9-1.58,19.09.49,5.65,1.88,10.34,6.17,14.25,10.56l1.3,1.75c-.14.33,1.02-1.66,1.5-2.46,1.26-2.13,2.87-4.73,4.75-6.86,4.67-5.28,11.05-9.22,18.03-10.47-9.83-22.81-40.14-25.27-54.19-4.78ZM175.41,89.52c-1.98,0-3.58-1.6-3.58-3.58s1.6-3.58,3.58-3.58,3.58,1.6,3.58,3.58-1.6,3.58-3.58,3.58Z"/>
      <g>
        <g>
          <path class="cls-4" d="M179.43,359.33c-6.2-.94-11.48-6.78-12.65-12.84-2.83-19.21,28.72-26.33,17.05-49.15-1.97-3.92-4.73-7.63-6.48-11.67-.94-2.22-1.82-3.7-2.54-.18-1.76,8.3-6.64,15.89-4.55,24.68,1.15,4.51,4,11.02-.51,14.44-.41.02-.33-.69-.34-1.07.18-2.58.57-5.56-.79-7.9-1.28-1.11-2.47,1.42-3.5,2.04-5.81,3.75-6.78,4.92-6.5,11.9-.46,4.05-5.54-8.64,2.4-13.19,5.62-3.2,4.64-10.35,4.83-15.97-.16-2.02-2.02-.81-2.99-.17-3.14,2.13-6.64,3.75-9.81,5.83-4.32,2.64-7.64,7.09-7.23,12.34.64,7.99,8.09,13.45,6.76,21.56-.52,6.2-.15,6.91,2.26,12.17-.45.76-1.79-.47-2.33-.88-3.2-2.8-3.61-7.52-3.44-11.56,0-3.34-.85-7.97-4.14-9.53-2.21.21-2.81,6.05-5.92,8.12-2.98,2.72-7.02,3.13-9.97,5.83-3.72,3.25-2.3,9.17,2.55,10.24,3.5,1.91-4.45,2.54-7-1.4-1.51-1.9-1.78-4.8-1.29-7.17,1.63-8.03,12.9-6.49,15.44-14.15,2.88-7.52-1.78-15.93,2.65-23.13,13.6-19.14,30.18-9.19,26.18-41.78-.6-4.84.17-5.07,2.99-1.74,1.75,2.47,4.88,3.72,6.45,5.99,1.66,3.06,2.25,7.21,3.92,10.05.25.39,1.47,2.46,1.58,1.05.03-2.51-1.87-5.99-.79-8.09,1.74-1.35,4.12,7.39,5.11,8.61,1.71,3.4,4.49,6.36,6.39,9.77,2.17,3.7,3.73,7.8,6.32,11.22,6.2,8.58,18.52,6.39,25.86,13.42,4.05,3.31,4.89,8.51,7.07,12.94,1.97,4.09,7.58,4.86,10.09.91,2.72-3.48,1.83,7.71-7.64,5.44-1.42-.28-2.7.31-2.58,1.89-.02,6.01,7.17,10.09,12.25,6.82.52-.19.86-.35.92-.06-3.03,5.34-12.8,4.87-15.51-.86-4.31-9.29,1.57-18.92-10.68-26.12-1.83-.93-11.95-5.58-11.99-1.66.18,3.28,1.46,6.96,3.51,9.62,2.6,3.21,6.54,5.11,8.19,9.08,1.83,3.61,1.03,10.02-2.84,11.73-.81-.88.42-2.88.57-4.02,1.87-8.8-6.39-10.18-10.19-15.82-4.53-9.19-.66-8.87-8.99-18.91-.66-.75-3.91-6.03-3.84-2.71-.07,4.83.51,9.86-.46,14.62-1.72,5.15-5.57,12.48.49,16.23,3.74,2.44,9.21,3.47,10.95,8.13,1.44,3.93.34,8.8,2.83,12.45.88,1.78-1.19.63-1.73-.09-4.19-6.14-.57-11.76-10.13-15.35-4.44-1.92.13,5.47-2.66,9.25-.68,1.11-1.44,2.12-2.36,2.11-.24-.08-.26-.46-.13-1.07.5-1.74,1.06-3.69.74-5.55-1.34-7.05-7.2-12.79-3.78-20.53.29-1.09,1.57-3.72,1-4.53-7.5,10.59-24.43,18.09-14.43,32.73.36,1.25,6.92,5.29,5.43,5.61h-.04Z"/>
          <path class="cls-4" d="M285.88,281.63c.09.13.14.39.14.6.1,2.27-.14,4.03-1.05,5.94-5.03,9.96-19.12,14.51-29.34,10.48-.65-.25-.51.36-.35.76,2.63,7.41,11.2,7.19,17.74,5.02,3.65-1.25,6.25-3.49,10.13-3.41,1.94.03,4.14.78,5.97,1.69,3.49,1.71,7.1,6.18,11.25,3.49,3.59-2.2,1.59-6.37-.99-8.58-.59-.5-.87-.79-.13-.74,6.7.59,8.64,9.34,2.95,12.73-10.36,5.74-13.93-7.76-24.76-2.82-.63.13-.39.37.02.63,3.38,2.22,7.1,4.41,7.35,8.78.09,1.67-.38,3.32-1.17,4.95-.66,1.23-1.69,1.32-1.26-.28,1.14-5.08-2.28-8.75-6.66-10.24-4.91-1.8-9.08-.04-13.92-.65-8.55-1.15-8.46-6.17-12.97-12.03-3.87-4.48-9.72-9.47-15.82-9.71-.71-.04-.91.22-.48.79,1.28,1.68,2.59,3.44,3.33,5.47,1.35,3.27,1.78,6.62,3.19,9.77,5.35,12.26,22.85,6.71,27.88,19.18,2.56,5.62.56,13.79,9.47,13.02.02,0,.27.02.33.06.13.08.1.1.12.16,0,.1-.05.21-.11.31-1.42,1.73-4.81,1.59-6.74,1.03-6.14-1.99-3.74-11.09-8.51-15.42-3.56-3.6-8.87-3.51-13.42-5.18-.62-.15-5.43-2.75-4.77-1.31,3.67,4.94,10.14,8.02,10.47,14.73.04.75-.02,1.89-.65,2.3-.31.16-.42-.26-.41-.53.04-.93,0-2.05-.32-2.9-1.52-3.9-11.86-11.53-15.38-16.56-1.44-2.08-2.52-4.55-3.25-6.79-2.4-7.8-3.1-14.87-11.29-19.02-3.55-1.78-7.55-2.73-10.52-5.61-2.42-2.12-5.2-4.75-7.45-7.08-.77-.91-2.76-2.59-2.03-3.47,3.02-1.48,6.3-.05,8.95,1.6,1.14.73,2.25,1.56,3.34,2.38,7.38,6.17,15.02,6.62,23.74,8.45,2.25.46,4.57,1.62,6.12,3.22,10.51,12.11,33.26,14.2,39.93-2.71.3-.82.6-1.64,1.06-2.32.08-.1.17-.23.28-.2h.03Z"/>
          <g>
            <path class="cls-4" d="M141.23,296.88c-.13.07-.04.02,0,0h0Z"/>
            <path class="cls-4" d="M141.25,296.87s0,0-.02,0c0,0,0,0,.02,0Z"/>
            <path class="cls-4" d="M158.03,264.43c-10.39,10.62-18.5,20.78-33.26,25.5-9.58,3.01-14.94,3.78-22.69,10.9-1.55,1.17-3.3,1.87-5.19,2.14-5.44.79-11.39-.71-16.75,1.18-4.28,1.38-7.86,4.77-9.08,9.14-.88,3.19-.95,7.1.63,10.1,1.36,2.51,4.27,4.12,7.08,4.04.7-.03,1.25-.35.67-.94-1.57-1.33-3.72-2.38-4.51-4.48-1.14-2.65-.62-5.92.75-8.43,1.61-3.1,4.67-4.58,8.1-5.05,5.41-.9,10.73-.21,16.07-.73,2.12-.34,3.18.13,2.05,2.36-1.14,2.14-2.84,4.09-4.78,5.44-1.3.93-2.66,1.77-3.73,2.99-3.19,3.55-4.66,8.77-2.81,13.25,1.29,2.59,1.25-1.17,1.28-2.18.03-.8.13-1.56.31-2.29,1.27-6.08,8.66-8.71,12.02-13.34,2.4-3.47,2.95-8.02,5.76-11.34,1.61-2,3.87-3.38,6.4-3.89,1.6-.34,6.8-.91,5.11,2.09-1.06,1.66-2.71,3.46-3.17,5.26-.75,2.4-.33,4.65-.39,7.12-.01,3.34-1.1,7.1-4.12,8.95-4.21,2.59-9.05,2.91-11.28,8.01-1.36,2.9-1.84,6.39-.91,9.46.42,1.58,2.02,3.95,1.97,1.32-.32-2.72-.41-6.01,1.07-8.53,3.74-6.23,11.25-4.27,15.33-11.18,1.1-1.13,1.81-.06,2.51,1.24,1.6,2.97,2.1,7.01-.2,9.76-2.03,2.58-5.67,3.79-7.72,6.17-.74.76-2.03,3.1.18,1.86,1.67-1.08,3.68-2.18,5.51-3.11,9.29-4.55,9.48-12.65,4.13-20.63-1.83-2.84-2.51-6.64-.81-9.61,2.76-4.88,8.11-6.74,13.18-8.69,5.42-1.8,9.36-4.53,12.15-9.63,1.27-2.17,2.27-4.52,3.57-6.7,2.07-3.52,4.98-6.61,6.4-10.55.68-1.51,2.41-9.52-.76-7.04l-.06.05ZM137.42,293.04c-1.39.5-9.11,2.81-9.6,1.14.51-.68,1.95-.99,2.8-1.33,1.69-.6,3.15-1.28,4.69-2.05,2.09-1.03,4.07-2.35,6.01-3.81.79-.52,1.96-1.68,2.89-1.35.74.64-.03,2.18-.68,3.19-1.38,2.07-3.76,3.35-6.03,4.18l-.09.03Z"/>
          </g>
          <path class="cls-4" d="M224.23,307.93c-.15,0-.35-.21-.48-.35-1.73-1.9-3.12-4.24-5.22-5.75-3-2.14-6.94-2.1-10.14-3.88-8.51-4.5-5.07-12.09-13.64-19.79-.61-.7-5.5-5.49-3.11-5.45,1.81.19,3.85-.55,5.5.13.89.49,3.04,2.24,4.77,3.75,1.13,1.02,2.1,1.77,2.93,2.98,2.56,3.61,2.08,7.65,4.05,11.5,2.02,4.16,6.57,4.51,10.21,7.09,2.48,1.75,6.18,6.53,5.16,9.77h-.03Z"/>
        </g>
        <path class="cls-4" d="M246.39,42.95c-.35,1.55-2.56-.52-3.12-1.05C211.68,6.82,153.76.79,117.66,32.74c-3.27,2.94-5.97,6.49-9.42,9.21-.38.27-.82.54-1.28.58-.8.04-.74-.75-.35-1.41C130.3,1.19,204.45-3.93,239.31,32.92c2.62,2.8,4.89,5.79,6.67,8.9.2.33.38.72.41,1.07v.06Z"/>
        <path class="cls-4" d="M218.01,30.13c-33.35-19.02-80.54-12.55-99.89,16.57-.47.83-.39,1.52.45,1.33,1.78-.61,2.97-2.16,4.37-3.35,1.75-1.67,3.45-3.45,5.31-5,33.51-27.75,84.99-19.48,111.2,14.15.67.67,1.84,2.14,2.72,1.81.47-.25.16-1.24-.1-1.71-4.7-9.52-14.01-18.07-23.98-23.75l-.08-.04Z"/>
        <path class="cls-4" d="M197.24,34.04c-2.45-3.33-12.34-3.76-16.43-4.12-17.69-.91-36.26,5.04-48.7,18-1.13,1.18-7.23,7.94-6.32,9.04.27.29,1.09-.04,1.78-.6,1.19-.98,2.24-2.05,3.36-3.19,15.24-16.35,39.49-24.06,61.26-18.34,1.28.26,5.78,1.71,5.07-.73l-.03-.06Z"/>
        <path class="cls-4" d="M197.14,45.27c-.37-.76-1.58-1.49-2.57-1.9-2.43-1.02-5.08-1.43-7.67-1.85-18.68-2.95-39.21,3.58-51.31,18.51-.64.87-3.56,4.09-2.49,4.76.29.05.5-.06.78-.19,1.41-.81,2.55-2.16,3.77-3.28,12.16-12.48,30.23-19.18,47.54-16.45,2.06.29,4.11.65,6.14,1.12,1.37.25,6.63,1.94,5.83-.67l-.03-.05Z"/>
      </g>
    </g>
  </g>
</svg>