<?xml version="1.0" encoding="UTF-8"?>
<svg id="Layer_2" data-name="Layer 2" xmlns="http://www.w3.org/2000/svg" viewBox="0 0 716.05 290.56">
  <defs>
    <style>
      .cls-1 {
        fill: #f3ede2;
      }
    </style>
  </defs>
  <g id="Layer_1-2" data-name="Layer 1">
    <g>
      <path class="cls-1" d="M716.05,290.56H0V0h716.05v290.56ZM18.78,271.78h678.5V18.78H18.78v253Z"/>
      <g>
        <g id="_5dKiOJ" data-name="5dKiOJ">
          <g>
            <path class="cls-1" d="M480.58,159.99c4.89-.02,9.32-.66,14.17-2.01,22.26-6.23,35.46-26.67,35.73-49.19.24-19.9-8.75-38.13-26.31-47.88-8.21-4.33-17.01-6.69-26.42-6.69h-74.47l.05,182.11h122.81l-65.02-76.22,19.47-.12Z"/>
            <path class="cls-1" d="M318.63,54.23v97.51c-.72,18.78-10.72,35.34-28.31,42.33-6.35,2.52-12.84,3.89-19.73,3.94l-14.21.1.04,38.23h126.68V54.23s-64.47,0-64.47,0Z"/>
          </g>
        </g>
        <polygon class="cls-1" points="660.72 219.95 660.72 54.23 555.49 54.23 660.72 219.95"/>
        <polygon class="cls-1" points="545.06 70.66 545.06 236.33 650.29 236.33 545.06 70.66"/>
        <g>
          <polygon class="cls-1" points="222.39 236.33 300.14 54.23 187.32 54.23 163.67 100.45 222.39 236.33"/>
          <polygon class="cls-1" points="123.76 54.23 55.34 54.23 136.91 236.33 173.84 165.32 123.76 54.23"/>
        </g>
      </g>
    </g>
  </g>
</svg>