<?xml version="1.0" encoding="UTF-8"?>
<svg id="Layer_2" data-name="Layer 2" xmlns="http://www.w3.org/2000/svg" viewBox="0 0 605.39 182.11">
  <defs>
    <style>
      .cls-1 {
        fill: #050201;
      }
    </style>
  </defs>
  <g id="Layer_1-2" data-name="Layer 1">
    <g>
      <g id="_5dKiOJ" data-name="5dKiOJ">
        <g>
          <path class="cls-1" d="M425.25,105.76c4.89-.02,9.32-.66,14.17-2.01,22.26-6.23,35.46-26.67,35.73-49.19.24-19.9-8.75-38.13-26.31-47.88C440.62,2.35,431.82,0,422.41,0h-74.47l.05,182.11h122.81l-65.02-76.22,19.47-.12Z"/>
          <path class="cls-1" d="M263.29,0v97.51c-.72,18.78-10.72,35.34-28.31,42.33-6.35,2.52-12.84,3.89-19.73,3.94l-14.21.1.04,38.23h126.68V0S263.29,0,263.29,0Z"/>
        </g>
      </g>
      <polygon class="cls-1" points="605.39 165.72 605.39 0 500.16 0 605.39 165.72"/>
      <polygon class="cls-1" points="489.72 16.43 489.72 182.11 594.95 182.11 489.72 16.43"/>
      <g>
        <polygon class="cls-1" points="167.05 182.11 244.8 0 131.98 0 108.33 46.22 167.05 182.11"/>
        <polygon class="cls-1" points="68.42 0 0 0 81.57 182.11 118.51 111.09 68.42 0"/>
      </g>
    </g>
  </g>
</svg>